<mxfile host="65bd71144e" modified="2020-10-15T21:31:54.582Z" agent="5.0 (Windows NT 10.0; Win64; x64) AppleWebKit/537.36 (KHTML, like Gecko) Code/1.50.1 Chrome/83.0.4103.122 Electron/9.2.1 Safari/537.36" version="13.6.5" etag="Ohq43Nc_d50HWhE1WwXE">
    <diagram id="wVJNS8GhNtPyMkiuw90a" name="Page-1">
        <mxGraphModel dx="879" dy="525" grid="1" gridSize="10" guides="1" tooltips="1" connect="1" arrows="1" fold="1" page="1" pageScale="1" pageWidth="850" pageHeight="1100" background="#ffffff" math="0" shadow="0">
            <root>
                <mxCell id="0"/>
                <mxCell id="1" parent="0"/>
                <mxCell id="5" value="Cloud" style="rounded=0;whiteSpace=wrap;html=1;sketch=0;fillColor=none;strokeColor=#000000;strokeWidth=2;align=left;verticalAlign=top;fontColor=#000000;" vertex="1" parent="1">
                    <mxGeometry x="40" y="20" width="740" height="500" as="geometry"/>
                </mxCell>
                <mxCell id="3" value="" style="shape=image;verticalLabelPosition=bottom;labelBackgroundColor=#ffffff;verticalAlign=top;aspect=fixed;imageAspect=0;image=data:image/svg+xml,PHN2ZyB4bWxucz0iaHR0cDovL3d3dy53My5vcmcvMjAwMC9zdmciIHhtbG5zOnhsaW5rPSJodHRwOi8vd3d3LnczLm9yZy8xOTk5L3hsaW5rIiB3aWR0aD0iMzgiIGhlaWdodD0iMzQiIG92ZXJmbG93PSJoaWRkZW4iIHZpZXdCb3g9IjAgMCAzOCAzNCI+PGRlZnM+PGNsaXBQYXRoIGlkPSJjbGlwMCI+PHJlY3QgeD0iNDYwIiB5PSI2NTYiIHdpZHRoPSIzOCIgaGVpZ2h0PSIzNCIvPjwvY2xpcFBhdGg+PC9kZWZzPjxnIGNsaXAtcGF0aD0idXJsKCNjbGlwMCkiIHRyYW5zZm9ybT0idHJhbnNsYXRlKC00NjAgLTY1NikiPjxwYXRoIGQ9Ik00OTcuNDE1IDY3Mi44MjVDNDkzLjA5MyA2NjcuNjc1IDQ5My4wOTMgNjY3LjY3NSA0OTMuMDkzIDY2Ny42NzUgNDkzLjAwOSA2NjcuNSA0OTIuNzU0IDY2Ny41IDQ5Mi42NyA2NjcuNTg3IDQ5Mi41IDY2Ny43NjIgNDkyLjUgNjY3LjkzNyA0OTIuNTg1IDY2OC4xMTEgNDk2LjY1MyA2NzMgNDk2LjY1MyA2NzMgNDk2LjY1MyA2NzMgNDkyLjU4NSA2NzcuODg5IDQ5Mi41ODUgNjc3Ljg4OSA0OTIuNTg1IDY3Ny44ODkgNDkyLjUgNjc4LjA2NCA0OTIuNSA2NzguMzI1IDQ5Mi42NyA2NzguNDEzIDQ5Mi42NyA2NzguNSA0OTIuNzU0IDY3OC41IDQ5Mi44MzkgNjc4LjUgNDkyLjkyNCA2NzguNSA0OTMuMDkzIDY3OC41IDQ5My4wOTMgNjc4LjQxMyA0OTcuNDE1IDY3My4yNjIgNDk3LjQxNSA2NzMuMjYyIDQ5Ny40MTUgNjczLjI2MiA0OTcuNSA2NzMuMDg3IDQ5Ny41IDY3Mi45MTMgNDk3LjQxNSA2NzIuODI1WiIgc3Ryb2tlPSIjMDAwMDAwIiBzdHJva2Utd2lkdGg9IjAiIHN0cm9rZS1saW5lam9pbj0icm91bmQiIHN0cm9rZS1taXRlcmxpbWl0PSIxMCIgZmlsbD0iIzM3MzczNyIgZmlsbC1ydWxlPSJldmVub2RkIi8+PHBhdGggZD0iTTQ4MS41MTUgNjgwLjEzQzQ4MS42OTggNjgwLjEzIDQ4MS44ODEgNjgwLjEzIDQ4Mi4wNjQgNjgwLjEzIDQ4NS4wNzkgNjg4LjI1MSA0ODUuMDc5IDY4OC4yNTEgNDg1LjA3OSA2ODguMjUxIDQ4NS4xNyA2ODguNDE3IDQ4NS4yNjEgNjg4LjUgNDg1LjQ0NCA2ODguNSA0ODUuNDQ0IDY4OC41IDQ4NS41MzYgNjg4LjUgNDg1LjUzNiA2ODguNSA0ODUuNzE4IDY4OC40MTcgNDg1LjgxIDY4OC4yNTEgNDg1LjgxIDY4OC4wODYgNDgyLjc5NCA2ODAuMDQ3IDQ4Mi43OTQgNjgwLjA0NyA0ODIuNzk0IDY4MC4wNDcgNDg2LjA4NCA2NzkuNDY3IDQ4OC42NDIgNjc2Ljk4MSA0ODguODI1IDY3My44MzIgNDk2LjEzNSA2NzMuODMyIDQ5Ni4xMzUgNjczLjgzMiA0OTYuMTM1IDY3My44MzIgNDk2LjMxNyA2NzMuODMyIDQ5Ni41IDY3My42NjYgNDk2LjUgNjczLjUgNDk2LjUgNjczLjMzNCA0OTYuMzE3IDY3My4xNjkgNDk2LjEzNSA2NzMuMTY5IDQ4OC44MjUgNjczLjE2OSA0ODguODI1IDY3My4xNjkgNDg4LjgyNSA2NzMuMTY5IDQ4OC42NDIgNjcwLjEwMiA0ODYuMDg0IDY2Ny41MzMgNDgyLjc5NCA2NjcuMDM2IDQ4NS43MTggNjU4Ljk5NyA0ODUuNzE4IDY1OC45OTcgNDg1LjcxOCA2NTguOTk3IDQ4NS44MSA2NTguODMyIDQ4NS43MTggNjU4LjY2NiA0ODUuNTM2IDY1OC41ODMgNDg1LjM1MyA2NTguNSA0ODUuMDc5IDY1OC42NjYgNDg1LjA3OSA2NTguODMyIDQ4Mi4wNjQgNjY2Ljk1MyA0ODIuMDY0IDY2Ni45NTMgNDgyLjA2NCA2NjYuOTUzIDQ4MS44ODEgNjY2Ljk1MyA0ODEuNjk4IDY2Ni45NTMgNDgxLjUxNSA2NjYuOTUzIDQ3Ny42NzggNjY2Ljk1MyA0NzQuNDggNjY5LjY4OCA0NzQuMjk3IDY3My4xNjkgNDY4LjgxNSA2NzMuMTY5IDQ2OC44MTUgNjczLjE2OSA0NjguODE1IDY3My4xNjkgNDY4LjYzMiA2NzEuMjYzIDQ2Ni44OTYgNjY5LjY4OCA0NjQuNzAzIDY2OS42ODggNDYyLjMyNyA2NjkuNjg4IDQ2MC41IDY3MS40MjggNDYwLjUgNjczLjUgNDYwLjUgNjc1LjY1NSA0NjIuMzI3IDY3Ny4zMTIgNDY0LjcwMyA2NzcuMzEyIDQ2Ni44OTYgNjc3LjMxMiA0NjguNjMyIDY3NS44MiA0NjguODE1IDY3My44MzIgNDc0LjI5NyA2NzMuODMyIDQ3NC4yOTcgNjczLjgzMiA0NzQuMjk3IDY3My44MzIgNDc0LjQ4IDY3Ny4zMTIgNDc3LjY3OCA2ODAuMTMgNDgxLjUxNSA2ODAuMTNaTTQ4MS41MTUgNjY3LjYxNkM0ODUuMTcgNjY3LjYxNiA0ODguMDk0IDY3MC4yNjggNDg4LjA5NCA2NzMuNSA0ODguMDk0IDY3Ni44MTUgNDg1LjE3IDY3OS40NjcgNDgxLjUxNSA2NzkuNDY3IDQ3Ny45NTIgNjc5LjQ2NyA0NzUuMDI4IDY3Ni44MTUgNDc1LjAyOCA2NzMuNSA0NzUuMDI4IDY3MC4yNjggNDc3Ljk1MiA2NjcuNjE2IDQ4MS41MTUgNjY3LjYxNlpNNDY0LjcwMyA2NzYuNjQ5QzQ2Mi43ODQgNjc2LjY0OSA0NjEuMjMxIDY3NS4yNCA0NjEuMjMxIDY3My41IDQ2MS4yMzEgNjcxLjc2IDQ2Mi43ODQgNjcwLjM1MSA0NjQuNzAzIDY3MC4zNTEgNDY2LjUzMSA2NzAuMzUxIDQ2OC4xNzUgNjcxLjc2IDQ2OC4xNzUgNjczLjUgNDY4LjE3NSA2NzUuMjQgNDY2LjUzMSA2NzYuNjQ5IDQ2NC43MDMgNjc2LjY0OVoiIHN0cm9rZT0iIzAwMDAwMCIgc3Ryb2tlLXdpZHRoPSIwIiBzdHJva2UtbGluZWpvaW49InJvdW5kIiBzdHJva2UtbWl0ZXJsaW1pdD0iMTAiIGZpbGw9IiMzNzM3MzciIGZpbGwtcnVsZT0iZXZlbm9kZCIvPjxwYXRoIGQ9Ik00NzkuMDUgNjU5Ljk1M0M0ODUuMjgzIDY1Ny4zNCA0ODUuMjgzIDY1Ny4zNCA0ODUuMjgzIDY1Ny4zNCA0ODguNzY3IDY2My4zMTMgNDg4Ljc2NyA2NjMuMzEzIDQ4OC43NjcgNjYzLjMxMyA0ODguODU4IDY2My40MDcgNDg4Ljk1IDY2My41IDQ4OS4xMzMgNjYzLjUgNDg5LjEzMyA2NjMuNSA0ODkuMjI1IDY2My40MDcgNDg5LjMxNyA2NjMuNDA3IDQ4OS40MDggNjYzLjMxMyA0ODkuNSA2NjMuMDMzIDQ4OS40MDggNjYyLjk0IDQ4NS43NDIgNjU2LjY4NyA0ODUuNzQyIDY1Ni42ODcgNDg1Ljc0MiA2NTYuNjg3IDQ4NS42NSA2NTYuNSA0ODUuNDY3IDY1Ni41IDQ4NS4zNzUgNjU2LjUgNDc4Ljc3NSA2NTkuMjA3IDQ3OC43NzUgNjU5LjIwNyA0NzguNzc1IDY1OS4yMDcgNDc4LjU5MiA2NTkuMyA0NzguNSA2NTkuNDg3IDQ3OC41IDY1OS42NzMgNDc4LjU5MiA2NTkuOTUzIDQ3OC44NjcgNjU5Ljk1MyA0NzkuMDUgNjU5Ljk1M1oiIHN0cm9rZT0iIzAwMDAwMCIgc3Ryb2tlLXdpZHRoPSIwIiBzdHJva2UtbGluZWpvaW49InJvdW5kIiBzdHJva2UtbWl0ZXJsaW1pdD0iMTAiIGZpbGw9IiMzNzM3MzciIGZpbGwtcnVsZT0iZXZlbm9kZCIvPjxwYXRoIGQ9Ik00ODkuMzE3IDY4My41OEM0ODkuMTMzIDY4My41IDQ4OC44NTggNjgzLjUgNDg4Ljc2NyA2ODMuNjYgNDg1LjM3NSA2ODguNzggNDg1LjM3NSA2ODguNzggNDg1LjM3NSA2ODguNzggNDc5LjA1IDY4Ni41NCA0NzkuMDUgNjg2LjU0IDQ3OS4wNSA2ODYuNTQgNDc4Ljg2NyA2ODYuNDYgNDc4LjU5MiA2ODYuNTQgNDc4LjU5MiA2ODYuNyA0NzguNSA2ODYuODYgNDc4LjU5MiA2ODcuMSA0NzguNzc1IDY4Ny4xOCA0ODUuMzc1IDY4OS40MiA0ODUuMzc1IDY4OS40MiA0ODUuMzc1IDY4OS40MiA0ODUuMzc1IDY4OS41IDQ4NS40NjcgNjg5LjUgNDg1LjQ2NyA2ODkuNSA0ODUuNjUgNjg5LjUgNDg1Ljc0MiA2ODkuNDIgNDg1LjgzMyA2ODkuMzQgNDg5LjQwOCA2ODMuOTggNDg5LjQwOCA2ODMuOTggNDg5LjQwOCA2ODMuOTggNDg5LjUgNjgzLjgyIDQ4OS41IDY4My42NiA0ODkuMzE3IDY4My41OFoiIHN0cm9rZT0iIzAwMDAwMCIgc3Ryb2tlLXdpZHRoPSIwIiBzdHJva2UtbGluZWpvaW49InJvdW5kIiBzdHJva2UtbWl0ZXJsaW1pdD0iMTAiIGZpbGw9IiMzNzM3MzciIGZpbGwtcnVsZT0iZXZlbm9kZCIvPjwvZz48L3N2Zz4=;sketch=0;" vertex="1" parent="1">
                    <mxGeometry x="241.82999999999998" y="200" width="33.53" height="30" as="geometry"/>
                </mxCell>
                <mxCell id="8" value="" style="edgeStyle=orthogonalEdgeStyle;rounded=0;orthogonalLoop=1;jettySize=auto;html=1;fontColor=#000000;" edge="1" parent="1" source="6" target="7">
                    <mxGeometry relative="1" as="geometry"/>
                </mxCell>
                <mxCell id="4" value="" style="shape=image;verticalLabelPosition=bottom;labelBackgroundColor=#ffffff;verticalAlign=top;aspect=fixed;imageAspect=0;image=data:image/svg+xml,PHN2ZyB4bWxucz0iaHR0cDovL3d3dy53My5vcmcvMjAwMC9zdmciIHhtbG5zOnhsaW5rPSJodHRwOi8vd3d3LnczLm9yZy8xOTk5L3hsaW5rIiB3aWR0aD0iMzciIGhlaWdodD0iMjgiIG92ZXJmbG93PSJoaWRkZW4iIHZpZXdCb3g9IjAgMCAzNyAyOCI+PGRlZnM+PGNsaXBQYXRoIGlkPSJjbGlwMCI+PHJlY3QgeD0iMzc2IiB5PSI2MDMiIHdpZHRoPSIzNyIgaGVpZ2h0PSIyOCIvPjwvY2xpcFBhdGg+PC9kZWZzPjxnIGNsaXAtcGF0aD0idXJsKCNjbGlwMCkiIHRyYW5zZm9ybT0idHJhbnNsYXRlKC0zNzYgLTYwMykiPjxwYXRoIGQ9Ik00MTIuMiA2MDkuODI0QzQxMi4zNSA2MDkuODI0IDQxMi41IDYwOS42ODIgNDEyLjUgNjA5LjU0IDQxMi41IDYwOS4zMjYgNDEyLjM1IDYwOS4yNTUgNDEyLjIgNjA5LjI1NSA0MDQuMTA2IDYwOS4yNTUgNDA0LjEwNiA2MDkuMjU1IDQwNC4xMDYgNjA5LjI1NSA0MDQuMTA2IDYwNC4wNjggNDA0LjEwNiA2MDQuMDY4IDQwNC4xMDYgNjA0LjA2OCA0MTIuMiA2MDQuMDY4IDQxMi4yIDYwNC4wNjggNDEyLjIgNjA0LjA2OCA0MTIuMzUgNjA0LjA2OCA0MTIuNSA2MDMuOTk3IDQxMi41IDYwMy43ODQgNDEyLjUgNjAzLjY0MiA0MTIuMzUgNjAzLjUgNDEyLjIgNjAzLjUgMzgzLjQyMSA2MDMuNTcxIDM4My40MjEgNjAzLjU3MSAzODMuNDIxIDYwMy41NzEgMzgzLjI3MSA2MDMuNTcxIDM4My4xMjEgNjAzLjY0MiAzODMuMTIxIDYwMy44NTUgMzgzLjEyMSA2MDMuOTk3IDM4My4yNzEgNjA0LjE0IDM4My40MjEgNjA0LjE0IDM5MS41MTUgNjA0LjA2OCAzOTEuNTE1IDYwNC4wNjggMzkxLjUxNSA2MDQuMDY4IDM5MS41MTUgNjA5LjI1NSAzOTEuNTE1IDYwOS4yNTUgMzkxLjUxNSA2MDkuMjU1IDM4My40MjEgNjA5LjI1NSAzODMuNDIxIDYwOS4yNTUgMzgzLjQyMSA2MDkuMjU1IDM4My4yNzEgNjA5LjI1NSAzODMuMTIxIDYwOS4zMjYgMzgzLjEyMSA2MDkuNTQgMzgzLjEyMSA2MDkuNjgyIDM4My4yNzEgNjA5LjgyNCAzODMuNDIxIDYwOS44MjQgMzg1LjUxOSA2MDkuODI0IDM4NS41MTkgNjA5LjgyNCAzODUuNTE5IDYwOS44MjQgMzg1LjUxOSA2MTEuMDMyIDM4NS41MTkgNjExLjAzMiAzODUuNTE5IDYxMS4wMzIgMzg1LjIyIDYxMS4xMDMgMzg0Ljg0NSA2MTEuMjQ1IDM4NC41NDUgNjExLjQ1OCAzODIuMDcyIDYxMy4xNjMgMzgyLjA3MiA2MTMuMTYzIDM4Mi4wNzIgNjEzLjE2MyAzODEuNzcyIDYxMy4xNjMgMzgxLjQ3MiA2MTMuMTYzIDM4MS4xNzIgNjEzLjE2MyAzODAuODczIDYxMy4wOTIgMzgwLjY0OCA2MTMuMDkyIDM4MC40MjMgNjEzLjA5MiAzNzkuNDQ5IDYxMy4wMjEgMzc4LjYyNCA2MTIuOTUgMzc4LjEgNjEzLjQ0NyAzNzcuNjUgNjEzLjgwMyAzNzcuNSA2MTQuMzcxIDM3Ny41IDYxNS4yOTUgMzc3LjUgNjE3LjY0IDM3Ny44IDYyMS40MDUgMzc3LjggNjIxLjc2MSAzNzcuOCA2MjIuMDQ1IDM3Ny44IDYyNC45NTggMzgxLjM5NyA2MjcuNDQ1IDM4NC40NyA2MjkuNjQ3IDM4NS42NjkgNjMwLjQyOSAzODUuNjY5IDYzMC40MjkgMzg1Ljc0NCA2MzAuNSAzODUuODE5IDYzMC41IDM4NS44OTQgNjMwLjUgMzg1Ljk2OSA2MzAuNSAzODUuOTY5IDYzMC41IDM4Ni4wNDQgNjMwLjQyOSAzODYuMDQ0IDYzMC40MjkgMzg3LjMxOCA2MjkuNjQ3IDM5MC4zOTEgNjI3LjQ0NSAzOTAuNjkxIDYyNy4yMzIgMzkwLjk5IDYyNy4wMTggMzkxLjIxNSA2MjYuODc2IDQxMi4yIDYyNi44NzYgNDEyLjIgNjI2Ljg3NiA0MTIuMiA2MjYuODc2IDQxMi4zNSA2MjYuODc2IDQxMi41IDYyNi43MzQgNDEyLjUgNjI2LjU5MiA0MTIuNSA2MjYuMzc5IDQxMi4zNSA2MjYuMzA4IDQxMi4yIDYyNi4zMDggNDEwLjEwMiA2MjYuMzA4IDQxMC4xMDIgNjI2LjMwOCA0MTAuMTAyIDYyNi4zMDggNDEwLjEwMiA2MjEuMTkyIDQxMC4xMDIgNjIxLjE5MiA0MTAuMTAyIDYyMS4xOTIgNDEyLjIgNjIxLjE5MiA0MTIuMiA2MjEuMTkyIDQxMi4yIDYyMS4xOTIgNDEyLjM1IDYyMS4xOTIgNDEyLjUgNjIxLjA1IDQxMi41IDYyMC45MDggNDEyLjUgNjIwLjY5NSA0MTIuMzUgNjIwLjYyNCA0MTIuMiA2MjAuNjI0IDQwNC4xMDYgNjIwLjYyNCA0MDQuMTA2IDYyMC42MjQgNDA0LjEwNiA2MjAuNjI0IDQwNC4xMDYgNjE1LjUwOCA0MDQuMTA2IDYxNS41MDggNDA0LjEwNiA2MTUuNTA4IDQxMi4yIDYxNS41MDggNDEyLjIgNjE1LjUwOCA0MTIuMiA2MTUuNTA4IDQxMi4zNSA2MTUuNTA4IDQxMi41IDYxNS4zNjYgNDEyLjUgNjE1LjIyNCA0MTIuNSA2MTUuMDExIDQxMi4zNSA2MTQuOTQgNDEyLjIgNjE0Ljk0IDQxMC4xMDIgNjE0Ljk0IDQxMC4xMDIgNjE0Ljk0IDQxMC4xMDIgNjE0Ljk0IDQxMC4xMDIgNjA5LjgyNCA0MTAuMTAyIDYwOS44MjQgNDEwLjEwMiA2MDkuODI0TDQxMi4yIDYwOS44MjRaTTM5Mi4xMTUgNjA0LjA2OEM0MDMuNTA2IDYwNC4wNjggNDAzLjUwNiA2MDQuMDY4IDQwMy41MDYgNjA0LjA2OCA0MDMuNTA2IDYwOS4yNTUgNDAzLjUwNiA2MDkuMjU1IDQwMy41MDYgNjA5LjI1NSAzOTIuMTE1IDYwOS4yNTUgMzkyLjExNSA2MDkuMjU1IDM5Mi4xMTUgNjA5LjI1NUwzOTIuMTE1IDYwNC4wNjhaTTM5Ny41MTEgNjA5LjgyNEMzOTcuNTExIDYxNC45NCAzOTcuNTExIDYxNC45NCAzOTcuNTExIDYxNC45NCAzOTQuMjg4IDYxNC45NCAzOTQuMjg4IDYxNC45NCAzOTQuMjg4IDYxNC45NCAzOTQuMjEzIDYxNC4yMjkgMzk0LjA2MyA2MTMuNzMyIDM5My42ODkgNjEzLjQ0NyAzOTMuMTY0IDYxMi45NSAzOTIuMzM5IDYxMy4wMjEgMzkxLjM2NSA2MTMuMDkyIDM5MS4xNCA2MTMuMDkyIDM5MC45MTUgNjEzLjA5MiAzOTAuNjE2IDYxMy4xNjMgMzkwLjMxNiA2MTMuMTYzIDM5MC4wMTYgNjEzLjE2MyAzODkuNzE2IDYxMy4xNjMgMzg3LjQ2OCA2MTEuNDU4IDM4Ny40NjggNjExLjQ1OCAzODcuNDY4IDYxMS40NTggMzg3LjAxOCA2MTEuMTc0IDM4Ni41NjkgNjExLjAzMiAzODYuMTE5IDYxMS4wMzIgMzg2LjExOSA2MDkuODI0IDM4Ni4xMTkgNjA5LjgyNCAzODYuMTE5IDYwOS44MjRMMzk3LjUxMSA2MDkuODI0Wk0zOTMuOTg4IDYyMS43NjFDMzkzLjk4OCA2MjEuNjkgMzkzLjk4OCA2MjEuNDc2IDM5My45ODggNjIxLjE5MiAzOTcuNTExIDYyMS4xOTIgMzk3LjUxMSA2MjEuMTkyIDM5Ny41MTEgNjIxLjE5MiAzOTcuNTExIDYyNi4zMDggMzk3LjUxMSA2MjYuMzA4IDM5Ny41MTEgNjI2LjMwOCAzOTEuODE1IDYyNi4zMDggMzkxLjgxNSA2MjYuMzA4IDM5MS44MTUgNjI2LjMwOCAzOTMuOTg4IDYyNC4xMDUgMzkzLjk4OCA2MjEuOTc0IDM5My45ODggNjIxLjc2MVpNMzkwLjAxNiA2MjcuMDE4QzM4Ny42MTggNjI4LjcyNCAzODYuMzQ0IDYyOS41NzYgMzg1Ljg5NCA2MjkuODYxIDM4NS40NDQgNjI5LjU3NiAzODQuMTcgNjI4LjcyNCAzODEuNjk3IDYyNy4wMTggMzc4LjI1IDYyNC42MDMgMzc4LjM5OSA2MjEuNzYxIDM3OC4zOTkgNjIxLjc2MSAzNzguMzk5IDYyMS43NjEgMzc4LjM5OSA2MjEuNjkgMzc4LjM5OSA2MjEuNjkgMzc4LjM5OSA2MjEuNjkgMzc4LjEgNjE3LjcxMSAzNzguMSA2MTUuMjk1IDM3OC4xIDYxNC41ODQgMzc4LjE3NSA2MTQuMDg3IDM3OC40NzQgNjEzLjg3NCAzNzguNjk5IDYxMy42NjEgMzc4Ljk5OSA2MTMuNTkgMzc5LjQ0OSA2MTMuNTkgMzc5Ljc0OCA2MTMuNTkgMzgwLjA0OCA2MTMuNTkgMzgwLjM0OCA2MTMuNjYxIDM4MC41NzMgNjEzLjY2MSAzODAuODczIDYxMy42NjEgMzgxLjA5OCA2MTMuNzMyIDM4MS40NzIgNjEzLjczMiAzODEuNzcyIDYxMy43MzIgMzgyLjE0NyA2MTMuNzMyIDM4Mi4yMjIgNjEzLjczMiAzODIuMjIyIDYxMy43MzIgMzgyLjI5NyA2MTMuNjYxIDM4NC45MiA2MTEuODg0IDM4NC45MiA2MTEuODg0IDM4NC45MiA2MTEuODg0IDM4NS41OTQgNjExLjM4NyAzODYuMzQ0IDYxMS40NTggMzg3LjA5MyA2MTEuOTU1IDM4OS40MTcgNjEzLjY2MSAzODkuNDE3IDYxMy42NjEgMzg5LjQxNyA2MTMuNjYxIDM4OS40OTEgNjEzLjczMiAzODkuNTY2IDYxMy43MzIgMzg5LjY0MSA2MTMuNzMyIDM5MC4wMTYgNjEzLjczMiAzOTAuMzE2IDYxMy43MzIgMzkwLjY5MSA2MTMuNzMyIDM5MC45MTUgNjEzLjY2MSAzOTEuMTQgNjEzLjY2MSAzOTEuNDQgNjEzLjY2MSAzOTIuMjY1IDYxMy41OSAzOTIuOTM5IDYxMy41MTggMzkzLjMxNCA2MTMuODc0IDM5My42MTQgNjE0LjA4NyAzOTMuNjg5IDYxNC41ODQgMzkzLjY4OSA2MTUuMjk1IDM5My42ODkgNjE3IDM5My41MzkgNjE5LjQxNiAzOTMuNDY0IDYyMC43NjYgMzkzLjM4OSA2MjAuNzY2IDM5My4zODkgNjIwLjgzNyAzOTMuMzg5IDYyMC45MDggMzkzLjM4OSA2MjAuOTA4IDM5My4zODkgNjIwLjkwOCAzOTMuMzg5IDYyMC45MDggMzkzLjM4OSA2MjEuNDA1IDM5My4zODkgNjIxLjY5IDM5My4zODkgNjIxLjY5IDM5My4zODkgNjIxLjY5IDM5My4zODkgNjIxLjc2MSAzOTMuMzg5IDYyMS43NjEgMzkzLjM4OSA2MjEuNzYxIDM5My41MzkgNjI0LjYwMyAzOTAuMDE2IDYyNy4wMThaTTQwOS41MDIgNjI2LjMwOEMzOTguMTEgNjI2LjMwOCAzOTguMTEgNjI2LjMwOCAzOTguMTEgNjI2LjMwOCAzOTguMTEgNjIxLjE5MiAzOTguMTEgNjIxLjE5MiAzOTguMTEgNjIxLjE5MiA0MDkuNTAyIDYyMS4xOTIgNDA5LjUwMiA2MjEuMTkyIDQwOS41MDIgNjIxLjE5Mkw0MDkuNTAyIDYyNi4zMDhaTTQwMy41MDYgNjIwLjYyNEMzOTQuMDYzIDYyMC42MjQgMzk0LjA2MyA2MjAuNjI0IDM5NC4wNjMgNjIwLjYyNCAzOTQuMTM4IDYxOS4yNzQgMzk0LjI4OCA2MTcuMDcxIDM5NC4yODggNjE1LjUwOCA0MDMuNTA2IDYxNS41MDggNDAzLjUwNiA2MTUuNTA4IDQwMy41MDYgNjE1LjUwOEw0MDMuNTA2IDYyMC42MjRaTTQwOS41MDIgNjE0Ljk0QzM5OC4xMSA2MTQuOTQgMzk4LjExIDYxNC45NCAzOTguMTEgNjE0Ljk0IDM5OC4xMSA2MDkuODI0IDM5OC4xMSA2MDkuODI0IDM5OC4xMSA2MDkuODI0IDQwOS41MDIgNjA5LjgyNCA0MDkuNTAyIDYwOS44MjQgNDA5LjUwMiA2MDkuODI0TDQwOS41MDIgNjE0Ljk0WiIgc3Ryb2tlPSIjMDAwMDAwIiBzdHJva2Utd2lkdGg9IjAiIHN0cm9rZS1saW5lam9pbj0icm91bmQiIHN0cm9rZS1taXRlcmxpbWl0PSIxMCIgZmlsbD0iIzM3MzczNyIgZmlsbC1ydWxlPSJldmVub2RkIi8+PHBhdGggZD0iTTM4OC42NjkgNjE2LjcwNkMzODguNTk5IDYxNi42MzUgMzg4LjUyOCA2MTYuNTY0IDM4OC40NTggNjE2LjYzNSAzODguMzg3IDYxNi42MzUgMzg4LjMxNyA2MTYuNjM1IDM4OC4yNDcgNjE2Ljc3NyAzODQuNzk2IDYyMi4wMjUgMzg0Ljc5NiA2MjIuMDI1IDM4NC43OTYgNjIyLjAyNSAzODMuMDM1IDYxOS42ODQgMzgzLjAzNSA2MTkuNjg0IDM4My4wMzUgNjE5LjY4NCAzODIuODk0IDYxOS41NDMgMzgyLjc1NCA2MTkuNTQzIDM4Mi42MTMgNjE5LjYxNCAzODIuNDcyIDYxOS43NTUgMzgyLjQ3MiA2MTkuODk3IDM4Mi41NDIgNjIwLjAzOSAzODQuNTg1IDYyMi43MzQgMzg0LjU4NSA2MjIuNzM0IDM4NC41ODUgNjIyLjczNCAzODQuNjU1IDYyMi44MDUgMzg0LjcyNSA2MjIuODA1IDM4NC43OTYgNjIyLjgwNSAzODQuODY2IDYyMi44MDUgMzg1LjAwNyA2MjIuODA1IDM4NS4wMDcgNjIyLjY2MyAzODguNTI4IDYxNy4zNDQgMzg4LjUyOCA2MTcuMzQ0IDM4OC41MjggNjE3LjM0NCAzODkuNDQ0IDYxOC4xMjQgMzg5LjkzNyA2MTkuMzMgMzg5LjkzNyA2MjAuNTM2IDM4OS45MzcgNjIyLjk0NyAzODcuODk0IDYyNC45MzMgMzg1LjUgNjI0LjkzMyAzODMuMDM1IDYyNC45MzMgMzgxLjA2MyA2MjIuOTQ3IDM4MS4wNjMgNjIwLjUzNiAzODEuMDYzIDYxOC4wNTMgMzgzLjAzNSA2MTYuMDY3IDM4NS41IDYxNi4wNjcgMzg2LjA2MyA2MTYuMDY3IDM4Ni42MjcgNjE2LjEzOCAzODcuMTIgNjE2LjM1MSAzODcuMjYxIDYxNi40MjIgMzg3LjQ3MiA2MTYuMzUxIDM4Ny40NzIgNjE2LjIwOSAzODcuNTQyIDYxNi4wNjcgMzg3LjQ3MiA2MTUuOTI2IDM4Ny4zMzEgNjE1Ljg1NSAzODYuNzY4IDYxNS42NDIgMzg2LjEzNCA2MTUuNSAzODUuNSA2MTUuNSAzODIuNzU0IDYxNS41IDM4MC41IDYxNy43NyAzODAuNSA2MjAuNTM2IDM4MC41IDYyMy4zMDEgMzgyLjc1NCA2MjUuNSAzODUuNSA2MjUuNSAzODguMjQ3IDYyNS41IDM5MC41IDYyMy4zMDEgMzkwLjUgNjIwLjUzNiAzOTAuNSA2MTkuMDQ2IDM4OS43OTYgNjE3LjYyOCAzODguNjY5IDYxNi43MDZaIiBzdHJva2U9IiMwMDAwMDAiIHN0cm9rZS13aWR0aD0iMCIgc3Ryb2tlLWxpbmVqb2luPSJyb3VuZCIgc3Ryb2tlLW1pdGVybGltaXQ9IjEwIiBmaWxsPSIjMzczNzM3IiBmaWxsLXJ1bGU9ImV2ZW5vZGQiLz48L2c+PC9zdmc+;sketch=0;fontColor=#000000;" vertex="1" parent="1">
                    <mxGeometry x="120.36" y="200" width="39.64" height="30" as="geometry"/>
                </mxCell>
                <mxCell id="10" value="" style="shape=image;verticalLabelPosition=bottom;labelBackgroundColor=#ffffff;verticalAlign=top;aspect=fixed;imageAspect=0;image=data:image/svg+xml,PHN2ZyB4bWxucz0iaHR0cDovL3d3dy53My5vcmcvMjAwMC9zdmciIHhtbG5zOnhsaW5rPSJodHRwOi8vd3d3LnczLm9yZy8xOTk5L3hsaW5rIiB3aWR0aD0iNDUiIGhlaWdodD0iNDUiIG92ZXJmbG93PSJoaWRkZW4iIHZpZXdCb3g9IjAgMCA0NSA0NSI+PGRlZnM+PGNsaXBQYXRoIGlkPSJjbGlwMCI+PHJlY3QgeD0iMjY5IiB5PSIzMzIiIHdpZHRoPSI0NSIgaGVpZ2h0PSI0NSIvPjwvY2xpcFBhdGg+PGNsaXBQYXRoIGlkPSJjbGlwMSI+PHJlY3QgeD0iMCIgeT0iLTQuNjU2NjFlLTEwIiB3aWR0aD0iNDA5NTc1IiBoZWlnaHQ9IjQwOTU3NSIvPjwvY2xpcFBhdGg+PGltYWdlIHdpZHRoPSI0MyIgaGVpZ2h0PSI0MyIgeGxpbms6aHJlZj0iZGF0YTppbWFnZS9wbmc7YmFzZTY0LGlWQk9SdzBLR2dvQUFBQU5TVWhFVWdBQUFDc0FBQUFyQ0FNQUFBRFdnNEh5QUFBQUFYTlNSMElBcnM0YzZRQUFBQVJuUVUxQkFBQ3hqd3Y4WVFVQUFBRXNVRXhVUlFBQUFBQUFBUC8vL3dBQUFBQUFBQUFBQUFBQUFBQUFBQUFBQUFBQUFBQUFBQUFBQUFBQUFBQUFBQUFBQUFBQUFBQUFBQUFBQUFBQUFBQUFBQUFBQUFBQUFBQUFBQUFBQUFBQUFBQUFBQUFBQUFBQUFBQUFBQUFBQUFBQUFBQUFBQUFBQUFBQUFBQUFBQUFBQUFBQUFBQUFBQUFBQUFBQUFBQUFBQUFBQUFBQUFBQUFBQUFBQUFBQUFBQUFBQUFBQUFBQUFBQUFBQUFBQUFBQUFBQUFBQUFBQUFBQUFBQUFBQUFBQUFBQUFBQUFBQUFBQUFBQUFBQUFBQUFBQUFBQUFBQUFBQUFBQUFBQUFBQUFBQUFBQUFBQUFBQUFBQUFBQUFBQUFBQUFBQUFBQUFBQUFBQUFBQUFBQUFBQUFBQUFBQUFBQUFBQUFBQUFBQUFBQUFBQUFBQUFBQUFBQUFBQUFBQUFBQUFBQUFBQUFBQUFBQUFBQUFBQUFBQUFBQUFBQUFBQUFBQUFBQUFBQUFBQUFPb2VvNUFBQUFCamRGSk9Vd0FCQVFJREJRY0lDUW9MRFJ3ZUh5QWhJaVVtSnlncEtpd3RMekF5TXpWRFJGRlRWV0ZtYlc1d2NYSjBkNE9GaUlxTWpZNlJrNVdYbVpxYm9LT3JyYkswdGJiQndzWEh5TW5LenMvUTA5M2Y0T0hpNCtUbDV1Zm82ZXJyN083ditmcjgvZlpoOW4wQUFBQUpjRWhaY3dBQURzTUFBQTdEQWNkdnFHUUFBQUdVU1VSQlZFaEwxWlRaVnNJd0VJWWpGdFNxRktxQ3VPL2l2b0lyNHE0b0tsaTdvT0xHKzcrRDAyVFFwazFFN3ZTN1NQK2szK25KbWFSRC9qT2g2WjFkTDlzVHNKanNZUzk5ZEZnMW5rdFluS2tNc0xjOHFsV0llMGlZcnR1NjVvaGt0WHFPaWFLVVhKY1FvYXpzTFdHaVJNck1GY3M4U3ZrQzA4cURSMjdITFhMMG1VVVdZckdjTVlRbUlaT21aUWF3M3Q4d0dYZTFRelFKYVlzSzBNMGlDOTFhdnR4Z3g5Lzd6Umo5bUNoeDNUMjNjWnhSNm5VSWJWbWNtcXFrNGR6NCtxSWJVTzFzR003Q1BzVTVoYm5ob05vQ0Q3L3JYTU00NTRoVXZ4dWFuNEpSajdNWkkyVnNzaEN4VDFpUU1uaWZqMFUxbCtSamdUNERxS2lTbzFySnRDbk94eXNMZnFCR2pCRXJGeFYvRjVjMXJSTlZRb2J0VlJZYTd4ZmtwdzM2OU5WQk9jakN5TmZoUy9iWDE3NkMwVmRmVjE1WGZubHVJRC9QZ2x1dFh5eUs1RDRRMHB1QURXWVdjVWFSM1RNUmt2dmJ6SC9SelAvV3pIOHNSTklmR01yK01pWkt2UTdDdnFOV3p6QXhmdXBucW5tYjlyRHc0cnFTUGhtNXdiNWI1eGdXSmYyWDZHT2pIRjJ3SnVucmZ4NUNQZ0U1TzNXeEkzNFlEUUFBQUFCSlJVNUVya0pnZ2c9PSIgcHJlc2VydmVBc3BlY3RSYXRpbz0ibm9uZSIgaWQ9ImltZzIiLz48Y2xpcFBhdGggaWQ9ImNsaXAzIj48cmVjdCB4PSItMC4yNSIgeT0iMCIgd2lkdGg9IjQwOTU3NSIgaGVpZ2h0PSI0MDk1NzUiLz48L2NsaXBQYXRoPjwvZGVmcz48ZyBjbGlwLXBhdGg9InVybCgjY2xpcDApIiB0cmFuc2Zvcm09InRyYW5zbGF0ZSgtMjY5IC0zMzIpIj48ZyBjbGlwLXBhdGg9InVybCgjY2xpcDEpIiB0cmFuc2Zvcm09Im1hdHJpeCgwLjAwMDEwNDk4NyAwIDAgMC4wMDAxMDQ5ODcgMjcwIDMzMykiPjxnIGNsaXAtcGF0aD0idXJsKCNjbGlwMykiPjx1c2Ugd2lkdGg9IjEwMCUiIGhlaWdodD0iMTAwJSIgeGxpbms6aHJlZj0iI2ltZzIiIHRyYW5zZm9ybT0ibWF0cml4KDk1MjUgMCAwIDk1MjUgLTAuMjUgMCkiLz48L2c+PC9nPjwvZz48L3N2Zz4=;" vertex="1" parent="1">
                    <mxGeometry x="120" y="280" width="40" height="40" as="geometry"/>
                </mxCell>
                <mxCell id="11" value="" style="shape=image;verticalLabelPosition=bottom;labelBackgroundColor=#ffffff;verticalAlign=top;aspect=fixed;imageAspect=0;image=data:image/svg+xml,PHN2ZyB4bWxucz0iaHR0cDovL3d3dy53My5vcmcvMjAwMC9zdmciIHhtbG5zOnhsaW5rPSJodHRwOi8vd3d3LnczLm9yZy8xOTk5L3hsaW5rIiB2aWV3Qm94PSIwIDAgMTAwIDEwMCIgaWQ9IkxheWVyXzEiIG92ZXJmbG93PSJoaWRkZW4iPjxnIGlkPSJHcm91cF8xMTQyMyI+PHBhdGggZD0iTTExIDU4LjE4QzEwLjQ0NzcgNTguMTggMTAgNTcuNzMyMyAxMCA1Ny4xOEwxMCA0NS4wNUMxMC4wMzMgMzcuNDA2NCAxNi4yNTYxIDMxLjIzNjkgMjMuODk5NiAzMS4yNjk5IDIzLjkwNjQgMzEuMjY5OSAyMy45MTMyIDMxLjI3IDIzLjkyIDMxLjI3TDI4LjY5IDMxLjI3QzI5LjI0MjMgMzEuMjcgMjkuNjkgMzEuNzE3NyAyOS42OSAzMi4yNyAyOS42OSAzMi44MjIzIDI5LjI0MjMgMzMuMjcgMjguNjkgMzMuMjdMMjMuOTIgMzMuMjdDMTcuMzc1NSAzMy4yMzEzIDEyLjAzODggMzguNTA1MiAxMi4wMDAxIDQ1LjA0OTYgMTIgNDUuMDUzMSAxMiA0NS4wNTY1IDEyIDQ1LjA2TDEyIDU3LjE4QzEyIDU3LjczMjMgMTEuNTUyMyA1OC4xOCAxMSA1OC4xOFoiIHN0cm9rZT0iIzhCNUJBNSIgZmlsbD0iIzhCNUJBNSIvPjxwYXRoIGQ9Ik0yOC42IDMzLjI3QzIyLjE3MTQgMzMuMjgxIDE2Ljk1MTEgMjguMDc4NiAxNi45NCAyMS42NSAxNi45MjkgMTUuMjIxNCAyMi4xMzE0IDEwLjAwMTEgMjguNTYgOS45OTAwMyAzNC45ODg2IDkuOTc4OTkgNDAuMjA4OSAxNS4xODE0IDQwLjIyIDIxLjYxIDQwLjIyIDIxLjYyIDQwLjIyIDIxLjYzIDQwLjIyIDIxLjY0IDQwLjIxNDUgMjguMDU2OSAzNS4wMTY5IDMzLjI1OSAyOC42IDMzLjI3Wk0yOC42IDEyQzIzLjI3NiAxMS45ODkgMTguOTUxMSAxNi4yOTYgMTguOTQgMjEuNjIgMTguOTI5IDI2Ljk0NCAyMy4yMzYgMzEuMjY4OSAyOC41NiAzMS4yOCAzMy44ODQgMzEuMjkxIDM4LjIwODkgMjYuOTg0IDM4LjIyIDIxLjY2IDM4LjIyIDIxLjY1MzMgMzguMjIgMjEuNjQ2NyAzOC4yMiAyMS42NCAzOC4yMjU1IDE2LjMyMTUgMzMuOTE4NSAxMi4wMDU1IDI4LjYgMTJaIiBzdHJva2U9IiM4QjVCQTUiIGZpbGw9IiM4QjVCQTUiLz48cGF0aCBkPSJNODkgNTguMThDODguNDQ3NyA1OC4xOCA4OCA1Ny43MzIzIDg4IDU3LjE4TDg4IDQ1LjA2Qzg3Ljk2NyAzOC41NDY3IDgyLjY4MzQgMzMuMjgwOSA3Ni4xNyAzMy4yN0w3MS4zMSAzMy4yN0M3MC43NTc3IDMzLjI3IDcwLjMxIDMyLjgyMjMgNzAuMzEgMzIuMjcgNzAuMzEgMzEuNzE3NyA3MC43NTc3IDMxLjI3IDcxLjMxIDMxLjI3TDc2LjA4IDMxLjI3QzgzLjcyMzUgMzEuMjI1NyA4OS45NTU2IDM3LjM4NjEgODkuOTk5OSA0NS4wMjk2IDg5Ljk5OTkgNDUuMDM2NCA5MCA0NS4wNDMyIDkwIDQ1LjA1TDkwIDU3LjE4QzkwIDU3LjczMjMgODkuNTUyMyA1OC4xOCA4OSA1OC4xOFoiIHN0cm9rZT0iIzhCNUJBNSIgZmlsbD0iIzhCNUJBNSIvPjxwYXRoIGQ9Ik03MS40IDMzLjI3QzY0Ljk3MTQgMzMuMjkyMSA1OS43NDIyIDI4LjA5ODYgNTkuNzIwMSAyMS42NzAxIDU5LjY5OCAxNS4yNDE1IDY0Ljg5MTQgMTAuMDEyMiA3MS4zMiA5Ljk5MDE0IDc3Ljc0ODYgOS45NjgwNSA4Mi45Nzc4IDE1LjE2MTUgODIuOTk5OSAyMS41OTAxIDgzIDIxLjYwNjcgODMgMjEuNjIzNCA4MyAyMS42NCA4Mi45OTQ1IDI4LjA0OTEgNzcuODA5MSAzMy4yNDggNzEuNCAzMy4yN1pNNzEuNCAxMkM2Ni4wNzYgMTEuOTc3OSA2MS43NDIyIDE2LjI3NTkgNjEuNzIwMSAyMS41OTk5IDYxLjY5OCAyNi45MjM5IDY1Ljk5NiAzMS4yNTc3IDcxLjMyIDMxLjI3OTggNzYuNjQ0IDMxLjMwMTkgODAuOTc3OCAyNy4wMDM5IDgwLjk5OTkgMjEuNjc5OSA4MSAyMS42NjY2IDgxIDIxLjY1MzMgODEgMjEuNjQgODEuMDA1NSAxNi4zMjkzIDc2LjcxMDcgMTIuMDE2NSA3MS40IDEyWiIgc3Ryb2tlPSIjOEI1QkE1IiBmaWxsPSIjOEI1QkE1Ii8+PHBhdGggZD0iTTI4Ljc4IDkwQzI4LjIyNzcgOTAgMjcuNzggODkuNTUyMyAyNy43OCA4OUwyNy43OCA3Mi43M0MyNy44NTEzIDYzLjUzNDYgMzUuMzE0MyA1Ni4xMTE3IDQ0LjUxIDU2LjA5TDUwLjUxIDU2LjA5QzUxLjA2MjMgNTYuMDkgNTEuNTEgNTYuNTM3NyA1MS41MSA1Ny4wOSA1MS41MSA1Ny42NDIzIDUxLjA2MjMgNTguMDkgNTAuNTEgNTguMDlMNDQuNjIgNTguMDlDMzYuNDc5OSA1OC4wNDU3IDI5Ljg0MDUgNjQuNiAyOS43OCA3Mi43NEwyOS43OCA4OUMyOS43OCA4OS41NTIzIDI5LjMzMjMgOTAgMjguNzggOTBaIiBzdHJva2U9IiM4QjVCQTUiIGZpbGw9IiM4QjVCQTUiLz48cGF0aCBkPSJNNzIuNjYgOTBDNzIuMTA3NyA5MCA3MS42NiA4OS41NTIzIDcxLjY2IDg5TDcxLjY2IDcyLjc0QzcxLjU5OTcgNjQuNjQ2OCA2NS4wMzM0IDU4LjExMTcgNTYuOTQgNTguMDlMNTEgNTguMDlDNTAuNDQ3NyA1OC4wOSA1MCA1Ny42NDIzIDUwIDU3LjA5IDUwIDU2LjUzNzcgNTAuNDQ3NyA1Ni4wOSA1MSA1Ni4wOUw1Ni45NSA1Ni4wOUM2Ni4xNDAxIDU2LjExNzIgNzMuNTk0MiA2My41NDAxIDczLjY2IDcyLjczTDczLjY2IDg5QzczLjY2IDg5LjU1MjMgNzMuMjEyMyA5MCA3Mi42NiA5MFoiIHN0cm9rZT0iIzhCNUJBNSIgZmlsbD0iIzhCNUJBNSIvPjxwYXRoIGQ9Ik00OS45MiA1OC4wOUM0MS41MzYzIDU4LjEwMSAzNC43MzExIDUxLjMxMzcgMzQuNzIgNDIuOTMgMzQuNzA5IDM0LjU0NjMgNDEuNDk2MyAyNy43NDExIDQ5Ljg4IDI3LjczIDU4LjI2MzcgMjcuNzE5IDY1LjA2ODkgMzQuNTA2MyA2NS4wOCA0Mi44OSA2NS4wOCA0Mi44OTY3IDY1LjA4IDQyLjkwMzMgNjUuMDggNDIuOTEgNjUuMDggNTEuMjg1OSA1OC4yOTU5IDU4LjA3OSA0OS45MiA1OC4wOVpNNDkuOTIgMjkuNzNDNDIuNjQwOSAyOS43MTkgMzYuNzMxMSAzNS42MTA5IDM2LjcyIDQyLjg5IDM2LjcwOSA1MC4xNjkxIDQyLjYwMDkgNTYuMDc4OSA0OS44OCA1Ni4wOSA1Ny4xNTkxIDU2LjEwMSA2My4wNjg5IDUwLjIwOTEgNjMuMDggNDIuOTMgNjMuMDggNDIuOTIzMyA2My4wOCA0Mi45MTY3IDYzLjA4IDQyLjkxIDYzLjA4IDM1LjYzODcgNTcuMTkxMyAyOS43NDEgNDkuOTIgMjkuNzNaIiBzdHJva2U9IiM4QjVCQTUiIGZpbGw9IiM4QjVCQTUiLz48L2c+PC9zdmc+;" vertex="1" parent="1">
                    <mxGeometry x="237.86" y="280" width="40" height="40" as="geometry"/>
                </mxCell>
                <mxCell id="12" value="" style="shape=image;verticalLabelPosition=bottom;labelBackgroundColor=#ffffff;verticalAlign=top;aspect=fixed;imageAspect=0;image=data:image/svg+xml,PHN2ZyB4bWxucz0iaHR0cDovL3d3dy53My5vcmcvMjAwMC9zdmciIHhtbG5zOnhsaW5rPSJodHRwOi8vd3d3LnczLm9yZy8xOTk5L3hsaW5rIiB3aWR0aD0iMzkiIGhlaWdodD0iMzkiIG92ZXJmbG93PSJoaWRkZW4iIHZpZXdCb3g9IjAgMCAzOSAzOSI+PGRlZnM+PGNsaXBQYXRoIGlkPSJjbGlwMCI+PHJlY3QgeD0iMzM3IiB5PSIzMzQiIHdpZHRoPSIzOSIgaGVpZ2h0PSIzOSIvPjwvY2xpcFBhdGg+PGNsaXBQYXRoIGlkPSJjbGlwMSI+PHJlY3QgeD0iMCIgeT0iNC42NTY2MWUtMTAiIHdpZHRoPSIzNzE0NzUiIGhlaWdodD0iMzcxNDc1Ii8+PC9jbGlwUGF0aD48aW1hZ2Ugd2lkdGg9IjM4IiBoZWlnaHQ9IjM4IiB4bGluazpocmVmPSJkYXRhOmltYWdlL3BuZztiYXNlNjQsaVZCT1J3MEtHZ29BQUFBTlNVaEVVZ0FBQUNZQUFBQW1DQVlBQUFDb1BlbXVBQUFBQVhOU1IwSUFyczRjNlFBQUFBUm5RVTFCQUFDeGp3djhZUVVBQUFBSmNFaFpjd0FBRHNNQUFBN0RBY2R2cUdRQUFBWlJTVVJCVkZoSDVaaDdiRk5WSE1mWDI5ZnRYZmZvNkZnM2NCUENJd0tDT2lMclBlZmU2MGFCeVZ0bG1LZ2tnZ2xxTk1iNFFCT01JOG9mYUp5dzNYUE9iYnNOQWlpR0paTDRoNGthWDBGakFoTDhRNGdSRVhBQkdXS0FUY0R4V3YyZDlteHNhOHZXZFNZbWZwSW0zYmVuNS81Nnp1KzVuUDhsc1p3Y20zajc3Mk5zTTJRUDFaYzRvdnBPaGVCYUlTY2hFN3pLRmRYYVBCUXZyNHdzVm9ROCtoUlpOZU5jQkwxb1orZ25LYXJGSklaNkpCYnNrbWxRRlV2NlVFeThXR0xxZFhoMVMxSE0xeDZWTGJ5K29FbWJJSmFNRHVPaXRlTWRKbXFYd2lnR2huMHRFMzJsanhrejdCUWRrY0w0akpjWW1GOGJmeWxONkg0cHJGNjBVM1ZmU2RPOENYQzZEem9ZK2xTeVVJK2RxTDhGV211THhiYlo0N2RDayswTXh4U3F2OTdmYjd4VXZ3TWUrSXNOREpaTWRaOWtCZy93MDdSYjZBY2YxVzRUeStLKzVtRjRFNnk1T3NZTWxRazVlL3c3RjVSS1JMM2lvdWdsSWZWUlRJeUF6SEM5aytHdkhCUjlJVnY2dW5LR2ZlTGpQdHhNMjJnbnFMUDgvVVZKbjQyWWFjMHJpdUFxTDdrcGZrTklTZlJlcGZnekNROHpHdUFxejA5dFdab25wT3p4Z1EvWndZa1ZvajB1cEl4UnFQWUVEd1F2MFhRaFpVWlZ3d3JQekIyUDVWWkcxanJYd3F1QTZYZmJMWHdJblBsa29CV1AySEc5RWNNUFVYcENzdkRSWEtwWHo5cTJyTEJzKy9JeFpWdm4zMVpNRmdiRXN0VDR0b1RLSFFUL0tCRjBCdnpsbU4xVWY0VlE1ODc4aDdzcFdDT1dEYUFVY3BTSDZjKzVMZU4ySWFWRk50VWc3SFVzSGlBVW5ZZjkvNUtvZWczZW44Nno5TWxpV1RJeXhldDVTb0R3M3VvaWVMdUxhYnRjRWUxVlh5UlVMcFlrNFE4dktPVVBzREgxc0V5Q0ZVSk9TK2s3aGw4Skc2czlsdjYybStwdnVrMjB3VWJWNjI2Q040a2xBNm5hdmNJRDEzVU1uUHp6V3pseEtyeU4ySUFmMUdtejFFUERNYTQvL0ZrT291NkJaM2RVYkRZS2hYd1REOUdXU2MxYWpDZEVJV1VFZDJvcGdpK014RGp1Yy9EZG1Kc2FxNFdVZ0Z2dHBPaGp1T3ZPYWMzemk0U2NNVjRTSEpGeGdjYmFZdkRsODVEbjlpYmRsa0xSSzdZb3Z1RmcrTU9Ka1ZDQmtEUEcyMWhsWkdLY0Fna2FEbVN2RkVIZGJvTFdDSGtnYnFvOXhZL1VRZEFuNHh1cVBFTE9tTGpQRGNPNGtoM3pjc0czdmdYLy9OdGpxZzhKT1RYY2FsdUxGbk1UUGJYMXcyUTR4aW53RE83WE1rRXJoWlNlV0N4bWc3cys0aVQ0bzB5amN6QjVqWm9LcDNFV2N0VmhYbE9GM0FlMFVSL1lUWFNpcmEzTkxxVDBKTUlYSHdURFBzdldzUHlHcWttU3BiYURZUjJGTGRWSnB3WkpmQmY0RnhoV043UmhIdE9ZYlF0RHdxTm9nNUJHUkx3bENxUGpOZ3VkZGpiaVNpRVBRR0ZvalFSdUkxUHRZU0dsQmlMa0xtajhUa0RaYU9jZHE1QXp4a3ZueEkyQ3V0aVJ6aWlPY1A1dm9MaDN5MDFxYXVPZ0hFSDJ4cWRody9ZQ1ZwMTJzNkhvZDFLM05LcVgzT2FhRWtoUlg4S3pyMEpaZWxySUNYb1RMQ1M1Szc0dHhnd2haOHh3VDJvd3ZCU0JyM1U0VGZVQUR6NGhKNEFtY0RYUFlibVdjWitRTXFMWHFPR2VWSC95TGUxZU9MRWVLSXZQQ3VrbVBOdExZTFdEcW5zeWpjYVJubFF2RGxOdGhXZDNqdDFTVXlLa2dVQ0syQVROM0RVRlRrOWh4aW9sWEwwMk4yS0VLbUNXRkV1U0NEVGlZbWg3VHNKSm5WR0dZUlN2S05EeVBDQXp2VjVtMm1zeTFkZkI1SFVKdXBxb1dKS00zOFJUNEs2NzRyT2dCWk1QTklrOE04TVh2K2ZqbWxnMkFPalZDcHdFTlRuZVZXY0xLUzM1eEpnRWUrMlA3MG54WlJod0xrT091d0hQUERka3dCV0c1OTVaRkExVitVajFkSDkwN2hUWlJJK0FrUjJ3NGMvNVdYUWUvS1Nnb3V5REt6OEhvMXpkaE9ZbEpTVnMzdGhBeThLSy9xTmVSdVF5cllhM3cyNUxlMUpJR1FPblZadW9pOXFqUXNxZXVyWTZGL3phMzZIZGJobHBtWEtaNkhrWTMyN3c0VU5JMlRNZUppZUltbE5PaXNOQzZxTyt2bDZDWVdTcGl5SHFvTGhWWWZxYXFXK3BTYk9qQjFvcStIRTlZMXNYVFJSUzlsVEFxQVdiWG9BSTJpeWtPSHhDY2xHOG05YzdjT0kvWWMycFJMQ29Cd29HVFUzeHVUS3N4UXF0NmxsQ3loNXVHSFFDcDhCeEwvTlR5YU9hT2hQcUhHanZKWW93Zm9HdjRRT05pNmpMSUZpNm9ONGVITk1TS2lzd3RYdWNERnNRNFYwUWZkMGwwUVhUeGJhamc4SndwWXZoTUVUbkJjalNmQzQ4RHExNGpQOXJTaXpwQTA1blBoalhEYWQ0RnZJaVR6c1hIVXh2eVNONER0Uy9yRnFwdEJSdk13SWVwajFqRCtQOWtMODJwZ3NHM3BVNm85cDNrRVJmOXRGUmRQaWhpT1VNS3JZcHlMYlIvQStTay9NUGlIZGRlWUhRVURrQUFBQUFTVVZPUks1Q1lJST0iIHByZXNlcnZlQXNwZWN0UmF0aW89Im5vbmUiIGlkPSJpbWcyIi8+PGNsaXBQYXRoIGlkPSJjbGlwMyI+PHJlY3QgeD0iMCIgeT0iLTAuMjUiIHdpZHRoPSIzNzE0NzUiIGhlaWdodD0iMzcxNDc1Ii8+PC9jbGlwUGF0aD48L2RlZnM+PGcgY2xpcC1wYXRoPSJ1cmwoI2NsaXAwKSIgdHJhbnNmb3JtPSJ0cmFuc2xhdGUoLTMzNyAtMzM0KSI+PGcgY2xpcC1wYXRoPSJ1cmwoI2NsaXAxKSIgdHJhbnNmb3JtPSJtYXRyaXgoMC4wMDAxMDQ5ODcgMCAwIDAuMDAwMTA0OTg3IDMzNyAzMzQpIj48ZyBjbGlwLXBhdGg9InVybCgjY2xpcDMpIj48dXNlIHdpZHRoPSIxMDAlIiBoZWlnaHQ9IjEwMCUiIHhsaW5rOmhyZWY9IiNpbWcyIiB0cmFuc2Zvcm09Im1hdHJpeCg5Nzc1LjY2IDAgMCA5Nzc1LjY2IDAgLTAuMjUpIi8+PC9nPjwvZz48L2c+PC9zdmc+;" vertex="1" parent="1">
                    <mxGeometry x="163.18" y="285" width="30" height="30" as="geometry"/>
                </mxCell>
                <mxCell id="13" value="" style="shape=image;verticalLabelPosition=bottom;labelBackgroundColor=#ffffff;verticalAlign=top;aspect=fixed;imageAspect=0;image=data:image/svg+xml,PHN2ZyB4bWxucz0iaHR0cDovL3d3dy53My5vcmcvMjAwMC9zdmciIHhtbG5zOnhsaW5rPSJodHRwOi8vd3d3LnczLm9yZy8xOTk5L3hsaW5rIiB2aWV3Qm94PSIwIDAgMTAwIDEwMCIgaWQ9Ikljb25zIiBvdmVyZmxvdz0iaGlkZGVuIj48ZGVmcy8+PHBhdGggZD0iTTU3LjUyIDI4LjE3QzQ3LjEwNCAyNC4wMjI0IDM1LjI5NzkgMjkuMTA0IDMxLjE1MDQgMzkuNTIgMjcuMDAyOCA0OS45MzU5IDMyLjA4NDMgNjEuNzQyIDQyLjUwMDMgNjUuODg5NiA1Mi45MTYzIDcwLjAzNzIgNjQuNzIyNCA2NC45NTU2IDY4Ljg3IDU0LjUzOTcgNzIuMTE5OSA0Ni4zNzc4IDY5Ljc1MSAzNy4wNTE1IDYzIDMxLjQzTDYzIDMxLjQzIDQ3IDU1LjY3IDM4LjMyIDQ0LjIzIiBzdHJva2U9IiM4QjVCQTUiIHN0cm9rZS13aWR0aD0iMiIgc3Ryb2tlLWxpbmVqb2luPSJyb3VuZCIgZmlsbD0ibm9uZSIvPjxwYXRoIGQ9Ik02OS4zMyAxOC42OSA2NS4yNiAxOC44NyA2NS4yNiAxOC44NyA1NS41NCAxMS40MUM1Mi41NTg1IDguOTUyNDQgNDguMjcxNyA4Ljg5MDEzIDQ1LjIyIDExLjI2TDM0Ljc0IDE4Ljg3IDMwLjY3IDE4LjY5QzIzIDE4LjMxIDE3IDE2LjE0IDE3IDI2LjY2IDE3IDM3LjE4IDE4LjQyIDU0LjI0IDE4LjQyIDU0LjI0IDE4LjQyIDU0LjI0IDE3LjU3IDY3LjA0IDMyLjQyIDc3Ljg0IDQ1LjEzIDg3LjE0IDUwIDkwLjUgNTAgOTAuNUw1MCA5MC41QzUwIDkwLjUgNTQuOTIgODcuMTQgNjcuNjcgNzcuODQgODIuNDggNjcuMDQgODEuNjcgNTQuMjQgODEuNjcgNTQuMjQgODEuNjcgNTQuMjQgODMgMzcuMTggODMgMjYuNjYgODMgMTYuMTQgNzcgMTguMzEgNjkuMzMgMTguNjYiIHN0cm9rZT0iIzhCNUJBNSIgc3Ryb2tlLXdpZHRoPSIyIiBzdHJva2UtbGluZWpvaW49InJvdW5kIiBmaWxsPSJub25lIi8+PC9zdmc+;" vertex="1" parent="1">
                    <mxGeometry x="200.36" y="280" width="40" height="40" as="geometry"/>
                </mxCell>
                <mxCell id="14" value="" style="shape=image;verticalLabelPosition=bottom;labelBackgroundColor=#ffffff;verticalAlign=top;aspect=fixed;imageAspect=0;image=data:image/svg+xml,PHN2ZyB4bWxucz0iaHR0cDovL3d3dy53My5vcmcvMjAwMC9zdmciIHhtbG5zOnhsaW5rPSJodHRwOi8vd3d3LnczLm9yZy8xOTk5L3hsaW5rIiB3aWR0aD0iMzgiIGhlaWdodD0iMzIiIG92ZXJmbG93PSJoaWRkZW4iIHZpZXdCb3g9IjAgMCAzOCAzMiI+PGRlZnM+PGNsaXBQYXRoIGlkPSJjbGlwMCI+PHJlY3QgeD0iMjc1IiB5PSIyNjIiIHdpZHRoPSIzOCIgaGVpZ2h0PSIzMiIvPjwvY2xpcFBhdGg+PC9kZWZzPjxnIGNsaXAtcGF0aD0idXJsKCNjbGlwMCkiIHRyYW5zZm9ybT0idHJhbnNsYXRlKC0yNzUgLTI2MikiPjxwYXRoIGQ9Ik0yOTMuOTggMjcwLjVDMjkzLjkxNSAyNzAuNSAyOTMuODE3IDI3MC40NjcgMjkzLjc1MiAyNzAuNDMzIDI4Ni42MyAyNjMuMDY5IDI4Ni42MyAyNjMuMDY5IDI4Ni42MyAyNjMuMDY5IDI4Ni41IDI2Mi45MzUgMjg2LjUgMjYyLjczNCAyODYuNjMgMjYyLjYzNCAyODYuNzI4IDI2Mi41IDI4Ni45MjMgMjYyLjUgMjg3LjA1MyAyNjIuNjM0IDI5My45OCAyNjkuNzY0IDI5My45OCAyNjkuNzY0IDI5My45OCAyNjkuNzY0IDI5Ny45NDcgMjY1LjU4IDI5Ny45NDcgMjY1LjU4IDI5Ny45NDcgMjY1LjU4IDI5OC4wNzcgMjY1LjQ0NiAyOTguMjcyIDI2NS40NDYgMjk4LjM3IDI2NS41OCAyOTguNSAyNjUuNjggMjk4LjUgMjY1Ljg4MSAyOTguMzcgMjY2LjAxNSAyOTQuMjA3IDI3MC40IDI5NC4yMDcgMjcwLjQgMjk0LjIwNyAyNzAuNCAyOTQuMTQyIDI3MC40NjcgMjk0LjA0NSAyNzAuNSAyOTMuOTggMjcwLjUgMjkzLjk4IDI3MC41IDI5My45OCAyNzAuNSAyOTMuOTggMjcwLjVaIiBzdHJva2U9IiMwMDAwMDAiIHN0cm9rZS13aWR0aD0iMCIgc3Ryb2tlLWxpbmVqb2luPSJyb3VuZCIgc3Ryb2tlLW1pdGVybGltaXQ9IjEwIiBmaWxsPSIjMzczNzM3IiBmaWxsLXJ1bGU9ImV2ZW5vZGQiLz48cGF0aCBkPSJNMzAwLjIxOSAyNjguNUMzMDAuMDYzIDI2OC41IDI5OS45MzggMjY4LjM3NSAyOTkuOTM4IDI2OC4yMTkgMjk5LjkzOCAyNjUuMDYzIDI5OS45MzggMjY1LjA2MyAyOTkuOTM4IDI2NS4wNjMgMjk2Ljc4MSAyNjUuMDYzIDI5Ni43ODEgMjY1LjA2MyAyOTYuNzgxIDI2NS4wNjMgMjk2LjYyNSAyNjUuMDYzIDI5Ni41IDI2NC45MzggMjk2LjUgMjY0Ljc4MSAyOTYuNSAyNjQuNjI1IDI5Ni42MjUgMjY0LjUgMjk2Ljc4MSAyNjQuNSAzMDAuMjE5IDI2NC41IDMwMC4yMTkgMjY0LjUgMzAwLjIxOSAyNjQuNSAzMDAuMzc1IDI2NC41IDMwMC41IDI2NC42MjUgMzAwLjUgMjY0Ljc4MSAzMDAuNSAyNjguMjE5IDMwMC41IDI2OC4yMTkgMzAwLjUgMjY4LjIxOSAzMDAuNSAyNjguMzc1IDMwMC4zNzUgMjY4LjUgMzAwLjIxOSAyNjguNVoiIHN0cm9rZT0iIzAwMDAwMCIgc3Ryb2tlLXdpZHRoPSIwIiBzdHJva2UtbGluZWpvaW49InJvdW5kIiBzdHJva2UtbWl0ZXJsaW1pdD0iMTAiIGZpbGw9IiMzNzM3MzciIGZpbGwtcnVsZT0iZXZlbm9kZCIvPjxwYXRoIGQ9Ik0yOTQgMjg0LjVDMjkwLjQxMiAyODQuNSAyODcuNSAyODEuODIgMjg3LjUgMjc4LjUxNiAyODcuNSAyNzUuMjEyIDI5MC40MTIgMjcyLjUgMjk0IDI3Mi41IDI5Ny41ODkgMjcyLjUgMzAwLjUgMjc1LjIxMiAzMDAuNSAyNzguNTE2IDMwMC41IDI4MS44MiAyOTcuNTg5IDI4NC41IDI5NCAyODQuNVpNMjk0IDI3My4wOTJDMjkwLjc1IDI3My4wOTIgMjg4LjEwOSAyNzUuNTIzIDI4OC4xMDkgMjc4LjUxNiAyODguMTA5IDI4MS41MDggMjkwLjc1IDI4My45MzkgMjk0IDI4My45MzkgMjk3LjI1IDI4My45MzkgMjk5Ljg5MSAyODEuNTA4IDI5OS44OTEgMjc4LjUxNiAyOTkuODkxIDI3NS41MjMgMjk3LjI1IDI3My4wOTIgMjk0IDI3My4wOTJaIiBzdHJva2U9IiMwMDAwMDAiIHN0cm9rZS13aWR0aD0iMCIgc3Ryb2tlLWxpbmVqb2luPSJyb3VuZCIgc3Ryb2tlLW1pdGVybGltaXQ9IjEwIiBmaWxsPSIjMzczNzM3IiBmaWxsLXJ1bGU9ImV2ZW5vZGQiLz48cGF0aCBkPSJNMzA4LjE0NyAyNzUuNUMzMDguMTExIDI3NS41IDMwOC4wNzYgMjc1LjUgMzA4LjA0IDI3NS41IDMwMS43NDggMjc0LjA1NyAzMDEuNzQ4IDI3NC4wNTcgMzAxLjc0OCAyNzQuMDU3IDMwMS42NzcgMjc0LjAyNyAzMDEuNjA2IDI3My45OTcgMzAxLjU3MSAyNzMuOTM3IDMwMS41MzUgMjczLjg0NyAzMDEuNSAyNzMuNzg3IDMwMS41MzUgMjczLjcyNyAzMDQuNTA1IDI2NC43MSAzMDQuNTA1IDI2NC43MSAzMDQuNTA1IDI2NC43MSAzMDQuNTQgMjY0LjU2IDMwNC43NTMgMjY0LjUgMzA0Ljg5NCAyNjQuNTMgMzA1LjA3MSAyNjQuNTYgMzA1LjE3NyAyNjQuNzEgMzA1LjE0MSAyNjQuODYxIDMwMi4yNDIgMjczLjYwNyAzMDIuMjQyIDI3My42MDcgMzAyLjI0MiAyNzMuNjA3IDMwOC4yMTcgMjc0Ljk1OSAzMDguMjE3IDI3NC45NTkgMzA4LjIxNyAyNzQuOTU5IDMwOC4zOTQgMjc1LjAxOSAzMDguNSAyNzUuMTY5IDMwOC40NjUgMjc1LjI5IDMwOC40MjkgMjc1LjQ0IDMwOC4yODggMjc1LjUgMzA4LjE0NyAyNzUuNVoiIHN0cm9rZT0iIzAwMDAwMCIgc3Ryb2tlLXdpZHRoPSIwIiBzdHJva2UtbGluZWpvaW49InJvdW5kIiBzdHJva2UtbWl0ZXJsaW1pdD0iMTAiIGZpbGw9IiMzNzM3MzciIGZpbGwtcnVsZT0iZXZlbm9kZCIvPjxwYXRoIGQ9Ik0zMDYuODQ1IDI3OC41QzMwNi43NDEgMjc4LjUgMzA2LjYzOCAyNzguNDcgMzA2LjU2OSAyNzguMzgyIDMwNi41IDI3OC4yMzQgMzA2LjUzNSAyNzguMDg2IDMwNi43MDcgMjc3Ljk5NyAzMDkuNzQxIDI3Ni41NDcgMzA5Ljc0MSAyNzYuNTQ3IDMwOS43NDEgMjc2LjU0NyAzMDguMDE3IDI3My45NDQgMzA4LjAxNyAyNzMuOTQ0IDMwOC4wMTcgMjczLjk0NCAzMDcuOTQ4IDI3My43OTYgMzA4LjAxNyAyNzMuNjQ4IDMwOC4xNTUgMjczLjU1OSAzMDguMjkzIDI3My41IDMwOC41IDI3My41MyAzMDguNTY5IDI3My42NzggMzEwLjQzMSAyNzYuNTE4IDMxMC40MzEgMjc2LjUxOCAzMTAuNDMxIDI3Ni41MTggMzEwLjQ2NiAyNzYuNTc3IDMxMC41IDI3Ni42MzYgMzEwLjQ2NiAyNzYuNzI1IDMxMC40MzEgMjc2Ljc4NCAzMTAuMzk3IDI3Ni44NDMgMzEwLjMyOCAyNzYuODczIDMwNy4wMTcgMjc4LjQ3IDMwNy4wMTcgMjc4LjQ3IDMwNy4wMTcgMjc4LjQ3IDMwNi45NDggMjc4LjUgMzA2LjkxNCAyNzguNSAzMDYuODQ1IDI3OC41WiIgc3Ryb2tlPSIjMDAwMDAwIiBzdHJva2Utd2lkdGg9IjAiIHN0cm9rZS1saW5lam9pbj0icm91bmQiIHN0cm9rZS1taXRlcmxpbWl0PSIxMCIgZmlsbD0iIzM3MzczNyIgZmlsbC1ydWxlPSJldmVub2RkIi8+PHBhdGggZD0iTTMwMy40MTMgMjg4LjVDMzAzLjI3NiAyODguNSAzMDMuMTQgMjg4LjQwMSAzMDMuMTA2IDI4OC4yNjggMzAxLjUzNCAyODIuMzc5IDMwMS41MzQgMjgyLjM3OSAzMDEuNTM0IDI4Mi4zNzkgMzAxLjUgMjgyLjI3OSAzMDEuNSAyODIuMjEzIDMwMS41NjggMjgyLjE0NyAzMDEuNjAzIDI4Mi4wNDggMzAxLjY3MSAyODIuMDE1IDMwMS43MzkgMjgxLjk4MiAzMTIuMDU2IDI3OS41MzMgMzEyLjA1NiAyNzkuNTMzIDMxMi4wNTYgMjc5LjUzMyAzMTIuMjI3IDI3OS41IDMxMi4zOTggMjc5LjU5OSAzMTIuNDMyIDI3OS43MzIgMzEyLjUgMjc5Ljg5NyAzMTIuMzk4IDI4MC4wNjMgMzEyLjIyNyAyODAuMTI5IDMwMi4yMTcgMjgyLjUxMSAzMDIuMjE3IDI4Mi41MTEgMzAyLjIxNyAyODIuNTExIDMwMy43MjEgMjg4LjEwMyAzMDMuNzIxIDI4OC4xMDMgMzAzLjcyMSAyODguMTAzIDMwMy43NTUgMjg4LjI2OCAzMDMuNjUyIDI4OC40MzQgMzAzLjQ4MSAyODguNSAzMDMuNDQ3IDI4OC41IDMwMy40NDcgMjg4LjUgMzAzLjQxMyAyODguNVoiIHN0cm9rZT0iIzAwMDAwMCIgc3Ryb2tlLXdpZHRoPSIwIiBzdHJva2UtbGluZWpvaW49InJvdW5kIiBzdHJva2UtbWl0ZXJsaW1pdD0iMTAiIGZpbGw9IiMzNzM3MzciIGZpbGwtcnVsZT0iZXZlbm9kZCIvPjxwYXRoIGQ9Ik0zMDMuNTUyIDI5MC41QzMwMy40OTQgMjkwLjUgMzAzLjQzNiAyOTAuNSAzMDMuNDA3IDI5MC40NjUgMzAwLjY3NCAyODguNDY1IDMwMC42NzQgMjg4LjQ2NSAzMDAuNjc0IDI4OC40NjUgMzAwLjU1OCAyODguMzYgMzAwLjUgMjg4LjE4NCAzMDAuNTg3IDI4OC4wMDkgMzAwLjY0NSAyODcuODY4IDMwMC44MiAyODcuODMzIDMwMC45MzYgMjg3LjkwNCAzMDMuNDY1IDI4OS43MjggMzAzLjQ2NSAyODkuNzI4IDMwMy40NjUgMjg5LjcyOCAzMDQuOTc3IDI4Ni43MTEgMzA0Ljk3NyAyODYuNzExIDMwNC45NzcgMjg2LjcxMSAzMDUuMDM1IDI4Ni41NyAzMDUuMjA5IDI4Ni41IDMwNS4zMjYgMjg2LjYwNSAzMDUuNDcxIDI4Ni42NzYgMzA1LjUgMjg2Ljg4NiAzMDUuNDEzIDI4Ny4wMjYgMzAzLjc4NSAyOTAuMzYgMzAzLjc4NSAyOTAuMzYgMzAzLjc4NSAyOTAuMzYgMzAzLjcyNyAyOTAuNDMgMzAzLjY2OSAyOTAuNDY1IDMwMy42MTEgMjkwLjUgMzAzLjU4MSAyOTAuNSAzMDMuNTgxIDI5MC41IDMwMy41NTIgMjkwLjVaIiBzdHJva2U9IiMwMDAwMDAiIHN0cm9rZS13aWR0aD0iMCIgc3Ryb2tlLWxpbmVqb2luPSJyb3VuZCIgc3Ryb2tlLW1pdGVybGltaXQ9IjEwIiBmaWxsPSIjMzczNzM3IiBmaWxsLXJ1bGU9ImV2ZW5vZGQiLz48cGF0aCBkPSJNMjg0LjU4IDI5MS41QzI4NC41NDUgMjkxLjUgMjg0LjUxIDI5MS41IDI4NC41MSAyOTEuNSAyODQuMzM0IDI5MS40NyAyODQuMjI5IDI5MS4zMTggMjg0LjI2NCAyOTEuMTY3IDI4Ni43OTcgMjgyLjI4OCAyODYuNzk3IDI4Mi4yODggMjg2Ljc5NyAyODIuMjg4IDI4MC43ODEgMjgxLjA3NiAyODAuNzgxIDI4MS4wNzYgMjgwLjc4MSAyODEuMDc2IDI4MC42MDYgMjgxLjA0NiAyODAuNSAyODAuODk0IDI4MC41MzUgMjgwLjc0MiAyODAuNTcgMjgwLjU5MSAyODAuNzQ2IDI4MC41IDI4MC45MjIgMjgwLjUzIDI4Ny4yNTQgMjgxLjgwMyAyODcuMjU0IDI4MS44MDMgMjg3LjI1NCAyODEuODAzIDI4Ny4zMjQgMjgxLjgwMyAyODcuMzk1IDI4MS44NjQgMjg3LjQzIDI4MS45MjQgMjg3LjUgMjgxLjk4NSAyODcuNSAyODIuMDc2IDI4Ny41IDI4Mi4xMzYgMjg0Ljg5NyAyOTEuMjg4IDI4NC44OTcgMjkxLjI4OCAyODQuODk3IDI5MS4yODggMjg0Ljg2MiAyOTEuNDA5IDI4NC43MjEgMjkxLjUgMjg0LjU4IDI5MS41WiIgc3Ryb2tlPSIjMDAwMDAwIiBzdHJva2Utd2lkdGg9IjAiIHN0cm9rZS1saW5lam9pbj0icm91bmQiIHN0cm9rZS1taXRlcmxpbWl0PSIxMCIgZmlsbD0iIzM3MzczNyIgZmlsbC1ydWxlPSJldmVub2RkIi8+PHBhdGggZD0iTTI3OS44NTEgMjgzLjVDMjc5Ljc0NiAyODMuNSAyNzkuNjQgMjgzLjQ3MSAyNzkuNTcgMjgzLjM4MiAyNzcuNTcgMjgwLjYxOCAyNzcuNTcgMjgwLjYxOCAyNzcuNTcgMjgwLjYxOCAyNzcuNTM1IDI4MC41NTkgMjc3LjUgMjgwLjQ3MSAyNzcuNTM1IDI4MC40MTIgMjc3LjU3IDI4MC4zNTMgMjc3LjYwNSAyODAuMjk0IDI3Ny42NzYgMjgwLjIzNSAyODAuOTc0IDI3OC41NTkgMjgwLjk3NCAyNzguNTU5IDI4MC45NzQgMjc4LjU1OSAyODEuMTE0IDI3OC41IDI4MS4zMjUgMjc4LjUyOSAyODEuNDMgMjc4LjY0NyAyODEuNSAyNzguNzk0IDI4MS40NjUgMjc4Ljk0MSAyODEuMzI1IDI3OS4wMjkgMjc4LjI3MiAyODAuNTU5IDI3OC4yNzIgMjgwLjU1OSAyNzguMjcyIDI4MC41NTkgMjgwLjEzMiAyODMuMDg4IDI4MC4xMzIgMjgzLjA4OCAyODAuMTMyIDI4My4wODggMjgwLjIwMiAyODMuMjM1IDI4MC4xNjcgMjgzLjM4MiAyODAuMDI2IDI4My40NzEgMjc5Ljk1NiAyODMuNSAyNzkuOTIxIDI4My41IDI3OS44NTEgMjgzLjVaIiBzdHJva2U9IiMwMDAwMDAiIHN0cm9rZS13aWR0aD0iMCIgc3Ryb2tlLWxpbmVqb2luPSJyb3VuZCIgc3Ryb2tlLW1pdGVybGltaXQ9IjEwIiBmaWxsPSIjMzczNzM3IiBmaWxsLXJ1bGU9ImV2ZW5vZGQiLz48cGF0aCBkPSJNMzAxLjE3NSAyOTMuNUMzMDEuMDc3IDI5My41IDMwMS4wMTIgMjkzLjQ2NyAzMDAuOTQ3IDI5My40IDI5NC4wNTMgMjg2LjIzMyAyOTQuMDUzIDI4Ni4yMzMgMjk0LjA1MyAyODYuMjMzIDI5MC4wNTMgMjkwLjQgMjkwLjA1MyAyOTAuNCAyOTAuMDUzIDI5MC40IDI4OS45MjMgMjkwLjUgMjg5Ljc2IDI5MC41IDI4OS42MyAyOTAuNCAyODkuNSAyOTAuMjY3IDI4OS41IDI5MC4wNjcgMjg5LjYzIDI4OS45NjcgMjkzLjg1OCAyODUuNiAyOTMuODU4IDI4NS42IDI5My44NTggMjg1LjYgMjkzLjg5IDI4NS41MzMgMjkzLjk4OCAyODUuNSAyOTQuMDUzIDI4NS41IDI5NC4wNTMgMjg1LjUgMjk0LjA1MyAyODUuNSAyOTQuMDUzIDI4NS41IDI5NC4xNSAyODUuNSAyOTQuMjE2IDI4NS41MzMgMjk0LjI4MSAyODUuNiAzMDEuMzcgMjkyLjk2NyAzMDEuMzcgMjkyLjk2NyAzMDEuMzcgMjkyLjk2NyAzMDEuNSAyOTMuMSAzMDEuNSAyOTMuMyAzMDEuMzcgMjkzLjQgMzAxLjMwNSAyOTMuNDY3IDMwMS4yNCAyOTMuNSAzMDEuMTc1IDI5My41WiIgc3Ryb2tlPSIjMDAwMDAwIiBzdHJva2Utd2lkdGg9IjAiIHN0cm9rZS1saW5lam9pbj0icm91bmQiIHN0cm9rZS1taXRlcmxpbWl0PSIxMCIgZmlsbD0iIzM3MzczNyIgZmlsbC1ydWxlPSJldmVub2RkIi8+PHBhdGggZD0iTTI5MS4yMTkgMjkyLjVDMjkxLjIxOSAyOTIuNSAyOTEuMjE5IDI5Mi41IDI5MS4yMTkgMjkyLjUgMjg3Ljc4MSAyOTIuNDY5IDI4Ny43ODEgMjkyLjQ2OSAyODcuNzgxIDI5Mi40NjkgMjg3LjYyNSAyOTIuNDY5IDI4Ny41IDI5Mi4zNDUgMjg3LjUgMjkyLjE5IDI4Ny41IDI4OC43NzkgMjg3LjUgMjg4Ljc3OSAyODcuNSAyODguNzc5IDI4Ny41IDI4OC42MjQgMjg3LjYyNSAyODguNSAyODcuODEzIDI4OC41IDI4Ny45NjkgMjg4LjUgMjg4LjA5NCAyODguNjI0IDI4OC4wOTQgMjg4Ljc3OSAyODguMDYzIDI5MS45MTEgMjg4LjA2MyAyOTEuOTExIDI4OC4wNjMgMjkxLjkxMSAyOTEuMjE5IDI5MS45NDIgMjkxLjIxOSAyOTEuOTQyIDI5MS4yMTkgMjkxLjk0MiAyOTEuMzc1IDI5MS45NDIgMjkxLjUgMjkyLjA2NiAyOTEuNSAyOTIuMjIxIDI5MS41IDI5Mi4zNzYgMjkxLjM3NSAyOTIuNSAyOTEuMjE5IDI5Mi41WiIgc3Ryb2tlPSIjMDAwMDAwIiBzdHJva2Utd2lkdGg9IjAiIHN0cm9rZS1saW5lam9pbj0icm91bmQiIHN0cm9rZS1taXRlcmxpbWl0PSIxMCIgZmlsbD0iIzM3MzczNyIgZmlsbC1ydWxlPSJldmVub2RkIi8+PHBhdGggZD0iTTI3Ni44MTQgMjc3LjVDMjc2LjY4OCAyNzcuNSAyNzYuNTk0IDI3Ny40MzYgMjc2LjU2MyAyNzcuMzA5IDI3Ni41IDI3Ny4xNSAyNzYuNTk0IDI3Ni45OTEgMjc2Ljc1MSAyNzYuOTI4IDI4NS44NDIgMjc0LjI1NiAyODUuODQyIDI3NC4yNTYgMjg1Ljg0MiAyNzQuMjU2IDI4NC4yNDMgMjY4LjkxMyAyODQuMjQzIDI2OC45MTMgMjg0LjI0MyAyNjguOTEzIDI4NC4xOCAyNjguNzU0IDI4NC4yNzQgMjY4LjU5NSAyODQuNDMxIDI2OC41NjQgMjg0LjU4OCAyNjguNSAyODQuNzQ1IDI2OC41OTUgMjg0Ljc3NiAyNjguNzU0IDI4Ni40NjkgMjc0LjM1MiAyODYuNDY5IDI3NC4zNTIgMjg2LjQ2OSAyNzQuMzUyIDI4Ni41IDI3NC40NDcgMjg2LjQ2OSAyNzQuNTExIDI4Ni40MzcgMjc0LjU3NCAyODYuNDA2IDI3NC42NyAyODYuMzQzIDI3NC43MDEgMjg2LjI4MSAyNzQuNzMzIDI3Ni45MDggMjc3LjUgMjc2LjkwOCAyNzcuNSAyNzYuOTA4IDI3Ny41IDI3Ni44NzYgMjc3LjUgMjc2Ljg0NSAyNzcuNSAyNzYuODE0IDI3Ny41WiIgc3Ryb2tlPSIjMDAwMDAwIiBzdHJva2Utd2lkdGg9IjAiIHN0cm9rZS1saW5lam9pbj0icm91bmQiIHN0cm9rZS1taXRlcmxpbWl0PSIxMCIgZmlsbD0iIzM3MzczNyIgZmlsbC1ydWxlPSJldmVub2RkIi8+PHBhdGggZD0iTTI4MS44ODYgMjY5LjVDMjgxLjgxNiAyNjkuNSAyODEuNzgxIDI2OS40NzQgMjgxLjcxMSAyNjkuNDc0IDI4MS41NyAyNjkuMzk3IDI4MS41IDI2OS4yNjcgMjgxLjYwNSAyNjkuMTM4IDI4My40NjUgMjY2LjY1NSAyODMuNDY1IDI2Ni42NTUgMjgzLjQ2NSAyNjYuNjU1IDI4My41MzUgMjY2LjUyNiAyODMuNzQ2IDI2Ni41IDI4My44ODYgMjY2LjU1MiAyODcuMjU0IDI2Ny45MjIgMjg3LjI1NCAyNjcuOTIyIDI4Ny4yNTQgMjY3LjkyMiAyODcuNDMgMjY4IDI4Ny41IDI2OC4xMjkgMjg3LjM5NSAyNjguMjU5IDI4Ny4zMjUgMjY4LjM2MiAyODcuMTE0IDI2OC40MTQgMjg2Ljk3NCAyNjguMzM2IDI4My44NTEgMjY3LjA5NSAyODMuODUxIDI2Ny4wOTUgMjgzLjg1MSAyNjcuMDk1IDI4Mi4xNjcgMjY5LjM3MSAyODIuMTY3IDI2OS4zNzEgMjgyLjE2NyAyNjkuMzcxIDI4Mi4wOTcgMjY5LjQ0OCAyODEuOTkxIDI2OS41IDI4MS44ODYgMjY5LjVaIiBzdHJva2U9IiMwMDAwMDAiIHN0cm9rZS13aWR0aD0iMCIgc3Ryb2tlLWxpbmVqb2luPSJyb3VuZCIgc3Ryb2tlLW1pdGVybGltaXQ9IjEwIiBmaWxsPSIjMzczNzM3IiBmaWxsLXJ1bGU9ImV2ZW5vZGQiLz48L2c+PC9zdmc+;" vertex="1" parent="1">
                    <mxGeometry x="124.36999999999999" y="245" width="35.63" height="30" as="geometry"/>
                </mxCell>
                <mxCell id="15" value="" style="shape=image;verticalLabelPosition=bottom;labelBackgroundColor=#ffffff;verticalAlign=top;aspect=fixed;imageAspect=0;image=data:image/svg+xml,PHN2ZyB4bWxucz0iaHR0cDovL3d3dy53My5vcmcvMjAwMC9zdmciIHhtbG5zOnhsaW5rPSJodHRwOi8vd3d3LnczLm9yZy8xOTk5L3hsaW5rIiB3aWR0aD0iMzQiIGhlaWdodD0iMzciIG92ZXJmbG93PSJoaWRkZW4iIHZpZXdCb3g9IjAgMCAzNCAzNyI+PGRlZnM+PGNsaXBQYXRoIGlkPSJjbGlwMCI+PHJlY3QgeD0iNDEwIiB5PSIyNjMiIHdpZHRoPSIzNCIgaGVpZ2h0PSIzNyIvPjwvY2xpcFBhdGg+PC9kZWZzPjxnIGNsaXAtcGF0aD0idXJsKCNjbGlwMCkiIHRyYW5zZm9ybT0idHJhbnNsYXRlKC00MTAgLTI2MykiPjxwYXRoIGQ9Ik00NDMuNSAyNjQuODMzQzQ0My41IDI2NC41ODMgNDQzLjMyMiAyNjQuNSA0NDMuMTQ0IDI2NC41IDQxMS44NTcgMjY0LjUgNDExLjg1NyAyNjQuNSA0MTEuODU3IDI2NC41IDQxMS42NzggMjY0LjUgNDExLjUgMjY0LjU4MyA0MTEuNSAyNjQuODMzIDQxMS41IDI2OC45ODkgNDExLjUgMjY4Ljk4OSA0MTEuNSAyNjguOTg5IDQxMS41IDI2OS4xNTYgNDExLjY3OCAyNjkuMzIyIDQxMS44NTcgMjY5LjMyMiA0NDIuNzg3IDI2OS4zMjIgNDQyLjc4NyAyNjkuMzIyIDQ0Mi43ODcgMjY5LjMyMiA0NDIuNzg3IDI3NC44MDkgNDQyLjc4NyAyNzQuODA5IDQ0Mi43ODcgMjc0LjgwOSA0MzQuODU0IDI3NC44MDkgNDM0Ljg1NCAyNzQuODA5IDQzNC44NTQgMjc0LjgwOSA0MzQuNzY1IDI3NC44MDkgNDM0LjY3NiAyNzQuODkyIDQzNC41ODYgMjc1LjA1OCA0MzMuNzg0IDI3Ni41NTUgNDMzLjc4NCAyNzYuNTU1IDQzMy43ODQgMjc2LjU1NSA0MzIuNTM2IDI3NS42NCA0MzEuMTEgMjc1LjA1OCA0MjkuNTA2IDI3NC44OTIgNDI4LjE2OSAyNzQuNjQzIDQyNi44MzIgMjc0LjcyNiA0MjUuNTg0IDI3NS4wNTggNDIzLjA4OCAyNzAuNTY5IDQyMy4wODggMjcwLjU2OSA0MjMuMDg4IDI3MC41NjkgNDIyLjk5OSAyNzAuNDg2IDQyMi45MSAyNzAuNDAzIDQyMi43MzEgMjcwLjQwMyA0MjIuNzMxIDI3MC40MDMgNDIyLjczMSAyNzAuNDAzIDQyMi43MzEgMjcwLjQwMyA0MjIuNTUzIDI3MC40MDMgNDIyLjQ2NCAyNzAuNDg2IDQyMi4zNzUgMjcwLjU2OSA0MTcuODI5IDI3OS4yOTggNDE3LjgyOSAyNzkuMjk4IDQxNy44MjkgMjc5LjI5OCA0MTUuNDIyIDI3NC45NzUgNDE1LjQyMiAyNzQuOTc1IDQxNS40MjIgMjc0Ljk3NSA0MTUuNDIyIDI3NC44OTIgNDE1LjI0NCAyNzQuODA5IDQxNS4xNTUgMjc0LjgwOSA0MTIuMjEzIDI3NC44MDkgNDEyLjIxMyAyNzQuODA5IDQxMi4yMTMgMjc0LjgwOSA0MTIuMjEzIDI3MS4wNjggNDEyLjIxMyAyNzEuMDY4IDQxMi4yMTMgMjcxLjA2OCA0MTIuMjEzIDI3MC45MDEgNDEyLjEyNCAyNzAuNzM1IDQxMS44NTcgMjcwLjczNSA0MTEuNjc4IDI3MC43MzUgNDExLjUgMjcwLjkwMSA0MTEuNSAyNzEuMDY4IDQxMS41IDI4OS43NzMgNDExLjUgMjg5Ljc3MyA0MTEuNSAyODkuNzczIDQxMS41IDI4OS45MzkgNDExLjY3OCAyOTAuMTA2IDQxMS44NTcgMjkwLjEwNiA0MTguODA5IDI5MC4xMDYgNDE4LjgwOSAyOTAuMTA2IDQxOC44MDkgMjkwLjEwNiA0MTkuMDc3IDI5MC4xMDYgNDE5LjE2NiAyODkuOTM5IDQxOS4xNjYgMjg5Ljc3MyA0MTkuMTY2IDI4OS42MDcgNDE5LjA3NyAyODkuNDQxIDQxOC44MDkgMjg5LjQ0MSA0MTIuMjEzIDI4OS40NDEgNDEyLjIxMyAyODkuNDQxIDQxMi4yMTMgMjg5LjQ0MSA0MTIuMjEzIDI3NS40NzQgNDEyLjIxMyAyNzUuNDc0IDQxMi4yMTMgMjc1LjQ3NCA0MTQuODg3IDI3NS40NzQgNDE0Ljg4NyAyNzUuNDc0IDQxNC44ODcgMjc1LjQ3NCA0MTcuNDcyIDI4MC4yMTMgNDE3LjQ3MiAyODAuMjEzIDQxNy40NzIgMjgwLjIxMyA0MTcuNTYxIDI4MC4yOTYgNDE3LjY1IDI4MC4zNzkgNDE3LjgyOSAyODAuMzc5IDQxNy44MjkgMjgwLjM3OSA0MTcuODI5IDI4MC4zNzkgNDE3LjgyOSAyODAuMzc5IDQxNy45MTggMjgwLjM3OSA0MTguMDk2IDI4MC4yOTYgNDE4LjA5NiAyODAuMjEzIDQyMi43MzEgMjcxLjQ4MyA0MjIuNzMxIDI3MS40ODMgNDIyLjczMSAyNzEuNDgzIDQyNC44NzEgMjc1LjMwOCA0MjQuODcxIDI3NS4zMDggNDI0Ljg3MSAyNzUuMzA4IDQyMS43NTEgMjc2LjM4OCA0MTkuMjU1IDI3OC45NjYgNDE4LjcyIDI4Mi4yOTEgNDE4LjAwNyAyODcuMTEzIDQyMS41NzIgMjkxLjYwMiA0MjYuNzQyIDI5Mi4yNjcgNDI3LjE4OCAyOTIuMzUgNDI3LjYzNCAyOTIuNDM0IDQyOC4wNzkgMjkyLjQzNCA0MzAuMDQgMjkyLjQzNCA0MzEuOTEyIDI5MS44NTIgNDMzLjQyOCAyOTAuODU0IDQzNC43NjUgMjkyLjYgNDM0Ljc2NSAyOTIuNiA0MzQuNzY1IDI5Mi42IDQzNC45NDMgMjkyLjY4MyA0MzUuMTIxIDI5Mi43NjYgNDM1LjI5OSAyOTIuNjgzIDQzNS40NzggMjkyLjUxNyA0MzYuMTAyIDI5Mi4xMDEgNDM2LjcyNiAyOTIuODQ5IDQ0MC4zOCAyOTcuNDIyIDQ0MC4zOCAyOTcuNDIyIDQ0MC4zOCAyOTcuNDIyIDQ0MC43MzcgMjk3LjgzNyA0NDAuNjQ4IDI5OC40MTkgNDQwLjIwMiAyOTguNjY5IDQ0MC4wMjQgMjk4LjgzNSA0MzkuNzU2IDI5OC45MTggNDM5LjQ4OSAyOTguODM1IDQzOS4yMjEgMjk4LjgzNSA0MzguOTU0IDI5OC42NjkgNDM4Ljc3NiAyOTguNTAyIDQzNS4xMjEgMjkzLjkzIDQzNS4xMjEgMjkzLjkzIDQzNS4xMjEgMjkzLjkzIDQzNC45NDMgMjkzLjc2NCA0MzQuNzY1IDI5My43NjQgNDM0LjU4NiAyOTMuODQ3IDQzNC40MDggMjk0LjAxMyA0MzQuNDA4IDI5NC4xNzkgNDM0LjQ5NyAyOTQuMzQ2IDQzOC4yNDEgMjk4LjkxOCA0MzguMjQxIDI5OC45MTggNDM4LjI0MSAyOTguOTE4IDQzOC41MDggMjk5LjI1MSA0MzguODY1IDI5OS40MTcgNDM5LjMxMSAyOTkuNSA0MzkuNCAyOTkuNSA0MzkuNDg5IDI5OS41IDQzOS41NzggMjk5LjUgNDM5LjkzNSAyOTkuNSA0NDAuMjkxIDI5OS40MTcgNDQwLjY0OCAyOTkuMjUxIDQ0MS4zNjEgMjk4LjY2OSA0NDEuNTM5IDI5Ny42NzEgNDQxLjAwNCAyOTcuMDA2IDQzNy4yNiAyOTIuNDM0IDQzNy4yNiAyOTIuNDM0IDQzNy4yNiAyOTIuNDM0IDQzNi42MzcgMjkxLjYwMiA0MzUuNzQ1IDI5MS42ODUgNDM1LjIxIDI5MS45MzUgNDMzLjk2MiAyOTAuNDM4IDQzMy45NjIgMjkwLjQzOCA0MzMuOTYyIDI5MC40MzggNDM0LjE0MSAyOTAuMzU1IDQzNC4zMTkgMjkwLjE4OSA0MzQuNDA4IDI5MC4xMDYgNDM0LjQwOCAyOTAuMTA2IDQzNC40OTcgMjkwLjEwNiA0MzQuNDk3IDI5MC4xMDYgNDQzLjE0NCAyOTAuMTA2IDQ0My4xNDQgMjkwLjEwNiA0NDMuMTQ0IDI5MC4xMDYgNDQzLjMyMiAyOTAuMTA2IDQ0My41IDI4OS45MzkgNDQzLjUgMjg5Ljc3MyA0NDMuNSAyODkuNjkgNDQzLjQxMSAyODkuNjkgNDQzLjQxMSAyODkuNjA3IDQ0My41IDI4OS41MjQgNDQzLjUgMjg5LjUyNCA0NDMuNSAyODkuNDQxTDQ0My41IDI2NC44MzNaTTQxMi4yMTMgMjY4LjY1N0M0MTIuMjEzIDI2NS4xNjUgNDEyLjIxMyAyNjUuMTY1IDQxMi4yMTMgMjY1LjE2NSA0NDIuNzg3IDI2NS4xNjUgNDQyLjc4NyAyNjUuMTY1IDQ0Mi43ODcgMjY1LjE2NSA0NDIuNzg3IDI2OC42NTcgNDQyLjc4NyAyNjguNjU3IDQ0Mi43ODcgMjY4LjY1N0w0MTIuMjEzIDI2OC42NTdaTTQzNS4xMjEgMjc1LjQ3NEM0NDIuNzg3IDI3NS40NzQgNDQyLjc4NyAyNzUuNDc0IDQ0Mi43ODcgMjc1LjQ3NCA0NDIuNzg3IDI4OS40NDEgNDQyLjc4NyAyODkuNDQxIDQ0Mi43ODcgMjg5LjQ0MSA0NDIuNzg3IDI4OS40NDEgNDQyLjc4NyAyODkuNDQxIDQ0Mi43ODcgMjg5LjQ0MSA0MzUuMTIxIDI4OS40NDEgNDM1LjEyMSAyODkuNDQxIDQzNS4xMjEgMjg5LjQ0MSA0MzYuMzY5IDI4OC4xOTQgNDM3LjE3MSAyODYuNjE0IDQzNy40MzkgMjg0Ljg2OCA0MzcuNzk1IDI4Mi41NCA0MzcuMTcxIDI4MC4yMTMgNDM1LjY1NiAyNzguMzAxIDQzNS4yOTkgMjc3LjgwMiA0MzQuODU0IDI3Ny4zODYgNDM0LjMxOSAyNzYuOTdMNDM1LjEyMSAyNzUuNDc0Wk00MjYuODMyIDI5MS42ODVDNDIyLjAxOCAyOTEuMDIgNDE4LjcyIDI4Ni44NjMgNDE5LjQzMyAyODIuMzc0IDQyMC4xNDYgMjc3Ljk2OCA0MjQuNjAzIDI3NC44OTIgNDI5LjQxNyAyNzUuNDc0IDQzMS43MzQgMjc1LjgwNiA0MzMuNjk1IDI3Ni45NyA0MzUuMTIxIDI3OC43MTYgNDM2LjU0NyAyODAuNDYyIDQzNy4wODIgMjgyLjYyNCA0MzYuNzI2IDI4NC43ODUgNDM2LjAxMyAyODkuMTkxIDQzMS41NTYgMjkyLjI2NyA0MjYuODMyIDI5MS42ODVaIiBzdHJva2U9IiMwMDAwMDAiIHN0cm9rZS13aWR0aD0iMCIgc3Ryb2tlLWxpbmVqb2luPSJyb3VuZCIgc3Ryb2tlLW1pdGVybGltaXQ9IjEwIiBmaWxsPSIjMzczNzM3IiBmaWxsLXJ1bGU9ImV2ZW5vZGQiLz48L2c+PC9zdmc+;" vertex="1" parent="1">
                    <mxGeometry x="200.36" y="240" width="34" height="37" as="geometry"/>
                </mxCell>
                <mxCell id="16" value="" style="shape=image;verticalLabelPosition=bottom;labelBackgroundColor=#ffffff;verticalAlign=top;aspect=fixed;imageAspect=0;image=data:image/svg+xml,PHN2ZyB4bWxucz0iaHR0cDovL3d3dy53My5vcmcvMjAwMC9zdmciIHhtbG5zOnhsaW5rPSJodHRwOi8vd3d3LnczLm9yZy8xOTk5L3hsaW5rIiB3aWR0aD0iMzAiIGhlaWdodD0iMzAiIG92ZXJmbG93PSJoaWRkZW4iIHZpZXdCb3g9IjAgMCAzMCAzMCI+PGRlZnM+PGNsaXBQYXRoIGlkPSJjbGlwMCI+PHJlY3QgeD0iMzQ5IiB5PSIyNjQiIHdpZHRoPSIzMCIgaGVpZ2h0PSIzMCIvPjwvY2xpcFBhdGg+PC9kZWZzPjxnIGNsaXAtcGF0aD0idXJsKCNjbGlwMCkiIHRyYW5zZm9ybT0idHJhbnNsYXRlKC0zNDkgLTI2NCkiPjxwYXRoIGQ9Ik0zNzcuMTM1IDI5My41QzM3Ny4xMzUgMjkzLjUgMzc3LjEzNSAyOTMuNSAzNzcuMTAyIDI5My41IDM3Mi40ODggMjkzLjA1MyAzNzIuNDg4IDI5My4wNTMgMzcyLjQ4OCAyOTMuMDUzIDM3Mi4zNTUgMjkzLjAxOCAzNzIuMjIyIDI5Mi44ODEgMzcyLjIyMiAyOTIuNzQzIDM3Mi4yNTUgMjkxLjA1OCAzNzIuMjU1IDI5MS4wNTggMzcyLjI1NSAyOTEuMDU4IDM3MS41MjUgMjkwLjMzNSAzNzEuNTI1IDI5MC4zMzUgMzcxLjUyNSAyOTAuMzM1IDM2OS4wMzUgMjg5LjUxIDM2OS4wMzUgMjg5LjUxIDM2OS4wMzUgMjg5LjUxIDM2OC45MDMgMjg5LjQ0MSAzNjguODAzIDI4OS4zMzggMzY4LjgwMyAyODkuMiAzNjguODAzIDI4Ny40OCAzNjguODAzIDI4Ny40OCAzNjguODAzIDI4Ny40OCAzNjguMTM5IDI4Ni44MjcgMzY4LjEzOSAyODYuODI3IDM2OC4xMzkgMjg2LjgyNyAzNjYuNTQ2IDI4Ni44MjcgMzY2LjU0NiAyODYuODI3IDM2Ni41NDYgMjg2LjgyNyAzNjYuNTQ2IDI4Ni44MjcgMzY2LjU0NiAyODYuODI3IDM2Ni41NDYgMjg2LjgyNyAzNjYuNDQ2IDI4Ni44MjcgMzY2LjM4IDI4Ni43OTIgMzY2LjMxMyAyODYuNzI0IDM2Ni4yNDcgMjg2LjY1NSAzNjYuMjE0IDI4Ni41NTIgMzY2LjIxNCAyODYuNDgzIDM2Ni4zNDcgMjg0LjA0MSAzNjYuMzQ3IDI4NC4wNDEgMzY2LjM0NyAyODQuMDQxIDM2NS40MTcgMjgzLjA3NyAzNjUuNDE3IDI4My4wNzcgMzY1LjQxNyAyODMuMDc3IDM2My40NTkgMjgzLjU1OSAzNjMuNDU5IDI4My41NTkgMzYzLjQ1OSAyODMuNTU5IDM2My4zNTkgMjgzLjU5MyAzNjMuMjU5IDI4My41NTkgMzYzLjE2IDI4My40NTYgMzYxLjYgMjgxLjgzOSAzNjEuNiAyODEuODM5IDM2MS42IDI4MS44MzkgMzYxLjUgMjgxLjczNiAzNjEuNSAyODEuNTMgMzYxLjYgMjgxLjM5MiAzNjEuNzMyIDI4MS4yODkgMzYxLjkzMiAyODEuMjg5IDM2Mi4wMzEgMjgxLjM5MiAzNjMuNDkyIDI4Mi45MDUgMzYzLjQ5MiAyODIuOTA1IDM2My40OTIgMjgyLjkwNSAzNjUuNDUgMjgyLjQyNCAzNjUuNDUgMjgyLjQyNCAzNjUuNDUgMjgyLjQyNCAzNjUuNTUgMjgyLjM4OSAzNjUuNjQ5IDI4Mi40MjQgMzY1Ljc0OSAyODIuNTI3IDM2Ni44NzggMjgzLjY5NyAzNjYuODc4IDI4My42OTcgMzY2Ljg3OCAyODMuNjk3IDM2Ni45NDQgMjgzLjc2NSAzNjYuOTc3IDI4My44MzQgMzY2Ljk3NyAyODMuOTM3IDM2Ni44NDQgMjg2LjE3MyAzNjYuODQ0IDI4Ni4xNzMgMzY2Ljg0NCAyODYuMTczIDM2OC4yNzIgMjg2LjE3MyAzNjguMjcyIDI4Ni4xNzMgMzY4LjI3MiAyODYuMTczIDM2OC4yNzIgMjg2LjE3MyAzNjguMjcyIDI4Ni4xNzMgMzY4LjI3MiAyODYuMTczIDM2OC4zMzggMjg2LjE3MyAzNjguNDM4IDI4Ni4yMDggMzY4LjUwNCAyODYuMjc2IDM2OS4zMDEgMjg3LjEzNiAzNjkuMzAxIDI4Ny4xMzYgMzY5LjMwMSAyODcuMTM2IDM2OS4zNjcgMjg3LjE3MSAzNjkuNCAyODcuMjc0IDM2OS40IDI4Ny4zNDMgMzY5LjQgMjg4Ljk2IDM2OS40IDI4OC45NiAzNjkuNCAyODguOTYgMzcxLjc5MSAyODkuNzUxIDM3MS43OTEgMjg5Ljc1MSAzNzEuNzkxIDI4OS43NTEgMzcxLjgyNCAyODkuNzg1IDM3MS44NTcgMjg5Ljc4NSAzNzEuODkgMjg5LjgxOSAzNzIuNzUzIDI5MC43MTQgMzcyLjc1MyAyOTAuNzE0IDM3Mi43NTMgMjkwLjcxNCAzNzIuODIgMjkwLjc4MyAzNzIuODUzIDI5MC44NTEgMzcyLjg1MyAyOTAuOTU1IDM3Mi44MiAyOTIuNDM0IDM3Mi44MiAyOTIuNDM0IDM3Mi44MiAyOTIuNDM0IDM3Ni40MzggMjkyLjgxMiAzNzYuNDM4IDI5Mi44MTIgMzc2LjQzOCAyOTIuODEyIDM2NC4xNTYgMjgwLjA4NSAzNjQuMTU2IDI4MC4wODUgMzY0LjE1NiAyODAuMDg1IDM2NC4wMjMgMjc5Ljk0NyAzNjQuMDIzIDI3OS43NzUgMzY0LjE1NiAyNzkuNjM4IDM2NC4yNTUgMjc5LjUgMzY0LjQ1NCAyNzkuNSAzNjQuNTg3IDI3OS42MzggMzc3LjM2NyAyOTIuOTE1IDM3Ny4zNjcgMjkyLjkxNSAzNzcuMzY3IDI5Mi45MTUgMzc3LjUgMjkzLjAxOCAzNzcuNSAyOTMuMTU2IDM3Ny40NjcgMjkzLjI5NCAzNzcuNCAyOTMuNDMxIDM3Ny4yNjggMjkzLjUgMzc3LjEzNSAyOTMuNVpNMzc2Ljk2OSAyOTMuMzYyQzM3Ni45NjkgMjkzLjM2MiAzNzYuOTY5IDI5My4zNjIgMzc2Ljk2OSAyOTMuMzYyWiIgc3Ryb2tlPSIjMDAwMDAwIiBzdHJva2Utd2lkdGg9IjAiIHN0cm9rZS1saW5lam9pbj0icm91bmQiIHN0cm9rZS1taXRlcmxpbWl0PSIxMCIgZmlsbD0iIzM3MzczNyIgZmlsbC1ydWxlPSJldmVub2RkIi8+PHBhdGggZD0iTTM3OC4xOTEgMjkyLjVDMzc4LjAxOSAyOTIuNSAzNzcuODgyIDI5Mi4zOTcgMzc3Ljg4MiAyOTIuMjI1IDM3Ny40MzUgMjg5LjI2MyAzNzcuNDM1IDI4OS4yNjMgMzc3LjQzNSAyODkuMjYzIDM2NS40NDMgMjc3LjI0NCAzNjUuNDQzIDI3Ny4yNDQgMzY1LjQ0MyAyNzcuMjQ0IDM2NS4zNzQgMjc3LjE3NSAzNjUuMzQgMjc3LjAzNyAzNjUuMzc0IDI3Ni45MzQgMzY2LjU0MyAyNzQuMDA2IDM2NS44MjEgMjcwLjY2NiAzNjMuNjIyIDI2OC40MjcgMzYyLjExIDI2Ni45NDcgMzYwLjE1MiAyNjYuMTIgMzU4LjAyMSAyNjYuMTIgMzU1LjkyNSAyNjYuMTIgMzUzLjkzMyAyNjYuOTQ3IDM1Mi40NTUgMjY4LjQyNyAzNTAuOTc4IDI2OS45NDMgMzUwLjE1MyAyNzEuOTA2IDM1MC4xNTMgMjc0LjA0MSAzNTAuMTUzIDI3Ni4xNDIgMzUwLjk3OCAyNzguMTM5IDM1Mi40NTUgMjc5LjYyIDM1NC43MjMgMjgxLjg5MyAzNTguMTI0IDI4Mi41ODIgMzYxLjA3OSAyODEuMzA3IDM2MS4yNTEgMjgxLjIzOSAzNjEuNDIzIDI4MS4zNDIgMzYxLjQ5MiAyODEuNDggMzYxLjU2IDI4MS42NTIgMzYxLjQ5MiAyODEuODI0IDM2MS4zMiAyODEuODkzIDM1OC4xMjQgMjgzLjIzNiAzNTQuNDgyIDI4Mi41NDcgMzUyLjAwOCAyODAuMDY4IDM1MC4zOTMgMjc4LjQ0OSAzNDkuNSAyNzYuMzE0IDM0OS41IDI3NC4wNDEgMzQ5LjUgMjcxLjczMyAzNTAuMzkzIDI2OS41OTggMzUyLjAwOCAyNjcuOTggMzUzLjYyMyAyNjYuMzYxIDM1NS43NTQgMjY1LjUgMzU4LjAyMSAyNjUuNSAzNTguMDIxIDI2NS41IDM1OC4wMjEgMjY1LjUgMzU4LjAyMSAyNjUuNSAzNjAuMzI0IDI2NS41IDM2Mi40NTQgMjY2LjM2MSAzNjQuMDY5IDI2Ny45OCAzNjYuNDA1IDI3MC4zNTYgMzY3LjE2MSAyNzMuODM0IDM2Ni4wMjcgMjc2Ljk2OCAzNzcuOTUgMjg4Ljg4NCAzNzcuOTUgMjg4Ljg4NCAzNzcuOTUgMjg4Ljg4NCAzNzguMDE5IDI4OC45NTMgMzc4LjAxOSAyODkuMDIyIDM3OC4wNTMgMjg5LjA5MSAzNzguNSAyOTIuMTU2IDM3OC41IDI5Mi4xNTYgMzc4LjUgMjkyLjE1NiAzNzguNSAyOTIuMzI4IDM3OC4zOTcgMjkyLjQ2NiAzNzguMjI1IDI5Mi41IDM3OC4yMjUgMjkyLjUgMzc4LjE5MSAyOTIuNSAzNzguMTkxIDI5Mi41WiIgc3Ryb2tlPSIjMDAwMDAwIiBzdHJva2Utd2lkdGg9IjAiIHN0cm9rZS1saW5lam9pbj0icm91bmQiIHN0cm9rZS1taXRlcmxpbWl0PSIxMCIgZmlsbD0iIzM3MzczNyIgZmlsbC1ydWxlPSJldmVub2RkIi8+PHBhdGggZD0iTTM1Ni42MzggMjc0LjVDMzU1Ljg3OSAyNzQuNSAzNTUuMTU1IDI3NC4yMjQgMzU0LjYwNCAyNzMuNjcyIDM1My41IDI3Mi41NjkgMzUzLjUgMjcwLjc0MSAzNTQuNjA0IDI2OS42MzggMzU1Ljc0MSAyNjguNSAzNTcuNTY5IDI2OC41IDM1OC42NzIgMjY5LjYzOCAzNTguNjcyIDI2OS42MzggMzU4LjY3MiAyNjkuNjM4IDM1OC42NzIgMjY5LjYzOCAzNTkuMjI0IDI3MC4xNTUgMzU5LjUgMjcwLjg3OSAzNTkuNSAyNzEuNjM4IDM1OS41IDI3Mi40MzEgMzU5LjIyNCAyNzMuMTIxIDM1OC42NzIgMjczLjY3MiAzNTguMTIxIDI3NC4yMjQgMzU3LjM5NyAyNzQuNSAzNTYuNjM4IDI3NC41Wk0zNTYuNjM4IDI2OS40MzFDMzU2LjA4NiAyNjkuNDMxIDM1NS41IDI2OS42MzggMzU1LjA1MiAyNzAuMDg2IDM1NC4xOSAyNzAuOTQ4IDM1NC4xOSAyNzIuMzYyIDM1NS4wNTIgMjczLjIyNCAzNTUuNSAyNzMuNjM4IDM1Ni4wNTIgMjczLjg3OSAzNTYuNjM4IDI3My44NzkgMzU3LjIyNCAyNzMuODc5IDM1Ny44MSAyNzMuNjM4IDM1OC4yMjQgMjczLjIyNCAzNTguNjM4IDI3Mi44MSAzNTguODc5IDI3Mi4yNTkgMzU4Ljg3OSAyNzEuNjM4IDM1OC44NzkgMjcxLjA1MiAzNTguNjM4IDI3MC41IDM1OC4yMjQgMjcwLjA4NiAzNTguMjI0IDI3MC4wODYgMzU4LjIyNCAyNzAuMDg2IDM1OC4yMjQgMjcwLjA4NiAzNTcuNzc2IDI2OS42MzggMzU3LjIyNCAyNjkuNDMxIDM1Ni42MzggMjY5LjQzMVoiIHN0cm9rZT0iIzAwMDAwMCIgc3Ryb2tlLXdpZHRoPSIwIiBzdHJva2UtbGluZWpvaW49InJvdW5kIiBzdHJva2UtbWl0ZXJsaW1pdD0iMTAiIGZpbGw9IiMzNzM3MzciIGZpbGwtcnVsZT0iZXZlbm9kZCIvPjwvZz48L3N2Zz4=;" vertex="1" parent="1">
                    <mxGeometry x="163.18" y="245" width="30" height="30" as="geometry"/>
                </mxCell>
                <mxCell id="17" value="" style="shape=image;verticalLabelPosition=bottom;labelBackgroundColor=#ffffff;verticalAlign=top;aspect=fixed;imageAspect=0;image=data:image/svg+xml,PHN2ZyB4bWxucz0iaHR0cDovL3d3dy53My5vcmcvMjAwMC9zdmciIHhtbG5zOnhsaW5rPSJodHRwOi8vd3d3LnczLm9yZy8xOTk5L3hsaW5rIiB3aWR0aD0iMzUiIGhlaWdodD0iMzgiIG92ZXJmbG93PSJoaWRkZW4iIHZpZXdCb3g9IjAgMCAzNSAzOCI+PGRlZnM+PGNsaXBQYXRoIGlkPSJjbGlwMCI+PHJlY3QgeD0iNDc2IiB5PSIyNjIiIHdpZHRoPSIzNSIgaGVpZ2h0PSIzOCIvPjwvY2xpcFBhdGg+PC9kZWZzPjxnIGNsaXAtcGF0aD0idXJsKCNjbGlwMCkiIHRyYW5zZm9ybT0idHJhbnNsYXRlKC00NzYgLTI2MikiPjxwYXRoIGQ9Ik00OTEuOTA3IDI3OC41M0M0OTEuOTA3IDI3NS45OTMgNDkxLjkwNyAyNzUuOTkzIDQ5MS45MDcgMjc1Ljk5MyA0OTEuOTA3IDI3NC43MjQgNDkwLjg5IDI3NC41IDQ4OS45NTggMjc0LjUgNDg4LjY4NiAyNzQuNSA0ODcuNzU0IDI3NC45NDggNDg3Ljc1NCAyNzYuMDY3IDQ4OC4zNDggMjc2LjA2NyA0ODguMzQ4IDI3Ni4wNjcgNDg4LjM0OCAyNzYuMDY3IDQ4OC40MzIgMjc1LjMyMSA0ODkuMDI1IDI3NC45NDggNDg5Ljg3MyAyNzQuOTQ4IDQ5MC42MzYgMjc0Ljk0OCA0OTEuMjI5IDI3NS4xNzIgNDkxLjIyOSAyNzUuOTE4IDQ5MS4yMjkgMjc2LjQ0IDQ5MC45NzUgMjc2LjUxNSA0OTAuMzgxIDI3Ni41OSA0ODguOTQxIDI3Ni43MzkgNDg3LjUgMjc2LjgxNCA0ODcuNSAyNzguMTU3IDQ4Ny41IDI3OS4xMjcgNDg4LjM0OCAyNzkuNSA0ODkuMjggMjc5LjUgNDkwLjM4MSAyNzkuNSA0OTAuODA1IDI3OS4yMDIgNDkxLjMxNCAyNzguNTMgNDkxLjMxNCAyNzguNTMgNDkxLjMxNCAyNzguNTMgNDkxLjMxNCAyNzguNTMgNDkxLjMxNCAyNzkuMDUyIDQ5MS4zOTggMjc5LjQyNSA0OTIuMDc2IDI3OS40MjUgNDkyLjI0NiAyNzkuNDI1IDQ5Mi40MTUgMjc5LjM1MSA0OTIuNSAyNzkuMzUxIDQ5Mi41IDI3OC44MjggNDkyLjUgMjc4LjgyOCA0OTIuNSAyNzguODI4IDQ5Mi41IDI3OC45MDMgNDkyLjQxNSAyNzguOTAzIDQ5Mi4zMzEgMjc4LjkwMyA0OTIuMDc2IDI3OC45MDMgNDkxLjkwNyAyNzguNzU0IDQ5MS45MDcgMjc4LjUzWk00OTEuMjI5IDI3Ny41NkM0OTEuMjI5IDI3OC40NTUgNDkwLjM4MSAyNzkuMDUyIDQ4OS4zNjQgMjc5LjA1MiA0ODguNzcxIDI3OS4wNTIgNDg4LjE3OCAyNzguNjc5IDQ4OC4xNzggMjc4LjA4MiA0ODguMTc4IDI3Ny4xODcgNDg5LjUzNCAyNzcuMTg3IDQ5MC42MzYgMjc2Ljk2MyA0OTAuODkgMjc2Ljk2MyA0OTEuMTQ0IDI3Ni44ODggNDkxLjIyOSAyNzYuNzM5IDQ5MS4yMjkgMjc2LjczOSA0OTEuMjI5IDI3Ni43MzkgNDkxLjIyOSAyNzYuNzM5TDQ5MS4yMjkgMjc3LjU2WiIgc3Ryb2tlPSIjMDAwMDAwIiBzdHJva2Utd2lkdGg9IjAiIHN0cm9rZS1saW5lam9pbj0icm91bmQiIHN0cm9rZS1taXRlcmxpbWl0PSIxMCIgZmlsbD0iIzM3MzczNyIgZmlsbC1ydWxlPSJldmVub2RkIi8+PHBhdGggZD0iTTQ5NS4wNDIgMjc0LjVDNDk0LjE5NSAyNzQuNSA0OTMuNDMyIDI3NC44OTMgNDkzLjA5MyAyNzUuNjAxIDQ5My4wOTMgMjc1LjYwMSA0OTMuMDkzIDI3NS42MDEgNDkzLjA5MyAyNzUuNjAxIDQ5My4wOTMgMjc0LjU3OSA0OTMuMDkzIDI3NC41NzkgNDkzLjA5MyAyNzQuNTc5IDQ5Mi41IDI3NC41NzkgNDkyLjUgMjc0LjU3OSA0OTIuNSAyNzQuNTc5IDQ5Mi41IDI4MS41IDQ5Mi41IDI4MS41IDQ5Mi41IDI4MS41IDQ5My4xNzggMjgxLjUgNDkzLjE3OCAyODEuNSA0OTMuMTc4IDI4MS41IDQ5My4xNzggMjc4LjY2OSA0OTMuMTc4IDI3OC42NjkgNDkzLjE3OCAyNzguNjY5IDQ5My4xNzggMjc4LjY2OSA0OTMuMTc4IDI3OC42NjkgNDkzLjE3OCAyNzguNjY5IDQ5My40MzIgMjc5LjQ1NSA0OTQuMTk1IDI3OS43NyA0OTUuMDQyIDI3OS43NyA0OTYuNjUzIDI3OS43NyA0OTcuNSAyNzguNTkgNDk3LjUgMjc3LjA5NiA0OTcuNSAyNzUuNjggNDk2LjY1MyAyNzQuNSA0OTUuMDQyIDI3NC41Wk00OTUuMDQyIDI3OS4yOThDNDkzLjYwMiAyNzkuMjk4IDQ5My4xNzggMjc4LjE5NyA0OTMuMTc4IDI3Ny4wOTYgNDkzLjE3OCAyNzUuOTk0IDQ5My42MDIgMjc0Ljk3MiA0OTUuMDQyIDI3NC45NzIgNDk2LjMxNCAyNzQuOTcyIDQ5Ni44MjIgMjc2LjA3MyA0OTYuODIyIDI3Ny4wOTYgNDk2LjgyMiAyNzguMTk3IDQ5Ni4zMTQgMjc5LjI5OCA0OTUuMDQyIDI3OS4yOThaIiBzdHJva2U9IiMwMDAwMDAiIHN0cm9rZS13aWR0aD0iMCIgc3Ryb2tlLWxpbmVqb2luPSJyb3VuZCIgc3Ryb2tlLW1pdGVybGltaXQ9IjEwIiBmaWxsPSIjMzczNzM3IiBmaWxsLXJ1bGU9ImV2ZW5vZGQiLz48cGF0aCBkPSJNNTAxLjEyNyAyNzQuNUM1MDAuMTk1IDI3NC41IDQ5OS40MzIgMjc0Ljg5MyA0OTkuMTc4IDI3NS42MDEgNDk5LjE3OCAyNzUuNjAxIDQ5OS4xNzggMjc1LjYwMSA0OTkuMTc4IDI3NS42MDEgNDk5LjE3OCAyNzQuNTc5IDQ5OS4xNzggMjc0LjU3OSA0OTkuMTc4IDI3NC41NzkgNDk4LjUgMjc0LjU3OSA0OTguNSAyNzQuNTc5IDQ5OC41IDI3NC41NzkgNDk4LjUgMjgxLjUgNDk4LjUgMjgxLjUgNDk4LjUgMjgxLjUgNDk5LjE3OCAyODEuNSA0OTkuMTc4IDI4MS41IDQ5OS4xNzggMjgxLjUgNDk5LjE3OCAyNzguNjY5IDQ5OS4xNzggMjc4LjY2OSA0OTkuMTc4IDI3OC42NjkgNDk5LjE3OCAyNzguNjY5IDQ5OS4xNzggMjc4LjY2OSA0OTkuMTc4IDI3OC42NjkgNDk5LjUxNyAyNzkuNDU1IDUwMC4yOCAyNzkuNzcgNTAxLjEyNyAyNzkuNzcgNTAyLjczNyAyNzkuNzcgNTAzLjUgMjc4LjU5IDUwMy41IDI3Ny4wOTYgNTAzLjUgMjc1LjY4IDUwMi43MzcgMjc0LjUgNTAxLjEyNyAyNzQuNVpNNTAxLjEyNyAyNzkuMjk4QzQ5OS42ODYgMjc5LjI5OCA0OTkuMTc4IDI3OC4xOTcgNDk5LjE3OCAyNzcuMDk2IDQ5OS4xNzggMjc1Ljk5NCA0OTkuNjAyIDI3NC45NzIgNTAxLjEyNyAyNzQuOTcyIDUwMi4zOTggMjc0Ljk3MiA1MDIuOTA3IDI3Ni4wNzMgNTAyLjkwNyAyNzcuMDk2IDUwMi45MDcgMjc4LjE5NyA1MDIuMzk4IDI3OS4yOTggNTAxLjEyNyAyNzkuMjk4WiIgc3Ryb2tlPSIjMDAwMDAwIiBzdHJva2Utd2lkdGg9IjAiIHN0cm9rZS1saW5lam9pbj0icm91bmQiIHN0cm9rZS1taXRlcmxpbWl0PSIxMCIgZmlsbD0iIzM3MzczNyIgZmlsbC1ydWxlPSJldmVub2RkIi8+PHBhdGggZD0iTTUwMy45OTYgMjYyLjVDNDg3LjEyIDI2Mi41IDQ4Ny4xMiAyNjIuNSA0ODcuMTIgMjYyLjUgNDgzLjQ5OCAyNjIuNSA0ODAuNTM0IDI2NS41NDEgNDgwLjUzNCAyNjkuMjU4IDQ4MC41MzQgMjg0LjA0MSA0ODAuNTM0IDI4NC4wNDEgNDgwLjUzNCAyODQuMDQxIDQ3OC45NyAyODUuMzA4IDQ3Ny45IDI4Ny4wODIgNDc3LjQ4OCAyODkuMTEgNDc2LjUgMjkzLjc1NiA0NzkuNDY0IDI5OC4zMTcgNDgzLjk5MiAyOTkuMzMxIDQ4NC41NjggMjk5LjQxNiA0ODUuMTQ0IDI5OS41IDQ4NS43MiAyOTkuNSA0ODkuNDI1IDI5OS41IDQ5Mi43MTggMjk2Ljk2NiA0OTMuNzg4IDI5My4yNDkgNTAzLjk5NiAyOTMuMjQ5IDUwMy45OTYgMjkzLjI0OSA1MDMuOTk2IDI5My4yNDkgNTA3LjYxOSAyOTMuMjQ5IDUxMC41IDI5MC4yMDggNTEwLjUgMjg2LjQ5MSA1MTAuNSAyNjkuMjU4IDUxMC41IDI2OS4yNTggNTEwLjUgMjY5LjI1OCA1MTAuNSAyNjUuNTQxIDUwNy42MTkgMjYyLjUgNTAzLjk5NiAyNjIuNVpNNDg0LjA3NCAyOTguNjU1QzQ3OS45NTggMjk3LjcyNiA0NzcuMjQxIDI5My41MDIgNDc4LjA2NCAyODkuMjc5IDQ3OC44ODcgMjg1LjQ3NyA0ODIuMDk4IDI4Mi45NDMgNDg1LjcyIDI4Mi45NDMgNDg2LjIxNCAyODIuOTQzIDQ4Ni43MDggMjgyLjk0MyA0ODcuMjg1IDI4My4wMjcgNDkxLjQ4MyAyODMuOTU3IDQ5NC4xMTcgMjg4LjE4IDQ5My4yOTQgMjkyLjQ4OSA0OTIuMzg5IDI5Ni43OTcgNDg4LjI3MiAyOTkuNSA0ODQuMDc0IDI5OC42NTVaTTUwOS44NDEgMjg2LjQ5MUM1MDkuODQxIDI4OS44NyA1MDcuMjA3IDI5Mi41NzMgNTAzLjk5NiAyOTIuNTczIDQ5My45NTMgMjkyLjU3MyA0OTMuOTUzIDI5Mi41NzMgNDkzLjk1MyAyOTIuNTczIDQ5NC44NTggMjg3LjkyNyA0OTEuODk1IDI4My4zNjUgNDg3LjM2NyAyODIuNDM2IDQ4NS4yMjYgMjgxLjkyOSA0ODMuMDg2IDI4Mi4zNTIgNDgxLjE5MyAyODMuNTM0IDQ4MS4xOTMgMjY5LjI1OCA0ODEuMTkzIDI2OS4yNTggNDgxLjE5MyAyNjkuMjU4IDQ4MS4xOTMgMjY1Ljg3OSA0ODMuOTA5IDI2My4xNzYgNDg3LjEyIDI2My4xNzYgNTAzLjk5NiAyNjMuMTc2IDUwMy45OTYgMjYzLjE3NiA1MDMuOTk2IDI2My4xNzYgNTA3LjIwNyAyNjMuMTc2IDUwOS44NDEgMjY1Ljg3OSA1MDkuODQxIDI2OS4yNThMNTA5Ljg0MSAyODYuNDkxWiIgc3Ryb2tlPSIjMDAwMDAwIiBzdHJva2Utd2lkdGg9IjAiIHN0cm9rZS1saW5lam9pbj0icm91bmQiIHN0cm9rZS1taXRlcmxpbWl0PSIxMCIgZmlsbD0iIzM3MzczNyIgZmlsbC1ydWxlPSJldmVub2RkIi8+PHBhdGggZD0iTTQ4NS41IDI5MC40NThDNDg1LjUgMjg5LjM1MSA0ODQuNjQzIDI4OC41IDQ4My41IDI4OC41IDQ4Mi4zNTcgMjg4LjUgNDgxLjUgMjg5LjM1MSA0ODEuNSAyOTAuNDU4IDQ4MS41IDI5MS41NjQgNDgyLjM1NyAyOTIuNSA0ODMuNSAyOTIuNSA0ODQuNjQzIDI5Mi41IDQ4NS41IDI5MS41NjQgNDg1LjUgMjkwLjQ1OFpNNDgzLjUgMjkxLjgxOUM0ODIuODMzIDI5MS44MTkgNDgyLjI2MiAyOTEuMjIzIDQ4Mi4yNjIgMjkwLjQ1OCA0ODIuMjYyIDI4OS43NzcgNDgyLjgzMyAyODkuMTgxIDQ4My41IDI4OS4xODEgNDg0LjE2NyAyODkuMTgxIDQ4NC43MzggMjg5Ljc3NyA0ODQuNzM4IDI5MC40NTggNDg0LjczOCAyOTEuMjIzIDQ4NC4xNjcgMjkxLjgxOSA0ODMuNSAyOTEuODE5WiIgc3Ryb2tlPSIjMDAwMDAwIiBzdHJva2Utd2lkdGg9IjAiIHN0cm9rZS1saW5lam9pbj0icm91bmQiIHN0cm9rZS1taXRlcmxpbWl0PSIxMCIgZmlsbD0iIzM3MzczNyIgZmlsbC1ydWxlPSJldmVub2RkIi8+PHBhdGggZD0iTTQ4NSAyOTQuNUM0ODQuNzUgMjk0LjUgNDg0LjUgMjk0LjYzMyA0ODQuNSAyOTQuNzY3IDQ4NC41IDI5Ni4yMzMgNDg0LjUgMjk2LjIzMyA0ODQuNSAyOTYuMjMzIDQ4NC41IDI5Ni4zNjcgNDg0Ljc1IDI5Ni41IDQ4NSAyOTYuNSA0ODUuMjUgMjk2LjUgNDg1LjUgMjk2LjM2NyA0ODUuNSAyOTYuMjMzIDQ4NS41IDI5NC43NjcgNDg1LjUgMjk0Ljc2NyA0ODUuNSAyOTQuNzY3IDQ4NS41IDI5NC42MzMgNDg1LjI1IDI5NC41IDQ4NSAyOTQuNVoiIHN0cm9rZT0iIzAwMDAwMCIgc3Ryb2tlLXdpZHRoPSIwIiBzdHJva2UtbGluZWpvaW49InJvdW5kIiBzdHJva2UtbWl0ZXJsaW1pdD0iMTAiIGZpbGw9IiMzNzM3MzciIGZpbGwtcnVsZT0iZXZlbm9kZCIvPjxwYXRoIGQ9Ik00ODcgMjk0LjVDNDg2Ljc1IDI5NC41IDQ4Ni41IDI5NC42MzMgNDg2LjUgMjk0Ljc2NyA0ODYuNSAyOTYuMjMzIDQ4Ni41IDI5Ni4yMzMgNDg2LjUgMjk2LjIzMyA0ODYuNSAyOTYuMzY3IDQ4Ni43NSAyOTYuNSA0ODcgMjk2LjUgNDg3LjI1IDI5Ni41IDQ4Ny41IDI5Ni4zNjcgNDg3LjUgMjk2LjIzMyA0ODcuNSAyOTQuNzY3IDQ4Ny41IDI5NC43NjcgNDg3LjUgMjk0Ljc2NyA0ODcuNSAyOTQuNjMzIDQ4Ny4yNSAyOTQuNSA0ODcgMjk0LjVaIiBzdHJva2U9IiMwMDAwMDAiIHN0cm9rZS13aWR0aD0iMCIgc3Ryb2tlLWxpbmVqb2luPSJyb3VuZCIgc3Ryb2tlLW1pdGVybGltaXQ9IjEwIiBmaWxsPSIjMzczNzM3IiBmaWxsLXJ1bGU9ImV2ZW5vZGQiLz48cGF0aCBkPSJNNDg3LjQ3IDI4NS4wMzdDNDg2LjIxNiAyODQuNSA0ODQuNzg0IDI4NC41IDQ4My41MyAyODUuMDM3IDQ4Mi4yNzYgMjg1LjU3NSA0ODAuMTI3IDI4Ni45MTggNDc5Ljc2OSAyODkuNzg0IDQ3OS41IDI5MS4zOTYgNDc5Ljc2OSAyOTIuNTYgNDgwLjU3NSAyOTMuNDU1IDQ4MS4yOTEgMjk0LjI2MSA0ODIuMTg3IDI5NC41MyA0ODIuNzI0IDI5NC41MyA0ODIuNzI0IDI5Ni4xNDIgNDgyLjcyNCAyOTYuMTQyIDQ4Mi43MjQgMjk2LjE0MiA0ODIuNzI0IDI5Ni40MTEgNDgyLjkwMyAyOTYuNSA0ODMuMDgyIDI5Ni41IDQ4My4yNjEgMjk2LjUgNDgzLjQ0IDI5Ni40MTEgNDgzLjQ0IDI5Ni4xNDIgNDgzLjQ0IDI5NC4yNjEgNDgzLjQ0IDI5NC4yNjEgNDgzLjQ0IDI5NC4yNjEgNDgzLjQ0IDI5NC4wODIgNDgzLjI2MSAyOTMuOTAzIDQ4My4wODIgMjkzLjkwMyA0ODMuMDgyIDI5My45MDMgNDgxLjgyOCAyOTMuOTAzIDQ4MS4xMTIgMjkzLjAwOCA0ODAuNDg1IDI5Mi4yOTEgNDgwLjMwNiAyOTEuMjE2IDQ4MC40ODUgMjg5Ljg3MyA0ODAuNzU0IDI4Ny4zNjYgNDgyLjYzNCAyODYuMjAyIDQ4My43OTkgMjg1LjY2NCA0ODQuODczIDI4NS4yMTYgNDg2LjEyNyAyODUuMjE2IDQ4Ny4yMDIgMjg1LjY2NCA0ODguMzY2IDI4Ni4yMDIgNDkwLjI0NiAyODcuMzY2IDQ5MC42MDUgMjg5Ljg3MyA0OTAuNjk0IDI5MS4yMTYgNDkwLjUxNSAyOTIuMjkxIDQ4OS44ODggMjkzLjAwOCA0ODkuMTcyIDI5My45MDMgNDg3LjkxOCAyOTMuOTAzIDQ4Ny45MTggMjkzLjkwMyA0ODcuOTE4IDI5My45MDMgNDg3LjkxOCAyOTMuOTAzIDQ4Ny45MTggMjkzLjkwMyA0ODcuODI4IDI5My45MDMgNDg3LjczOSAyOTMuOTAzIDQ4Ny42NDkgMjkzLjk5MyA0ODcuNjQ5IDI5NC4wODIgNDg3LjU2IDI5NC4xNzIgNDg3LjU2IDI5NC4yNjEgNDg3LjU2IDI5Ni4xNDIgNDg3LjU2IDI5Ni4xNDIgNDg3LjU2IDI5Ni4xNDIgNDg3LjU2IDI5Ni40MTEgNDg3LjczOSAyOTYuNSA0ODcuOTE4IDI5Ni41IDQ4OC4wOTcgMjk2LjUgNDg4LjI3NiAyOTYuNDExIDQ4OC4yNzYgMjk2LjE0MiA0ODguMjc2IDI5NC41MyA0ODguMjc2IDI5NC41MyA0ODguMjc2IDI5NC41MyA0ODguODE0IDI5NC41MyA0ODkuNzA5IDI5NC4yNjEgNDkwLjQyNSAyOTMuNDU1IDQ5MS4yMzEgMjkyLjU2IDQ5MS41IDI5MS4zOTYgNDkxLjIzMSAyODkuNzg0IDQ5MC44NzMgMjg2LjkxOCA0ODguNzI0IDI4NS41NzUgNDg3LjQ3IDI4NS4wMzdaIiBzdHJva2U9IiMwMDAwMDAiIHN0cm9rZS13aWR0aD0iMCIgc3Ryb2tlLWxpbmVqb2luPSJyb3VuZCIgc3Ryb2tlLW1pdGVybGltaXQ9IjEwIiBmaWxsPSIjMzczNzM3IiBmaWxsLXJ1bGU9ImV2ZW5vZGQiLz48cGF0aCBkPSJNNDg2LjUgMjkyLjczMUM0ODYuNSAyOTIuNDIzIDQ4NS44ODUgMjkxLjUgNDg1LjUgMjkxLjUgNDg1LjAzOSAyOTEuNSA0ODQuNSAyOTIuNDIzIDQ4NC41IDI5Mi43MzEgNDg0LjUgMjkzLjExNSA0ODQuODA4IDI5My41IDQ4NS4xOTIgMjkzLjUgNDg1LjM0NiAyOTMuNSA0ODUuNDIzIDI5My41IDQ4NS41IDI5My40MjMgNDg1LjU3NyAyOTMuNSA0ODUuNjU0IDI5My41IDQ4NS43MzEgMjkzLjUgNDg2LjE5MiAyOTMuNSA0ODYuNSAyOTMuMTE1IDQ4Ni41IDI5Mi43MzFaTTQ4NS43MzEgMjkyLjg4NUM0ODUuNzMxIDI5Mi44ODUgNDg1LjczMSAyOTIuODg1IDQ4NS43MzEgMjkyLjgwOCA0ODUuNjU0IDI5Mi44MDggNDg1LjU3NyAyOTIuNzMxIDQ4NS41IDI5Mi43MzEgNDg1LjQyMyAyOTIuNzMxIDQ4NS4zNDYgMjkyLjgwOCA0ODUuMjY5IDI5Mi44MDggNDg1LjI2OSAyOTIuODg1IDQ4NS4yNjkgMjkyLjg4NSA0ODUuMTkyIDI5Mi44ODUgNDg1LjE5MiAyOTIuODg1IDQ4NS4xMTUgMjkyLjgwOCA0ODUuMTE1IDI5Mi43MzEgNDg1LjExNSAyOTIuNjU0IDQ4NS4zNDYgMjkyLjM0NiA0ODUuNSAyOTIuMTkyIDQ4NS42NTQgMjkyLjM0NiA0ODUuODA4IDI5Mi42NTQgNDg1Ljg4NSAyOTIuNzMxIDQ4NS44ODUgMjkyLjgwOCA0ODUuODA4IDI5Mi44ODUgNDg1LjczMSAyOTIuODg1WiIgc3Ryb2tlPSIjMDAwMDAwIiBzdHJva2Utd2lkdGg9IjAiIHN0cm9rZS1saW5lam9pbj0icm91bmQiIHN0cm9rZS1taXRlcmxpbWl0PSIxMCIgZmlsbD0iIzM3MzczNyIgZmlsbC1ydWxlPSJldmVub2RkIi8+PHBhdGggZD0iTTQ4Ny41NDcgMjkyLjVDNDg4LjU3IDI5Mi41IDQ4OS41IDI5MS41NjQgNDg5LjUgMjkwLjQ1OCA0ODkuNSAyODkuMzUxIDQ4OC41NyAyODguNSA0ODcuNTQ3IDI4OC41IDQ4Ni40MyAyODguNSA0ODUuNSAyODkuMzUxIDQ4NS41IDI5MC40NTggNDg1LjUgMjkxLjU2NCA0ODYuNDMgMjkyLjUgNDg3LjU0NyAyOTIuNVpNNDg3LjU0NyAyODkuMTgxQzQ4OC4xOTggMjg5LjE4MSA0ODguNzU2IDI4OS43NzcgNDg4Ljc1NiAyOTAuNDU4IDQ4OC43NTYgMjkxLjIyMyA0ODguMTk4IDI5MS44MTkgNDg3LjU0NyAyOTEuODE5IDQ4Ni44MDIgMjkxLjgxOSA0ODYuMjQ0IDI5MS4yMjMgNDg2LjI0NCAyOTAuNDU4IDQ4Ni4yNDQgMjg5Ljc3NyA0ODYuODAyIDI4OS4xODEgNDg3LjU0NyAyODkuMTgxWiIgc3Ryb2tlPSIjMDAwMDAwIiBzdHJva2Utd2lkdGg9IjAiIHN0cm9rZS1saW5lam9pbj0icm91bmQiIHN0cm9rZS1taXRlcmxpbWl0PSIxMCIgZmlsbD0iIzM3MzczNyIgZmlsbC1ydWxlPSJldmVub2RkIi8+PC9nPjwvc3ZnPg==;" vertex="1" parent="1">
                    <mxGeometry x="240.36" y="242" width="35" height="38" as="geometry"/>
                </mxCell>
                <mxCell id="6" value="" style="shape=image;verticalLabelPosition=bottom;labelBackgroundColor=#ffffff;verticalAlign=top;aspect=fixed;imageAspect=0;image=data:image/svg+xml,PHN2ZyB4bWxucz0iaHR0cDovL3d3dy53My5vcmcvMjAwMC9zdmciIHhtbG5zOnhsaW5rPSJodHRwOi8vd3d3LnczLm9yZy8xOTk5L3hsaW5rIiB3aWR0aD0iMzMiIGhlaWdodD0iMzUiIG92ZXJmbG93PSJoaWRkZW4iIHZpZXdCb3g9IjAgMCAzMyAzNSI+PGRlZnM+PGNsaXBQYXRoIGlkPSJjbGlwMCI+PHJlY3QgeD0iNDEyIiB5PSIxOTEiIHdpZHRoPSIzMyIgaGVpZ2h0PSIzNSIvPjwvY2xpcFBhdGg+PC9kZWZzPjxnIGNsaXAtcGF0aD0idXJsKCNjbGlwMCkiIHRyYW5zZm9ybT0idHJhbnNsYXRlKC00MTIgLTE5MSkiPjxwYXRoIGQ9Ik00MjYuMzQgMjE0Ljc0N0M0MjYuMzQgMjE0Ljc0NyA0MjYuMzQgMjE0Ljc0NyA0MjYuMzQgMjE0Ljc0NyA0MjYuMzQgMjE0Ljc0NyA0MjYuMzQgMjE0Ljc0NyA0MjYuMzQgMjE0Ljc0NyA0MjYuMjYzIDIxNC42NzUgNDI2LjI2MyAyMTQuNjAzIDQyNi4xODYgMjE0LjYwMyA0MjUuMTAzIDIxMy4wMTYgNDIzLjMyNSAyMTIuMDA1IDQyMS4zOTIgMjExLjY0NCA0MjEuMzkyIDIxMS42NDQgNDIxLjM5MiAyMTEuNjQ0IDQyMS4zOTIgMjExLjY0NCA0MjEuMzE0IDIxMS41NzIgNDIxLjMxNCAyMTEuNTcyIDQyMS4zMTQgMjExLjU3MiA0MjEuMzE0IDIxMS41NzIgNDIxLjMxNCAyMTEuNTcyIDQyMS4zMTQgMjExLjU3MiA0MjEuMzE0IDIxMS41NzIgNDIxLjMxNCAyMTEuNTcyIDQyMS4zMTQgMjExLjU3MiA0MjEuMDA1IDIxMS41NzIgNDIwLjYxOSAyMTEuNSA0MjAuMzA5IDIxMS41IDQyMC4wNzcgMjExLjUgNDE5Ljg0NSAyMTEuNSA0MTkuNjkxIDIxMS41IDQxOS42MTMgMjExLjUgNDE5LjYxMyAyMTEuNSA0MTkuNjEzIDIxMS41IDQxOS42MTMgMjExLjUgNDE5LjYxMyAyMTEuNSA0MTkuNjEzIDIxMS41IDQxOS4zMDQgMjExLjUgNDE4LjkxOCAyMTEuNTcyIDQxOC42MDggMjExLjU3MiA0MTYuNjc1IDIxMS45MzMgNDE0Ljk3NCAyMTIuOTQzIDQxMy44OTIgMjE0LjQ1OSA0MTMuNzM3IDIxNC41MzEgNDEzLjY2IDIxNC42NzUgNDEzLjU4MyAyMTQuNzQ3IDQxMy41ODMgMjE0Ljc0NyA0MTMuNTgzIDIxNC43NDcgNDEzLjU4MyAyMTQuNzQ3IDQxMi44ODcgMjE1LjkwMiA0MTIuNSAyMTcuMjAxIDQxMi41IDIxOC41IDQxMi41IDIxOS43OTkgNDEyLjg4NyAyMjEuMDk4IDQxMy41ODMgMjIyLjE4IDQxNC42NjUgMjIzLjc2OCA0MTYuMzY2IDIyNC45MjMgNDE4LjI5OSAyMjUuMjg0IDQxOC4yOTkgMjI1LjI4NCA0MTguMjk5IDIyNS4yODQgNDE4LjI5OSAyMjUuMjg0IDQxOC4zNzYgMjI1LjI4NCA0MTguMzc2IDIyNS4yODQgNDE4LjM3NiAyMjUuMjg0IDQxOC4zNzYgMjI1LjM1NiA0MTguNDU0IDIyNS4zNTYgNDE4LjQ1NCAyMjUuMzU2IDQxOC43NjMgMjI1LjQyOCA0MTkuMDcyIDIyNS40MjggNDE5LjQ1OSAyMjUuNDI4IDQxOS42MTMgMjI1LjUgNDE5Ljc2OCAyMjUuNSA0MjAgMjI1LjUgNDIwLjE1NSAyMjUuNSA0MjAuMzA5IDIyNS41IDQyMC40NjQgMjI1LjQyOCA0MjAuODUxIDIyNS40MjggNDIxLjIzNyAyMjUuMzU2IDQyMS42MjQgMjI1LjI4NCA0MjEuNjI0IDIyNS4yODQgNDIxLjYyNCAyMjUuMjg0IDQyMS42MjQgMjI1LjI4NCA0MjEuNjI0IDIyNS4yODQgNDIxLjYyNCAyMjUuMjg0IDQyMS42MjQgMjI1LjI4NCA0MjEuNjI0IDIyNS4yODQgNDIxLjcwMSAyMjUuMjg0IDQyMS43MDEgMjI1LjI4NCA0MjMuNTU3IDIyNC44NTEgNDI1LjI1OCAyMjMuNzY4IDQyNi4zNCAyMjIuMTggNDI3LjAzNiAyMjEuMDk4IDQyNy41IDIxOS43OTkgNDI3LjUgMjE4LjUgNDI3LjUgMjE3LjIwMSA0MjcuMDM2IDIxNS45MDIgNDI2LjM0IDIxNC43NDdaTTQyMy44NjYgMjIxLjA5OEM0MjMuNzExIDIyMS4wOTggNDIzLjU1NyAyMjEuMDI2IDQyMy4zMjUgMjIxLjAyNiA0MjMuMzI1IDIyMS4wMjYgNDIzLjMyNSAyMjEuMDI2IDQyMy4zMjUgMjIxLjAyNiA0MjMuMTcgMjIwLjk1NCA0MjIuOTM4IDIyMC45NTQgNDIyLjc4NCAyMjAuOTU0IDQyMi43MDYgMjIwLjk1NCA0MjIuNjI5IDIyMC45NTQgNDIyLjU1MiAyMjAuODgxIDQyMi40NzQgMjIwLjg4MSA0MjIuMzk3IDIyMC44ODEgNDIyLjMyIDIyMC44ODEgNDIyLjMyIDIyMC44ODEgNDIyLjMyIDIyMC44MDkgNDIyLjM5NyAyMjAuODA5IDQyMi4zOTcgMjIwLjQ0OSA0MjIuMzk3IDIyMC4xNiA0MjIuNDc0IDIxOS44NzEgNDIyLjQ3NCAyMTkuODcxIDQyMi40NzQgMjE5Ljc5OSA0MjIuNDc0IDIxOS43OTkgNDIyLjQ3NCAyMTkuNTEgNDIyLjQ3NCAyMTkuMjIyIDQyMi40NzQgMjE4Ljg2MSA0MjIuNDc0IDIxOC44NjEgNDIyLjQ3NCAyMTguNzg5IDQyMi40NzQgMjE4Ljc4OSA0MjQuNjM5IDIxOC43ODkgNDI0LjYzOSAyMTguNzg5IDQyNC42MzkgMjE4Ljc4OSA0MjQuNjM5IDIxOC44NjEgNDI0LjYzOSAyMTkuMDA1IDQyNC42MzkgMjE5LjE1IDQyNC42MzkgMjE5LjE1IDQyNC42MzkgMjE5LjIyMiA0MjQuNTYyIDIxOS4yOTQgNDI0LjU2MiAyMTkuNTgzIDQyNC41NjIgMjE5Ljc5OSA0MjQuNDg1IDIyMC4wMTYgNDI0LjQ4NSAyMjAuMDE2IDQyNC40ODUgMjIwLjAxNiA0MjQuNDg1IDIyMC4wMTYgNDI0LjQ4NSAyMjAuMjMyIDQyNC40MDcgMjIwLjQ0OSA0MjQuNDA3IDIyMC42NjUgNDI0LjMzIDIyMC43MzcgNDI0LjMzIDIyMC44MDkgNDI0LjMzIDIyMC44ODEgNDI0LjI1MyAyMjAuOTU0IDQyNC4yNTMgMjIxLjA5OCA0MjQuMjUzIDIyMS4xNyA0MjQuMTc1IDIyMS4xNyA0MjQuMDk4IDIyMS4xNyA0MjQuMDIxIDIyMS4xNyA0MjQuMDIxIDIyMS4wOTggNDIzLjk0MyAyMjEuMDk4IDQyMy44NjYgMjIxLjA5OFpNNDIwLjU0MSAyMjAuODA5QzQyMC40NjQgMjIwLjgwOSA0MjAuMzA5IDIyMC44MDkgNDIwLjIzMiAyMjAuODA5IDQyMC4wNzcgMjIwLjgwOSA0MTkuODQ1IDIyMC44MDkgNDE5LjY5MSAyMjAuODA5IDQxOS42MTMgMjIwLjgwOSA0MTkuNDU5IDIyMC44MDkgNDE5LjM4MiAyMjAuODA5IDQxOS4xNSAyMjAuODA5IDQxOC45OTUgMjIwLjgwOSA0MTguODQgMjIwLjgwOSA0MTguNzYzIDIyMC44MDkgNDE4LjYwOCAyMjAuODA5IDQxOC41MzEgMjIwLjgwOSA0MTguMzc2IDIyMC44MDkgNDE4LjI5OSAyMjAuODA5IDQxOC4yMjIgMjIwLjgwOSA0MTguMjIyIDIyMC44MDkgNDE4LjIyMiAyMjAuNzM3IDQxOC4yMjIgMjIwLjczNyA0MTguMTQ0IDIyMC40NDkgNDE4LjE0NCAyMjAuMTYgNDE4LjA2NyAyMTkuNzk5IDQxOC4wNjcgMjE5Ljc5OSA0MTguMDY3IDIxOS43OTkgNDE4LjA2NyAyMTkuNzk5IDQxOC4wNjcgMjE5LjUxIDQxOC4wNjcgMjE5LjIyMiA0MTguMDY3IDIxOC44NjEgNDE4LjA2NyAyMTguODYxIDQxOC4wNjcgMjE4Ljc4OSA0MTguMDY3IDIxOC43ODkgNDIxLjg1NiAyMTguNzg5IDQyMS44NTYgMjE4Ljc4OSA0MjEuODU2IDIxOC43ODkgNDIxLjg1NiAyMTguNzg5IDQyMS44NTYgMjE4Ljg2MSA0MjEuODU2IDIxOC44NjEgNDIxLjg1NiAyMTkuMjIyIDQyMS44NTYgMjE5LjUxIDQyMS44NTYgMjE5Ljc5OSA0MjEuODU2IDIxOS43OTkgNDIxLjg1NiAyMTkuNzk5IDQyMS44NTYgMjE5Ljc5OSA0MjEuNzc4IDIyMC4xNiA0MjEuNzc4IDIyMC40NDkgNDIxLjc3OCAyMjAuNzM3IDQyMS43NzggMjIwLjczNyA0MjEuNzAxIDIyMC44MDkgNDIxLjcwMSAyMjAuODA5IDQyMS42MjQgMjIwLjgwOSA0MjEuNDY5IDIyMC44MDkgNDIxLjM5MiAyMjAuODA5IDQyMS4wODMgMjIwLjgwOSA0MjAuODUxIDIyMC44MDkgNDIwLjU0MSAyMjAuODA5Wk00MTcuMTM5IDIyMC45NTRDNDE2Ljk4NSAyMjAuOTU0IDQxNi43NTMgMjIwLjk1NCA0MTYuNTk4IDIyMS4wMjYgNDE2LjU5OCAyMjEuMDI2IDQxNi41OTggMjIxLjAyNiA0MTYuNTk4IDIyMS4wMjYgNDE2LjM2NiAyMjEuMDI2IDQxNi4yMTEgMjIxLjA5OCA0MTYuMDU3IDIyMS4wOTggNDE1Ljk3OSAyMjEuMDk4IDQxNS45NzkgMjIxLjA5OCA0MTUuOTAyIDIyMS4xNyA0MTUuODI1IDIyMS4xNyA0MTUuNzQ3IDIyMS4xNyA0MTUuNjcgMjIxLjE3IDQxNS42NyAyMjEuMDk4IDQxNS42NyAyMjAuOTU0IDQxNS41OTMgMjIwLjg4MSA0MTUuNTkzIDIyMC44MDkgNDE1LjU5MyAyMjAuNzM3IDQxNS41OTMgMjIwLjY2NSA0MTUuNTE2IDIyMC40NDkgNDE1LjQzOCAyMjAuMjMyIDQxNS40MzggMjIwLjAxNiA0MTUuNDM4IDIyMC4wMTYgNDE1LjQzOCAyMjAuMDE2IDQxNS40MzggMjIwLjAxNiA0MTUuMzYxIDIxOS43OTkgNDE1LjM2MSAyMTkuNTgzIDQxNS4zNjEgMjE5LjI5NCA0MTUuMzYxIDIxOS4yMjIgNDE1LjM2MSAyMTkuMTUgNDE1LjI4NCAyMTkuMTUgNDE1LjI4NCAyMTkuMDA1IDQxNS4yODQgMjE4Ljg2MSA0MTUuMjg0IDIxOC43ODkgNDE3LjQ0OSAyMTguNzg5IDQxNy40NDkgMjE4Ljc4OSA0MTcuNDQ5IDIxOC43ODkgNDE3LjQ0OSAyMTguNzg5IDQxNy40NDkgMjE4Ljg2MSA0MTcuNDQ5IDIxOC44NjEgNDE3LjQ0OSAyMTkuMjIyIDQxNy40NDkgMjE5LjUxIDQxNy40NDkgMjE5Ljc5OSA0MTcuNDQ5IDIxOS43OTkgNDE3LjQ0OSAyMTkuODcxIDQxNy40NDkgMjE5Ljg3MSA0MTcuNTI2IDIyMC4xNiA0MTcuNTI2IDIyMC40NDkgNDE3LjYwMyAyMjAuODA5IDQxNy42MDMgMjIwLjgwOSA0MTcuNjAzIDIyMC44ODEgNDE3LjYwMyAyMjAuODgxIDQxNy41MjYgMjIwLjg4MSA0MTcuNDQ5IDIyMC44ODEgNDE3LjM3MSAyMjAuODgxIDQxNy4yOTQgMjIwLjk1NCA0MTcuMjE3IDIyMC45NTQgNDE3LjEzOSAyMjAuOTU0Wk00MTYuMjExIDIxNC42NzVDNDE2LjI4OSAyMTQuNTMxIDQxNi4zNjYgMjE0LjM4NyA0MTYuNDQzIDIxNC4yNDIgNDE2LjQ0MyAyMTQuMTcgNDE2LjUyMSAyMTQuMTcgNDE2LjUyMSAyMTQuMDk4IDQxNi41OTggMjE0LjAyNiA0MTYuNjc1IDIxMy44ODEgNDE2Ljc1MyAyMTMuODA5IDQxNi43NTMgMjEzLjczNyA0MTYuNzUzIDIxMy43MzcgNDE2LjgzIDIxMy42NjUgNDE2LjkwNyAyMTMuNTkzIDQxNi45ODUgMjEzLjUyMSA0MTYuOTg1IDIxMy40NDkgNDE3LjA2MiAyMTMuMzc2IDQxNy4wNjIgMjEzLjMwNCA0MTcuMTM5IDIxMy4zMDQgNDE3LjIxNyAyMTMuMjMyIDQxNy4yOTQgMjEzLjE2IDQxNy4yOTQgMjEzLjA4OCA0MTcuMzcxIDIxMy4wMTYgNDE3LjQ0OSAyMTMuMDE2IDQxNy40NDkgMjEyLjk0MyA0MTcuNTI2IDIxMi44NzEgNDE3LjYwMyAyMTIuODcxIDQxNy42OCAyMTIuNzk5IDQxNy43NTggMjEyLjcyNyA0MTcuNzU4IDIxMi43MjcgNDE3LjgzNSAyMTIuNjU1IDQxNy45MTIgMjEyLjY1NSA0MTcuOTkgMjEyLjU4MyA0MTcuOTkgMjEyLjUxIDQxOC4wNjcgMjEyLjUxIDQxOC4xNDQgMjEyLjQzOCA0MTguMjIyIDIxMi40MzggNDE4LjIyMiAyMTIuMzY2IDQxOC4yOTkgMjEyLjM2NiA0MTguMzc2IDIxMi4yOTQgNDE4LjQ1NCAyMTIuMjk0IDQxOC41MzEgMjEyLjI5NCA0MTguNTMxIDIxMi4yMjIgNDE4LjYwOCAyMTIuMjIyIDQxOC42ODYgMjEyLjE1IDQxOC43NjMgMjEyLjE1IDQxOC43NjMgMjEyLjE1IDQxOC43NjMgMjEyLjE1IDQxOC43NjMgMjEyLjE1IDQxOC43NjMgMjEyLjE1IDQxOC43NjMgMjEyLjE1IDQxOC43NjMgMjEyLjE1IDQxOC43NjMgMjEyLjIyMiA0MTguNjg2IDIxMi4yOTQgNDE4LjY4NiAyMTIuMzY2IDQxOC42MDggMjEyLjQzOCA0MTguNjA4IDIxMi40MzggNDE4LjYwOCAyMTIuNDM4IDQxOC42MDggMjEyLjUxIDQxOC41MzEgMjEyLjU4MyA0MTguNTMxIDIxMi42NTUgNDE4LjUzMSAyMTIuNjU1IDQxOC40NTQgMjEyLjY1NSA0MTguNDU0IDIxMi43MjcgNDE4LjQ1NCAyMTIuNzk5IDQxOC4zNzYgMjEyLjg3MSA0MTguMzc2IDIxMi45NDMgNDE4LjM3NiAyMTIuOTQzIDQxOC4zNzYgMjEzLjAxNiA0MTguMjk5IDIxMy4wMTYgNDE4LjI5OSAyMTMuMDg4IDQxOC4yOTkgMjEzLjE2IDQxOC4yMjIgMjEzLjIzMiA0MTguMjIyIDIxMy4yMzIgNDE4LjIyMiAyMTMuMzA0IDQxOC4yMjIgMjEzLjMwNCA0MTguMTQ0IDIxMy4zNzYgNDE4LjE0NCAyMTMuNDQ5IDQxOC4xNDQgMjEzLjUyMSA0MTguMTQ0IDIxMy41OTMgNDE4LjE0NCAyMTMuNTkzIDQxOC4xNDQgMjEzLjU5MyA0MTguMDY3IDIxMy42NjUgNDE4LjA2NyAyMTMuODA5IDQxNy45OSAyMTMuODgxIDQxNy45OSAyMTMuODgxIDQxNy45OSAyMTMuOTU0IDQxNy45OSAyMTMuOTU0IDQxNy45OSAyMTQuMDI2IDQxNy45OSAyMTQuMDk4IDQxNy45MTIgMjE0LjE3IDQxNy45MTIgMjE0LjE3IDQxNy45MTIgMjE0LjI0MiA0MTcuOTEyIDIxNC4yNDIgNDE3LjkxMiAyMTQuMzE0IDQxNy45MTIgMjE0LjQ1OSA0MTcuODM1IDIxNC41MzEgNDE3LjgzNSAyMTQuNjc1IDQxNy43NTggMjE0Ljg5MiA0MTcuNzU4IDIxNS4xMDggNDE3Ljc1OCAyMTUuMTA4IDQxNy43NTggMjE1LjE4IDQxNy42OCAyMTUuMjUzIDQxNy42OCAyMTUuMzI1IDQxNy42OCAyMTUuMzk3IDQxNy42OCAyMTUuNDY5IDQxNy42MDMgMjE1LjQ2OSA0MTcuNjAzIDIxNS40NjkgNDE3LjUyNiAyMTUuNDY5IDQxNy4yOTQgMjE1LjQ2OSA0MTcuMDYyIDIxNS40NjkgNDE2LjgzIDIxNS4zOTcgNDE2LjgzIDIxNS4zOTcgNDE2Ljc1MyAyMTUuMzk3IDQxNi43NTMgMjE1LjM5NyA0MTYuNTIxIDIxNS4zMjUgNDE2LjIxMSAyMTUuMzI1IDQxNS45NzkgMjE1LjI1MyA0MTUuOTc5IDIxNS4yNTMgNDE1Ljk3OSAyMTUuMjUzIDQxNS45MDIgMjE1LjI1MyA0MTUuOTAyIDIxNS4yNTMgNDE1LjkwMiAyMTUuMTggNDE1Ljk3OSAyMTUuMTggNDE2LjA1NyAyMTUuMDM2IDQxNi4xMzQgMjE0LjgyIDQxNi4yMTEgMjE0LjY3NVpNNDE5LjMwNCAyMTYuMTkxQzQxOS4zMDQgMjE2LjE5MSA0MTkuMzgyIDIxNi4xOTEgNDE5LjQ1OSAyMTYuMTkxIDQxOS42MTMgMjE2LjE5MSA0MTkuNzY4IDIxNi4xOTEgNDIwIDIxNi4xOTEgNDIwIDIxNi4xOTEgNDIwIDIxNi4xOTEgNDIwIDIxNi4xOTEgNDIwLjE1NSAyMTYuMTkxIDQyMC4zMDkgMjE2LjE5MSA0MjAuMzg3IDIxNi4xOTEgNDIwLjU0MSAyMTYuMTkxIDQyMC42OTYgMjE2LjE5MSA0MjAuODUxIDIxNi4xOTEgNDIxLjA4MyAyMTYuMTkxIDQyMS4zMTQgMjE2LjExOSA0MjEuNjI0IDIxNi4xMTkgNDIxLjYyNCAyMTYuMTE5IDQyMS43MDEgMjE2LjExOSA0MjEuNzAxIDIxNi4xMTkgNDIxLjcwMSAyMTYuMTkxIDQyMS43MDEgMjE2LjE5MSA0MjEuNzAxIDIxNi4yNjMgNDIxLjc3OCAyMTYuNTUyIDQyMS43NzggMjE2Ljg0IDQyMS44NTYgMjE3LjEyOSA0MjEuODU2IDIxNy4xMjkgNDIxLjg1NiAyMTcuMTI5IDQyMS44NTYgMjE3LjEyOSA0MjEuODU2IDIxNy40OSA0MjEuODU2IDIxNy43NzggNDIxLjg1NiAyMTguMDY3IDQyMS44NTYgMjE4LjEzOSA0MjEuODU2IDIxOC4xMzkgNDIxLjg1NiAyMTguMjExIDQxOC4wNjcgMjE4LjIxMSA0MTguMDY3IDIxOC4yMTEgNDE4LjA2NyAyMTguMjExIDQxOC4wNjcgMjE4LjEzOSA0MTguMDY3IDIxOC4xMzkgNDE4LjA2NyAyMTguMDY3IDQxOC4wNjcgMjE3LjQxOCA0MTguMTQ0IDIxNi44NCA0MTguMjIyIDIxNi4yNjMgNDE4LjIyMiAyMTYuMTkxIDQxOC4yMjIgMjE2LjE5MSA0MTguMjIyIDIxNi4xMTkgNDE4LjI5OSAyMTYuMTE5IDQxOC40NTQgMjE2LjExOSA0MTguNTMxIDIxNi4xMTkgNDE4Ljc2MyAyMTYuMTkxIDQxOC45OTUgMjE2LjE5MSA0MTkuMzA0IDIxNi4xOTFaTTQyMS45MzMgMjE0LjAyNkM0MjEuOTMzIDIxNC4wMjYgNDIxLjkzMyAyMTQuMDI2IDQyMS45MzMgMjE0LjAyNiA0MjEuOTMzIDIxMy45NTQgNDIxLjg1NiAyMTMuODgxIDQyMS44NTYgMjEzLjczNyA0MjEuODU2IDIxMy43MzcgNDIxLjg1NiAyMTMuNzM3IDQyMS44NTYgMjEzLjczNyA0MjEuNzc4IDIxMy41OTMgNDIxLjc3OCAyMTMuNTIxIDQyMS43NzggMjEzLjM3NiA0MjEuNzc4IDIxMy4zNzYgNDIxLjcwMSAyMTMuMzc2IDQyMS43MDEgMjEzLjM3NiA0MjEuNzAxIDIxMy4zMDQgNDIxLjcwMSAyMTMuMTYgNDIxLjYyNCAyMTMuMDg4IDQyMS42MjQgMjEzLjA4OCA0MjEuNjI0IDIxMy4wODggNDIxLjYyNCAyMTMuMDE2IDQyMS41NDYgMjEyLjk0MyA0MjEuNTQ2IDIxMi44NzEgNDIxLjQ2OSAyMTIuNzI3IDQyMS40NjkgMjEyLjcyNyA0MjEuNDY5IDIxMi43MjcgNDIxLjQ2OSAyMTIuNzI3IDQyMS4zOTIgMjEyLjY1NSA0MjEuMzkyIDIxMi41ODMgNDIxLjMxNCAyMTIuNTEgNDIxLjMxNCAyMTIuNDM4IDQyMS4zMTQgMjEyLjQzOCA0MjEuMzE0IDIxMi40MzggNDIxLjIzNyAyMTIuMjk0IDQyMS4xNiAyMTIuMjIyIDQyMS4xNiAyMTIuMTUgNDIxLjE2IDIxMi4xNSA0MjEuMTYgMjEyLjE1IDQyMS4xNiAyMTIuMTUgNDIxLjE2IDIxMi4xNSA0MjEuMTYgMjEyLjE1IDQyMS4xNiAyMTIuMTUgNDIxLjIzNyAyMTIuMjIyIDQyMS4zMTQgMjEyLjIyMiA0MjEuMzkyIDIxMi4yMjIgNDIxLjQ2OSAyMTIuMjk0IDQyMS40NjkgMjEyLjI5NCA0MjEuNTQ2IDIxMi4zNjYgNDIxLjYyNCAyMTIuMzY2IDQyMS43MDEgMjEyLjQzOCA0MjEuNzc4IDIxMi40MzggNDIxLjg1NiAyMTIuNTEgNDIxLjg1NiAyMTIuNTEgNDIxLjkzMyAyMTIuNTgzIDQyMi4wMSAyMTIuNTgzIDQyMi4wODggMjEyLjY1NSA0MjIuMTY1IDIxMi43MjcgNDIyLjE2NSAyMTIuNzI3IDQyMi4yNDIgMjEyLjc5OSA0MjIuMzIgMjEyLjc5OSA0MjIuMzk3IDIxMi44NzEgNDIyLjM5NyAyMTIuOTQzIDQyMi40NzQgMjEzLjAxNiA0MjIuNTUyIDIxMy4wMTYgNDIyLjYyOSAyMTMuMDg4IDQyMi42MjkgMjEzLjE2IDQyMi43MDYgMjEzLjIzMiA0MjIuNzg0IDIxMy4zMDQgNDIyLjg2MSAyMTMuMzA0IDQyMi44NjEgMjEzLjM3NiA0MjIuOTM4IDIxMy40NDkgNDIzLjAxNiAyMTMuNTIxIDQyMy4wMTYgMjEzLjU5MyA0MjMuMDkzIDIxMy42NjUgNDIzLjE3IDIxMy43MzcgNDIzLjE3IDIxMy44MDkgNDIzLjI0NyAyMTMuODA5IDQyMy4yNDcgMjEzLjg4MSA0MjMuMzI1IDIxMy45NTQgNDIzLjQwMiAyMTQuMDI2IDQyMy40MDIgMjE0LjA5OCA0MjMuNDc5IDIxNC4xNyA0MjMuNTU3IDIxNC4yNDIgNDIzLjU1NyAyMTQuMzE0IDQyMy41NTcgMjE0LjM4NyA0MjMuNjM0IDIxNC4zODcgNDIzLjYzNCAyMTQuNDU5IDQyMy43MTEgMjE0LjUzMSA0MjMuNzg5IDIxNC42NzUgNDIzLjc4OSAyMTQuODIgNDIzLjg2NiAyMTQuODkyIDQyMy45NDMgMjE1LjAzNiA0MjQuMDIxIDIxNS4xOCA0MjQuMDIxIDIxNS4yNTMgNDI0LjAyMSAyMTUuMjUzIDQyNC4wMjEgMjE1LjI1MyA0MjQuMDIxIDIxNS4yNTMgNDIzLjk0MyAyMTUuMjUzIDQyMy45NDMgMjE1LjI1MyA0MjMuNzExIDIxNS4zMjUgNDIzLjQ3OSAyMTUuMzI1IDQyMy4xNyAyMTUuMzk3IDQyMy4xNyAyMTUuMzk3IDQyMy4wOTMgMjE1LjM5NyA0MjMuMDkzIDIxNS4zOTcgNDIyLjg2MSAyMTUuNDY5IDQyMi42MjkgMjE1LjQ2OSA0MjIuMzk3IDIxNS40NjkgNDIyLjMyIDIxNS40NjkgNDIyLjMyIDIxNS40NjkgNDIyLjI0MiAyMTUuNDY5IDQyMi4yNDIgMjE1LjM5NyA0MjIuMjQyIDIxNS4zMjUgNDIyLjI0MiAyMTUuMzI1IDQyMi4yNDIgMjE1LjI1MyA0MjIuMjQyIDIxNS4xOCA0MjIuMTY1IDIxNS4xOCA0MjIuMTY1IDIxNC45NjQgNDIyLjE2NSAyMTQuODIgNDIyLjA4OCAyMTQuNjc1IDQyMi4wODggMjE0LjY3NSA0MjIuMDg4IDIxNC42NzUgNDIyLjA4OCAyMTQuNjc1IDQyMi4wODggMjE0LjY3NSA0MjIuMDg4IDIxNC42NzUgNDIyLjA4OCAyMTQuNjc1IDQyMi4wODggMjE0LjY3NSA0MjIuMDg4IDIxNC42NzUgNDIyLjA4OCAyMTQuNjc1IDQyMi4wODggMjE0LjY3NSA0MjIuMDg4IDIxNC42MDMgNDIyLjA4OCAyMTQuNjAzIDQyMi4wODggMjE0LjYwMyA0MjIuMDg4IDIxNC42MDMgNDIyLjA4OCAyMTQuNjAzIDQyMi4wODggMjE0LjUzMSA0MjIuMDg4IDIxNC40NTkgNDIyLjAxIDIxNC4zODcgNDIyLjAxIDIxNC4zODcgNDIyLjAxIDIxNC4zMTQgNDIyLjAxIDIxNC4zMTQgNDIyLjAxIDIxNC4yNDIgNDIyLjAxIDIxNC4xNyA0MjEuOTMzIDIxNC4wMjZaTTQyMi40NzQgMjE4LjIxMUM0MjIuNDc0IDIxOC4xMzkgNDIyLjQ3NCAyMTguMTM5IDQyMi40NzQgMjE4LjA2NyA0MjIuNDc0IDIxNy43NzggNDIyLjQ3NCAyMTcuNDE4IDQyMi40NzQgMjE3LjEyOSA0MjIuNDc0IDIxNy4xMjkgNDIyLjQ3NCAyMTcuMTI5IDQyMi40NzQgMjE3LjEyOSA0MjIuMzk3IDIxNi43NjggNDIyLjM5NyAyMTYuNDc5IDQyMi4zMiAyMTYuMTkxIDQyMi4zMiAyMTYuMTE5IDQyMi4zMiAyMTYuMTE5IDQyMi4zMiAyMTYuMDQ2IDQyMi4zOTcgMjE2LjA0NiA0MjIuNDc0IDIxNi4wNDYgNDIyLjU1MiAyMTYuMDQ2IDQyMi42MjkgMjE2LjA0NiA0MjIuNzA2IDIxNi4wNDYgNDIyLjcwNiAyMTYuMDQ2IDQyMi45MzggMjE1Ljk3NCA0MjMuMDkzIDIxNS45NzQgNDIzLjMyNSAyMTUuOTc0IDQyMy4zMjUgMjE1Ljk3NCA0MjMuMzI1IDIxNS45NzQgNDIzLjMyNSAyMTUuOTc0IDQyMy40NzkgMjE1LjkwMiA0MjMuNzExIDIxNS45MDIgNDIzLjg2NiAyMTUuODMgNDIzLjk0MyAyMTUuODMgNDIzLjk0MyAyMTUuODMgNDI0LjAyMSAyMTUuODMgNDI0LjA5OCAyMTUuODMgNDI0LjE3NSAyMTUuODMgNDI0LjE3NSAyMTUuODMgNDI0LjI1MyAyMTUuOTAyIDQyNC4yNTMgMjE1Ljk3NCA0MjQuMzMgMjE2LjExOSA0MjQuMzMgMjE2LjE5MSA0MjQuMzMgMjE2LjI2MyA0MjQuMzMgMjE2LjMzNSA0MjQuNDA3IDIxNi41NTIgNDI0LjQ4NSAyMTYuNzY4IDQyNC40ODUgMjE2Ljk4NSA0MjQuNDg1IDIxNi45ODUgNDI0LjQ4NSAyMTYuOTg1IDQyNC40ODUgMjE2Ljk4NSA0MjQuNTYyIDIxNy4yMDEgNDI0LjU2MiAyMTcuNDE4IDQyNC41NjIgMjE3LjYzNCA0MjQuNTYyIDIxNy43MDYgNDI0LjU2MiAyMTcuNzc4IDQyNC42MzkgMjE3Ljg1MSA0MjQuNjM5IDIxNy45OTUgNDI0LjYzOSAyMTguMDY3IDQyNC42MzkgMjE4LjIxMUw0MjIuNDc0IDIxOC4yMTFaTTQxNS4zNjEgMjE3LjYzNEM0MTUuMzYxIDIxNy40MTggNDE1LjM2MSAyMTcuMjAxIDQxNS40MzggMjE2Ljk4NSA0MTUuNDM4IDIxNi45ODUgNDE1LjQzOCAyMTYuOTg1IDQxNS40MzggMjE2Ljk4NSA0MTUuNDM4IDIxNi43NjggNDE1LjUxNiAyMTYuNTUyIDQxNS41OTMgMjE2LjMzNSA0MTUuNTkzIDIxNi4yNjMgNDE1LjU5MyAyMTYuMTkxIDQxNS41OTMgMjE2LjExOSA0MTUuNjcgMjE1Ljk3NCA0MTUuNjcgMjE1LjkwMiA0MTUuNzQ3IDIxNS44MyA0MTUuNzQ3IDIxNS44MyA0MTUuODI1IDIxNS44MyA0MTUuOTAyIDIxNS44MyA0MTUuOTc5IDIxNS44MyA0MTUuOTc5IDIxNS44MyA0MTYuMDU3IDIxNS45MDIgNDE2LjIxMSAyMTUuOTAyIDQxNi40NDMgMjE1LjkwMiA0MTYuNTk4IDIxNS45NzQgNDE2LjU5OCAyMTUuOTc0IDQxNi41OTggMjE1Ljk3NCA0MTYuNTk4IDIxNS45NzQgNDE2LjgzIDIxNS45NzQgNDE2Ljk4NSAyMTUuOTc0IDQxNy4yMTcgMjE2LjA0NiA0MTcuMjE3IDIxNi4wNDYgNDE3LjI5NCAyMTYuMDQ2IDQxNy4zNzEgMjE2LjA0NiA0MTcuNDQ5IDIxNi4wNDYgNDE3LjUyNiAyMTYuMDQ2IDQxNy42MDMgMjE2LjA0NiA0MTcuNjAzIDIxNi4xMTkgNDE3LjYwMyAyMTYuMTE5IDQxNy42MDMgMjE2LjE5MSA0MTcuNTI2IDIxNi40NzkgNDE3LjUyNiAyMTYuNzY4IDQxNy41MjYgMjE3LjEyOSA0MTcuNTI2IDIxNy4xMjkgNDE3LjUyNiAyMTcuMTI5IDQxNy41MjYgMjE3LjEyOSA0MTcuNDQ5IDIxNy40MTggNDE3LjQ0OSAyMTcuNzc4IDQxNy40NDkgMjE4LjA2NyA0MTcuNDQ5IDIxOC4xMzkgNDE3LjQ0OSAyMTguMTM5IDQxNy40NDkgMjE4LjIxMSA0MTUuMjg0IDIxOC4yMTEgNDE1LjI4NCAyMTguMjExIDQxNS4yODQgMjE4LjIxMSA0MTUuMjg0IDIxOC4wNjcgNDE1LjI4NCAyMTcuOTk1IDQxNS4zNjEgMjE3Ljg1MSA0MTUuMzYxIDIxNy43NzggNDE1LjM2MSAyMTcuNzA2IDQxNS4zNjEgMjE3LjYzNFpNNDI1LjI1OCAyMTguMjExQzQyNS4yNTggMjE4LjA2NyA0MjUuMjU4IDIxNy45MjMgNDI1LjI1OCAyMTcuODUxIDQyNS4xOCAyMTcuNzc4IDQyNS4xOCAyMTcuNzA2IDQyNS4xOCAyMTcuNjM0IDQyNS4xOCAyMTcuMzQ1IDQyNS4xOCAyMTcuMTI5IDQyNS4xMDMgMjE2LjkxMiA0MjUuMTAzIDIxNi44NCA0MjUuMTAzIDIxNi44NCA0MjUuMTAzIDIxNi44NCA0MjUuMDI2IDIxNi42MjQgNDI1LjAyNiAyMTYuNDA3IDQyNC45NDkgMjE2LjE5MSA0MjQuOTQ5IDIxNi4xMTkgNDI0Ljk0OSAyMTYuMDQ2IDQyNC44NzEgMjE1Ljk3NCA0MjQuODcxIDIxNS44MyA0MjQuODcxIDIxNS43NTggNDI0Ljc5NCAyMTUuNjg2IDQyNC44NzEgMjE1LjYxMyA0MjQuODcxIDIxNS42MTMgNDI0Ljk0OSAyMTUuNjEzIDQyNC45NDkgMjE1LjYxMyA0MjUuMDI2IDIxNS42MTMgNDI1LjAyNiAyMTUuNjEzIDQyNS4xOCAyMTUuNTQxIDQyNS4yNTggMjE1LjU0MSA0MjUuNDEyIDIxNS40NjkgNDI1LjQxMiAyMTUuNDY5IDQyNS40MTIgMjE1LjQ2OSA0MjUuNDEyIDIxNS40NjkgNDI1LjU2NyAyMTUuNDY5IDQyNS42NDQgMjE1LjM5NyA0MjUuNzk5IDIxNS4zMjUgNDI1Ljc5OSAyMTUuMzI1IDQyNS44NzYgMjE1LjMyNSA0MjUuODc2IDIxNS4zMjUgNDI1Ljg3NiAyMTUuMzI1IDQyNS45NTQgMjE1LjMyNSA0MjUuOTU0IDIxNS4zMjUgNDI2LjQ5NSAyMTYuMTkxIDQyNi44MDQgMjE3LjIwMSA0MjYuODA0IDIxOC4yMTFMNDI1LjI1OCAyMTguMjExWk00MjUuNTY3IDIxNC44MkM0MjUuNTY3IDIxNC44MiA0MjUuNTY3IDIxNC44MiA0MjUuNTY3IDIxNC44MiA0MjUuNDkgMjE0Ljg5MiA0MjUuMzM1IDIxNC44OTIgNDI1LjE4IDIxNC45NjQgNDI1LjEwMyAyMTQuOTY0IDQyNS4xMDMgMjE0Ljk2NCA0MjUuMDI2IDIxNC45NjQgNDI0Ljk0OSAyMTUuMDM2IDQyNC43OTQgMjE1LjAzNiA0MjQuNzE3IDIxNS4xMDggNDI0LjYzOSAyMTUuMTA4IDQyNC42MzkgMjE1LjEwOCA0MjQuNjM5IDIxNS4xMDggNDI0LjYzOSAyMTUuMDM2IDQyNC41NjIgMjE1LjAzNiA0MjQuNTYyIDIxNC45NjQgNDI0LjU2MiAyMTQuOTY0IDQyNC41NjIgMjE0Ljk2NCA0MjQuNTYyIDIxNC44OTIgNDI0LjQ4NSAyMTQuODIgNDI0LjQwNyAyMTQuNjc1IDQyNC40MDcgMjE0LjYwMyA0MjQuNDA3IDIxNC41MzEgNDI0LjQwNyAyMTQuNTMxIDQyNC4zMyAyMTQuNTMxIDQyNC4yNTMgMjE0LjM4NyA0MjQuMTc1IDIxNC4xNyA0MjQuMDk4IDIxNC4wMjYgNDI0LjA5OCAyMTQuMDI2IDQyNC4wOTggMjE0LjAyNiA0MjQuMDk4IDIxNC4wMjYgNDI0LjAyMSAyMTMuODgxIDQyMy44NjYgMjEzLjczNyA0MjMuNzg5IDIxMy41OTMgNDIzLjc4OSAyMTMuNTIxIDQyMy43MTEgMjEzLjQ0OSA0MjMuNzExIDIxMy40NDkgNDIzLjYzNCAyMTMuMzA0IDQyMy41NTcgMjEzLjIzMiA0MjMuNDc5IDIxMy4xNiA0MjMuNDAyIDIxMy4wODggNDIzLjQwMiAyMTMuMDE2IDQyMy4zMjUgMjEzLjAxNiA0MjMuMjQ3IDIxMi45NDMgNDIzLjE3IDIxMi44NzEgNDIzLjE3IDIxMi43OTkgNDI0LjA5OCAyMTMuMzA0IDQyNC45NDkgMjEzLjk1NCA0MjUuNTY3IDIxNC44MlpNNDIxLjQ2OSAyMTQuNzQ3QzQyMS40NjkgMjE0Ljc0NyA0MjEuNDY5IDIxNC43NDcgNDIxLjQ2OSAyMTQuNzQ3IDQyMS41NDYgMjE0Ljg5MiA0MjEuNTQ2IDIxNS4xMDggNDIxLjYyNCAyMTUuMjUzIDQyMS42MjQgMjE1LjI1MyA0MjEuNjI0IDIxNS4zMjUgNDIxLjYyNCAyMTUuMzk3IDQyMS42MjQgMjE1LjQ2OSA0MjEuNjI0IDIxNS40NjkgNDIxLjYyNCAyMTUuNTQxIDQyMS42MjQgMjE1LjU0MSA0MjEuNjI0IDIxNS41NDEgNDIxLjU0NiAyMTUuNTQxIDQyMC41NDEgMjE1LjYxMyA0MTkuNTM2IDIxNS42MTMgNDE4LjUzMSAyMTUuNTQxIDQxOC40NTQgMjE1LjU0MSA0MTguMzc2IDIxNS41NDEgNDE4LjI5OSAyMTUuNTQxIDQxOC4yOTkgMjE1LjQ2OSA0MTguMjk5IDIxNS4zOTcgNDE4LjI5OSAyMTUuMzI1IDQxOC4yOTkgMjE1LjI1MyA0MTguMzc2IDIxNS4yNTMgNDE4LjM3NiAyMTUuMTggNDE4LjM3NiAyMTQuOTY0IDQxOC40NTQgMjE0LjgyIDQxOC40NTQgMjE0LjY3NSA0MTguNTMxIDIxNC40NTkgNDE4LjUzMSAyMTQuMzE0IDQxOC42MDggMjE0LjE3IDQxOC42MDggMjE0LjE3IDQxOC42MDggMjE0LjE3IDQxOC42MDggMjE0LjE3IDQxOC42MDggMjE0LjAyNiA0MTguNjg2IDIxMy44ODEgNDE4LjY4NiAyMTMuNzM3IDQxOC43NjMgMjEzLjczNyA0MTguNzYzIDIxMy43MzcgNDE4Ljc2MyAyMTMuNjY1IDQxOC43NjMgMjEzLjU5MyA0MTguODQgMjEzLjQ0OSA0MTguODQgMjEzLjMwNCA0MTguODQgMjEzLjMwNCA0MTguODQgMjEzLjMwNCA0MTguOTE4IDIxMy4zMDQgNDE4LjkxOCAyMTMuMTYgNDE4Ljk5NSAyMTMuMDg4IDQxOC45OTUgMjEyLjk0MyA0MTguOTk1IDIxMi45NDMgNDE5LjA3MiAyMTIuOTQzIDQxOS4wNzIgMjEyLjk0MyA0MTkuMDcyIDIxMi43OTkgNDE5LjE1IDIxMi43MjcgNDE5LjIyNyAyMTIuNjU1IDQxOS4yMjcgMjEyLjY1NSA0MTkuMjI3IDIxMi42NTUgNDE5LjIyNyAyMTIuNjU1IDQxOS4yMjcgMjEyLjUxIDQxOS4zMDQgMjEyLjQzOCA0MTkuMzgyIDIxMi40MzggNDE5LjM4MiAyMTIuMzY2IDQxOS4zODIgMjEyLjM2NiA0MTkuMzgyIDIxMi4zNjYgNDE5LjQ1OSAyMTIuMjk0IDQxOS40NTkgMjEyLjIyMiA0MTkuNTM2IDIxMi4yMjIgNDE5LjUzNiAyMTIuMjIyIDQxOS41MzYgMjEyLjIyMiA0MTkuNTM2IDIxMi4yMjIgNDE5LjYxMyAyMTIuMTUgNDE5LjY5MSAyMTIuMDc3IDQxOS42OTEgMjEyLjA3NyA0MTkuNjkxIDIxMi4wNzcgNDE5Ljc2OCAyMTIuMDc3IDQxOS43NjggMjEyLjA3NyA0MTkuOTIzIDIxMi4wNzcgNDIwLjA3NyAyMTIuMDc3IDQyMC4xNTUgMjEyLjA3NyA0MjAuMjMyIDIxMi4wNzcgNDIwLjIzMiAyMTIuMDc3IDQyMC4yMzIgMjEyLjA3NyA0MjAuNjk2IDIxMi4zNjYgNDIxLjE2IDIxMy4zNzYgNDIxLjQ2OSAyMTQuNzQ3Wk00MTYuODMgMjEyLjc5OUM0MTYuNzUzIDIxMi43OTkgNDE2LjY3NSAyMTIuODcxIDQxNi42NzUgMjEyLjk0MyA0MTYuNTk4IDIxMy4wMTYgNDE2LjU5OCAyMTMuMDE2IDQxNi41MjEgMjEzLjA4OCA0MTYuNDQzIDIxMy4xNiA0MTYuMzY2IDIxMy4yMzIgNDE2LjI4OSAyMTMuMzA0IDQxNi4yODkgMjEzLjM3NiA0MTYuMjExIDIxMy40NDkgNDE2LjIxMSAyMTMuNTIxIDQxNi4xMzQgMjEzLjU5MyA0MTYuMDU3IDIxMy42NjUgNDE1Ljk3OSAyMTMuODA5IDQxNS45NzkgMjEzLjgwOSA0MTUuOTAyIDIxMy44ODEgNDE1LjkwMiAyMTMuOTU0IDQxNS44MjUgMjE0LjA5OCA0MTUuNzQ3IDIxNC4yNDIgNDE1LjY3IDIxNC4zODcgNDE1LjU5MyAyMTQuNTMxIDQxNS41MTYgMjE0LjY3NSA0MTUuNDM4IDIxNC44MiA0MTUuNDM4IDIxNC44OTIgNDE1LjM2MSAyMTQuODkyIDQxNS4zNjEgMjE0Ljk2NCA0MTUuMzYxIDIxNS4wMzYgNDE1LjM2MSAyMTUuMDM2IDQxNS4yODQgMjE1LjEwOCA0MTUuMjg0IDIxNS4xMDggNDE1LjI4NCAyMTUuMTA4IDQxNS4yMDYgMjE1LjEwOCA0MTUuMTI5IDIxNS4wMzYgNDE0Ljk3NCAyMTUuMDM2IDQxNC44OTcgMjE0Ljk2NCA0MTQuODIgMjE0Ljk2NCA0MTQuODIgMjE0Ljk2NCA0MTQuNzQyIDIxNC45NjQgNDE0LjU4OCAyMTQuODkyIDQxNC40MzMgMjE0Ljg5MiA0MTQuMzU2IDIxNC44MiA0MTQuMzU2IDIxNC44MiA0MTQuMzU2IDIxNC44MiA0MTQuMzU2IDIxNC44MiA0MTQuMzU2IDIxNC44MiA0MTQuMzU2IDIxNC43NDcgNDE0LjM1NiAyMTQuNzQ3IDQxNC45NzQgMjEzLjk1NCA0MTUuODI1IDIxMy4yMzIgNDE2LjgzIDIxMi43OTlaTTQxMy45NjkgMjE1LjMyNUM0MTQuMDQ2IDIxNS4zMjUgNDE0LjA0NiAyMTUuMzI1IDQxNC4wNDYgMjE1LjMyNSA0MTQuMTI0IDIxNS4zMjUgNDE0LjEyNCAyMTUuMzI1IDQxNC4xMjQgMjE1LjM5NyA0MTQuMjc4IDIxNS4zOTcgNDE0LjM1NiAyMTUuNDY5IDQxNC41MSAyMTUuNDY5IDQxNC41MSAyMTUuNDY5IDQxNC41MSAyMTUuNDY5IDQxNC41MSAyMTUuNDY5IDQxNC42NjUgMjE1LjU0MSA0MTQuNzQyIDIxNS41NDEgNDE0Ljg5NyAyMTUuNjEzIDQxNC45NzQgMjE1LjYxMyA0MTQuOTc0IDIxNS42MTMgNDE0Ljk3NCAyMTUuNjEzIDQxNS4wNTIgMjE1LjYxMyA0MTUuMDUyIDIxNS42ODYgNDE1LjEyOSAyMTUuNjg2IDQxNS4wNTIgMjE1Ljc1OCA0MTUuMDUyIDIxNS44MyA0MTUuMDUyIDIxNS45NzQgNDE0Ljk3NCAyMTYuMDQ2IDQxNC45NzQgMjE2LjExOSA0MTQuOTc0IDIxNi4xOTEgNDE0Ljg5NyAyMTYuNDA3IDQxNC44OTcgMjE2LjYyNCA0MTQuODIgMjE2Ljg0IDQxNC44MiAyMTYuODQgNDE0LjgyIDIxNi44NCA0MTQuODIgMjE2LjkxMiA0MTQuNzQyIDIxNy4xMjkgNDE0Ljc0MiAyMTcuMzQ1IDQxNC43NDIgMjE3LjYzNCA0MTQuNzQyIDIxNy43MDYgNDE0Ljc0MiAyMTcuNzc4IDQxNC43NDIgMjE3Ljg1MSA0MTQuNjY1IDIxNy45MjMgNDE0LjY2NSAyMTguMDY3IDQxNC42NjUgMjE4LjIxMSA0MTMuMTE5IDIxOC4yMTEgNDEzLjExOSAyMTguMjExIDQxMy4xMTkgMjE4LjIxMSA0MTMuMTE5IDIxNy4yMDEgNDEzLjQyOCAyMTYuMTkxIDQxMy45NjkgMjE1LjMyNVpNNDE0LjY2NSAyMTguNzg5QzQxNC42NjUgMjE4LjkzMyA0MTQuNjY1IDIxOS4wMDUgNDE0LjY2NSAyMTkuMTUgNDE0Ljc0MiAyMTkuMjIyIDQxNC43NDIgMjE5LjI5NCA0MTQuNzQyIDIxOS4zNjYgNDE0Ljc0MiAyMTkuNTgzIDQxNC43NDIgMjE5Ljg3MSA0MTQuODIgMjIwLjA4OCA0MTQuODIgMjIwLjE2IDQxNC44MiAyMjAuMTYgNDE0LjgyIDIyMC4yMzIgNDE0Ljg5NyAyMjAuMzc2IDQxNC44OTcgMjIwLjU5MyA0MTQuOTc0IDIyMC44MDkgNDE0Ljk3NCAyMjAuODgxIDQxNC45NzQgMjIwLjk1NCA0MTUuMDUyIDIyMS4wMjYgNDE1LjA1MiAyMjEuMDk4IDQxNS4wNTIgMjIxLjI0MiA0MTUuMTI5IDIyMS4zMTQgNDE1LjA1MiAyMjEuMzE0IDQxNS4wNTIgMjIxLjMxNCA0MTUuMDUyIDIyMS4zMTQgNDE1LjA1MiAyMjEuMzE0IDQxNC45NzQgMjIxLjMxNCA0MTQuOTc0IDIyMS4zODcgNDE0Ljg5NyAyMjEuMzg3IDQxNC44MiAyMjEuMzg3IDQxNC43NDIgMjIxLjM4NyA0MTQuNjY1IDIyMS40NTkgNDE0LjY2NSAyMjEuNDU5IDQxNC41ODggMjIxLjQ1OSA0MTQuNTEgMjIxLjQ1OSA0MTQuNDMzIDIyMS41MzEgNDE0LjM1NiAyMjEuNTMxIDQxNC4zNTYgMjIxLjUzMSA0MTQuMjc4IDIyMS41MzEgNDE0LjI3OCAyMjEuNTMxIDQxNC4yMDEgMjIxLjYwMyA0MTQuMDQ2IDIyMS42MDMgNDEzLjk2OSAyMjEuNjc1IDQxMy40MjggMjIwLjgwOSA0MTMuMTE5IDIxOS43OTkgNDEzLjExOSAyMTguNzg5TDQxNC42NjUgMjE4Ljc4OVpNNDE0LjM1NiAyMjIuMThDNDE0LjM1NiAyMjIuMTggNDE0LjM1NiAyMjIuMTggNDE0LjM1NiAyMjIuMTA4IDQxNC41MSAyMjIuMTA4IDQxNC41ODggMjIyLjAzNiA0MTQuNzQyIDIyMi4wMzYgNDE0Ljc0MiAyMjIuMDM2IDQxNC43NDIgMjIyLjAzNiA0MTQuODIgMjIxLjk2NCA0MTQuOTc0IDIyMS45NjQgNDE1LjEyOSAyMjEuODkyIDQxNS4yODQgMjIxLjg5MiA0MTUuMjg0IDIyMS44OTIgNDE1LjI4NCAyMjEuODkyIDQxNS4yODQgMjIxLjg5MiA0MTUuMjg0IDIyMS44OTIgNDE1LjI4NCAyMjEuODkyIDQxNS4yODQgMjIxLjg5MiA0MTUuMzYxIDIyMi4xMDggNDE1LjQzOCAyMjIuMjUzIDQxNS41OTMgMjIyLjQ2OSA0MTUuNTkzIDIyMi40NjkgNDE1LjU5MyAyMjIuNDY5IDQxNS41OTMgMjIyLjU0MSA0MTUuNjcgMjIyLjY4NiA0MTUuNzQ3IDIyMi45MDIgNDE1LjkwMiAyMjMuMDQ2IDQxNS45MDIgMjIzLjExOSA0MTUuOTAyIDIyMy4xMTkgNDE1LjkwMiAyMjMuMTE5IDQxNS45NzkgMjIzLjI2MyA0MTYuMTM0IDIyMy40NzkgNDE2LjI4OSAyMjMuNjI0IDQxNi4yODkgMjIzLjYyNCA0MTYuMjg5IDIyMy42MjQgNDE2LjI4OSAyMjMuNjI0IDQxNi4zNjYgMjIzLjc2OCA0MTYuNTIxIDIyMy45ODUgNDE2LjY3NSAyMjQuMTI5IDQxNi42NzUgMjI0LjEyOSA0MTYuNjc1IDIyNC4xMjkgNDE2LjY3NSAyMjQuMTI5IDQxNS43NDcgMjIzLjYyNCA0MTQuOTc0IDIyMi45NzQgNDE0LjM1NiAyMjIuMThaTTQxOC42MDggMjI0Ljc3OEM0MTguNTMxIDIyNC43NzggNDE4LjUzMSAyMjQuNzc4IDQxOC40NTQgMjI0Ljc3OCA0MTguNDU0IDIyNC43NzggNDE4LjQ1NCAyMjQuNzc4IDQxOC40NTQgMjI0Ljc3OCA0MTguMjIyIDIyNC42MzQgNDE3LjkxMiAyMjQuNDE4IDQxNy42OCAyMjQuMjczIDQxNy42MDMgMjI0LjIwMSA0MTcuNjAzIDIyNC4yMDEgNDE3LjUyNiAyMjQuMTI5IDQxNy40NDkgMjI0LjA1NyA0MTcuMzcxIDIyMy45ODUgNDE3LjI5NCAyMjMuOTEyIDQxNy4yMTcgMjIzLjg0IDQxNy4yMTcgMjIzLjg0IDQxNy4xMzkgMjIzLjc2OCA0MTcuMDYyIDIyMy42OTYgNDE2Ljk4NSAyMjMuNjI0IDQxNi45ODUgMjIzLjU1MiA0MTYuOTA3IDIyMy40NzkgNDE2LjgzIDIyMy40MDcgNDE2LjgzIDIyMy4zMzUgNDE2Ljc1MyAyMjMuMjYzIDQxNi42NzUgMjIzLjE5MSA0MTYuNTk4IDIyMy4xMTkgNDE2LjU5OCAyMjMuMDQ2IDQxNi41MjEgMjIyLjk3NCA0MTYuNTIxIDIyMi45MDIgNDE2LjQ0MyAyMjIuODMgNDE2LjM2NiAyMjIuNjg2IDQxNi4yODkgMjIyLjYxMyA0MTYuMjg5IDIyMi41NDEgNDE2LjIxMSAyMjIuNDY5IDQxNi4yMTEgMjIyLjM5NyA0MTYuMTM0IDIyMi4zMjUgNDE2LjEzNCAyMjIuMTggNDE2LjA1NyAyMjIuMTA4IDQxNi4wNTcgMjIyLjAzNiA0MTUuOTc5IDIyMS45NjQgNDE1Ljk3OSAyMjEuODkyIDQxNS45MDIgMjIxLjgyIDQxNS45MDIgMjIxLjc0NyA0MTUuOTAyIDIyMS43NDcgNDE1Ljk3OSAyMjEuNzQ3IDQxNS45NzkgMjIxLjY3NSA0MTYuMDU3IDIyMS42NzUgNDE2LjA1NyAyMjEuNjc1IDQxNi4xMzQgMjIxLjY3NSA0MTYuMjExIDIyMS42NzUgNDE2LjM2NiAyMjEuNjc1IDQxNi40NDMgMjIxLjYwMyA0MTYuNTk4IDIyMS42MDMgNDE2LjY3NSAyMjEuNjAzIDQxNi42NzUgMjIxLjYwMyA0MTYuNzUzIDIyMS42MDMgNDE2LjkwNyAyMjEuNTMxIDQxNy4wNjIgMjIxLjUzMSA0MTcuMjk0IDIyMS41MzEgNDE3LjI5NCAyMjEuNTMxIDQxNy4zNzEgMjIxLjUzMSA0MTcuNDQ5IDIyMS40NTkgNDE3LjUyNiAyMjEuNDU5IDQxNy42MDMgMjIxLjQ1OSA0MTcuNjggMjIxLjQ1OSA0MTcuNjggMjIxLjQ1OSA0MTcuNjggMjIxLjQ1OSA0MTcuNjggMjIxLjUzMSA0MTcuNjggMjIxLjY3NSA0MTcuNjggMjIxLjgyIDQxNy43NTggMjIxLjk2NCA0MTcuNzU4IDIyMi4wMzYgNDE3Ljc1OCAyMjIuMDM2IDQxNy43NTggMjIyLjAzNiA0MTcuNzU4IDIyMi4xOCA0MTcuODM1IDIyMi4zMjUgNDE3LjgzNSAyMjIuNDY5IDQxNy44MzUgMjIyLjQ2OSA0MTcuODM1IDIyMi41NDEgNDE3LjgzNSAyMjIuNTQxIDQxNy45MTIgMjIyLjY4NiA0MTcuOTEyIDIyMi44MyA0MTcuOTkgMjIyLjkwMiA0MTcuOTkgMjIyLjk3NCA0MTcuOTkgMjIyLjk3NCA0MTcuOTkgMjIyLjk3NCA0MTcuOTkgMjIzLjExOSA0MTguMDY3IDIyMy4yNjMgNDE4LjA2NyAyMjMuNDA3IDQxOC4wNjcgMjIzLjQwNyA0MTguMDY3IDIyMy40MDcgNDE4LjE0NCAyMjMuNDc5IDQxOC4xNDQgMjIzLjU1MiA0MTguMTQ0IDIyMy42OTYgNDE4LjIyMiAyMjMuNzY4IDQxOC4yMjIgMjIzLjc2OCA0MTguMjIyIDIyMy44NCA0MTguMjIyIDIyMy44NCA0MTguMjk5IDIyMy45ODUgNDE4LjI5OSAyMjQuMDU3IDQxOC4zNzYgMjI0LjIwMSA0MTguMzc2IDIyNC4yMDEgNDE4LjM3NiAyMjQuMjAxIDQxOC4zNzYgMjI0LjIwMSA0MTguNDU0IDIyNC4yNzMgNDE4LjQ1NCAyMjQuNDE4IDQxOC41MzEgMjI0LjQ5IDQxOC41MzEgMjI0LjQ5IDQxOC41MzEgMjI0LjQ5IDQxOC42MDggMjI0LjU2MiA0MTguNjA4IDIyNC42MzQgNDE4LjY4NiAyMjQuNzA2IDQxOC42ODYgMjI0Ljc3OCA0MTguNjg2IDIyNC43NzggNDE4LjY4NiAyMjQuNzc4IDQxOC42ODYgMjI0Ljc3OCA0MTguNjg2IDIyNC43NzggNDE4LjYwOCAyMjQuNzc4IDQxOC42MDggMjI0Ljc3OFpNNDE5LjYxMyAyMjQuOTIzQzQxOS42MTMgMjI0Ljg1MSA0MTkuNTM2IDIyNC44NTEgNDE5LjUzNiAyMjQuODUxIDQxOS41MzYgMjI0Ljg1MSA0MTkuNTM2IDIyNC44NTEgNDE5LjUzNiAyMjQuODUxIDQxOS40NTkgMjI0Ljc3OCA0MTkuNDU5IDIyNC43NzggNDE5LjQ1OSAyMjQuNzc4IDQxOS40NTkgMjI0Ljc3OCA0MTkuMzgyIDIyNC43MDYgNDE5LjM4MiAyMjQuNzA2IDQxOS4zODIgMjI0LjcwNiA0MTkuMzgyIDIyNC42MzQgNDE5LjMwNCAyMjQuNjM0IDQxOS4zMDQgMjI0LjYzNCA0MTkuMzA0IDIyNC41NjIgNDE5LjMwNCAyMjQuNTYyIDQxOS4zMDQgMjI0LjU2MiA0MTkuMjI3IDIyNC40OSA0MTkuMjI3IDIyNC40OSA0MTkuMjI3IDIyNC40OSA0MTkuMjI3IDIyNC40MTggNDE5LjIyNyAyMjQuNDE4IDQxOS4xNSAyMjQuMzQ1IDQxOS4xNSAyMjQuMzQ1IDQxOS4xNSAyMjQuMjczIDQxOS4xNSAyMjQuMjczIDQxOS4wNzIgMjI0LjI3MyA0MTkuMDcyIDIyNC4yMDEgNDE5LjA3MiAyMjQuMjAxIDQxOS4wNzIgMjI0LjEyOSA0MTguOTk1IDIyNC4xMjkgNDE4Ljk5NSAyMjQuMDU3IDQxOC45OTUgMjI0LjA1NyA0MTguOTk1IDIyNC4wNTcgNDE4Ljk5NSAyMjMuOTg1IDQxOC45MTggMjIzLjkxMiA0MTguOTE4IDIyMy44NCA0MTguOTE4IDIyMy44NCA0MTguOTE4IDIyMy43NjggNDE4Ljg0IDIyMy43NjggNDE4Ljg0IDIyMy42OTYgNDE4Ljg0IDIyMy42MjQgNDE4Ljg0IDIyMy42MjQgNDE4Ljc2MyAyMjMuNTUyIDQxOC43NjMgMjIzLjU1MiA0MTguNzYzIDIyMy40NzkgNDE4Ljc2MyAyMjMuNDc5IDQxOC43NjMgMjIzLjQwNyA0MTguNjg2IDIyMy4zMzUgNDE4LjY4NiAyMjMuMzM1IDQxOC42ODYgMjIzLjI2MyA0MTguNjg2IDIyMy4yNjMgNDE4LjY4NiAyMjMuMTkxIDQxOC42ODYgMjIzLjExOSA0MTguNjA4IDIyMy4xMTkgNDE4LjYwOCAyMjMuMDQ2IDQxOC42MDggMjIzLjA0NiA0MTguNjA4IDIyMi45NzQgNDE4LjYwOCAyMjIuOTAyIDQxOC42MDggMjIyLjkwMiA0MTguNTMxIDIyMi44MyA0MTguNTMxIDIyMi43NTggNDE4LjUzMSAyMjIuNzU4IDQxOC41MzEgMjIyLjY4NiA0MTguNTMxIDIyMi42MTMgNDE4LjUzMSAyMjIuNjEzIDQxOC40NTQgMjIyLjU0MSA0MTguNDU0IDIyMi40NjkgNDE4LjQ1NCAyMjIuNDY5IDQxOC40NTQgMjIyLjM5NyA0MTguNDU0IDIyMi4zMjUgNDE4LjQ1NCAyMjIuMjUzIDQxOC40NTQgMjIyLjI1MyA0MTguMzc2IDIyMi4xOCA0MTguMzc2IDIyMi4xMDggNDE4LjM3NiAyMjIuMTA4IDQxOC4zNzYgMjIyLjAzNiA0MTguMzc2IDIyMS45NjQgNDE4LjM3NiAyMjEuODkyIDQxOC4zNzYgMjIxLjg5MiA0MTguMzc2IDIyMS44MiA0MTguMjk5IDIyMS43NDcgNDE4LjI5OSAyMjEuNjc1IDQxOC4yOTkgMjIxLjY3NSA0MTguMjk5IDIyMS42MDMgNDE4LjI5OSAyMjEuNTMxIDQxOC4yOTkgMjIxLjQ1OSA0MTguMjk5IDIyMS40NTkgNDE4LjI5OSAyMjEuNDU5IDQxOC4yOTkgMjIxLjM4NyA0MTguMjk5IDIyMS4zODcgNDE4LjM3NiAyMjEuMzg3IDQxOC40NTQgMjIxLjM4NyA0MTguNTMxIDIyMS4zODcgNDE4LjY4NiAyMjEuMzg3IDQxOC43NjMgMjIxLjM4NyA0MTguOTE4IDIyMS4zODcgNDE5LjA3MiAyMjEuMzg3IDQxOS4yMjcgMjIxLjM4NyA0MTkuMzgyIDIyMS4zODcgNDE5LjQ1OSAyMjEuMzg3IDQxOS42MTMgMjIxLjM4NyA0MTkuNjkxIDIyMS4zODcgNDE5Ljg0NSAyMjEuMzg3IDQyMC4wNzcgMjIxLjM4NyA0MjAuMjMyIDIyMS4zODcgNDIwLjMwOSAyMjEuMzg3IDQyMC4zODcgMjIxLjM4NyA0MjAuNTQxIDIyMS4zODcgNDIwLjc3MyAyMjEuMzg3IDQyMS4wODMgMjIxLjM4NyA0MjEuMzE0IDIyMS4zODcgNDIxLjQ2OSAyMjEuMzg3IDQyMS41NDYgMjIxLjM4NyA0MjEuNjI0IDIyMS4zODcgNDIxLjYyNCAyMjEuNDU5IDQyMS42MjQgMjIxLjQ1OSA0MjEuNjI0IDIyMS40NTkgNDIxLjYyNCAyMjEuNDU5IDQyMS42MjQgMjIxLjUzMSA0MjEuNjI0IDIyMS42MDMgNDIxLjYyNCAyMjEuNjAzIDQyMS42MjQgMjIxLjY3NSA0MjEuNjI0IDIyMS43NDcgNDIxLjYyNCAyMjEuODIgNDIxLjU0NiAyMjEuODkyIDQyMS41NDYgMjIxLjg5MiA0MjEuNTQ2IDIyMS45NjQgNDIxLjU0NiAyMjIuMDM2IDQyMS41NDYgMjIyLjEwOCA0MjEuNTQ2IDIyMi4xMDggNDIxLjU0NiAyMjIuMTggNDIxLjU0NiAyMjIuMTggNDIxLjQ2OSAyMjIuMjUzIDQyMS40NjkgMjIyLjMyNSA0MjEuNDY5IDIyMi4zOTcgNDIxLjQ2OSAyMjIuNDY5IDQyMS40NjkgMjIyLjQ2OSA0MjEuNDY5IDIyMi40NjkgNDIxLjM5MiAyMjIuNjEzIDQyMS4zOTIgMjIyLjY4NiA0MjEuMzkyIDIyMi43NTggNDIxLjM5MiAyMjIuNzU4IDQyMS4zOTIgMjIyLjc1OCA0MjEuMzkyIDIyMi43NTggNDIxLjMxNCAyMjIuOTAyIDQyMS4zMTQgMjIyLjk3NCA0MjEuMzE0IDIyMy4wNDYgNDIxLjMxNCAyMjMuMDQ2IDQyMS4zMTQgMjIzLjA0NiA0MjEuMzE0IDIyMy4wNDYgNDIxLjAwNSAyMjMuOTEyIDQyMC42OTYgMjI0LjU2MiA0MjAuMzA5IDIyNC45MjMgNDIwLjA3NyAyMjQuOTIzIDQxOS44NDUgMjI0LjkyMyA0MTkuNjEzIDIyNC45MjNaTTQyMS4yMzcgMjI0Ljc3OEM0MjEuMjM3IDIyNC43MDYgNDIxLjMxNCAyMjQuNjM0IDQyMS4zOTIgMjI0LjU2MiA0MjEuMzkyIDIyNC40OSA0MjEuMzkyIDIyNC40OSA0MjEuMzkyIDIyNC40OSA0MjEuNDY5IDIyNC4zNDUgNDIxLjQ2OSAyMjQuMjczIDQyMS41NDYgMjI0LjIwMSA0MjEuNTQ2IDIyNC4yMDEgNDIxLjU0NiAyMjQuMjAxIDQyMS41NDYgMjI0LjEyOSA0MjEuNjI0IDIyNC4wNTcgNDIxLjYyNCAyMjMuOTg1IDQyMS43MDEgMjIzLjg0IDQyMS43MDEgMjIzLjg0IDQyMS43MDEgMjIzLjc2OCA0MjEuNzAxIDIyMy43NjggNDIxLjc3OCAyMjMuNjI0IDQyMS43NzggMjIzLjU1MiA0MjEuNzc4IDIyMy40NzkgNDIxLjg1NiAyMjMuNDA3IDQyMS44NTYgMjIzLjQwNyA0MjEuODU2IDIyMy4zMzUgNDIxLjg1NiAyMjMuMjYzIDQyMS45MzMgMjIzLjExOSA0MjEuOTMzIDIyMi45NzQgNDIxLjkzMyAyMjIuOTc0IDQyMS45MzMgMjIyLjkwMiA0MjIuMDEgMjIyLjkwMiA0MjIuMDEgMjIyLjgzIDQyMi4wMSAyMjIuNjg2IDQyMi4wODggMjIyLjU0MSA0MjIuMDg4IDIyMi41NDEgNDIyLjA4OCAyMjIuNDY5IDQyMi4wODggMjIyLjM5NyA0MjIuMDg4IDIyMi4zMjUgNDIyLjE2NSAyMjIuMTggNDIyLjE2NSAyMjIuMDM2IDQyMi4xNjUgMjIyLjAzNiA0MjIuMTY1IDIyMi4wMzYgNDIyLjE2NSAyMjEuOTY0IDQyMi4yNDIgMjIxLjgyIDQyMi4yNDIgMjIxLjY3NSA0MjIuMjQyIDIyMS41MzEgNDIyLjI0MiAyMjEuNTMxIDQyMi4yNDIgMjIxLjQ1OSA0MjIuMjQyIDIyMS40NTkgNDIyLjMyIDIyMS40NTkgNDIyLjQ3NCAyMjEuNDU5IDQyMi41NTIgMjIxLjQ1OSA0MjIuNTUyIDIyMS41MzEgNDIyLjYyOSAyMjEuNTMxIDQyMi42MjkgMjIxLjUzMSA0MjIuODYxIDIyMS41MzEgNDIzLjAxNiAyMjEuNTMxIDQyMy4yNDcgMjIxLjYwMyA0MjMuMjQ3IDIyMS42MDMgNDIzLjI0NyAyMjEuNjAzIDQyMy4zMjUgMjIxLjYwMyA0MjMuNDc5IDIyMS42MDMgNDIzLjYzNCAyMjEuNjc1IDQyMy43MTEgMjIxLjY3NSA0MjMuNzg5IDIyMS42NzUgNDIzLjg2NiAyMjEuNjc1IDQyMy44NjYgMjIxLjY3NSA0MjMuOTQzIDIyMS42NzUgNDI0LjAyMSAyMjEuNzQ3IDQyNC4wMjEgMjIxLjc0NyA0MjQuMDIxIDIyMS43NDcgNDI0LjAyMSAyMjEuODIgNDIzLjk0MyAyMjEuODkyIDQyMy45NDMgMjIxLjk2NCA0MjMuODY2IDIyMi4wMzYgNDIzLjg2NiAyMjIuMTA4IDQyMy43ODkgMjIyLjE4IDQyMy43ODkgMjIyLjMyNSA0MjMuNzExIDIyMi4zOTcgNDIzLjcxMSAyMjIuNDY5IDQyMy42MzQgMjIyLjU0MSA0MjMuNjM0IDIyMi42MTMgNDIzLjU1NyAyMjIuNjg2IDQyMy40NzkgMjIyLjgzIDQyMy40MDIgMjIyLjkwMiA0MjMuNDAyIDIyMi45NzQgNDIzLjMyNSAyMjMuMDQ2IDQyMy4zMjUgMjIzLjExOSA0MjMuMjQ3IDIyMy4xOTEgNDIzLjE3IDIyMy4yNjMgNDIzLjA5MyAyMjMuMzM1IDQyMy4wOTMgMjIzLjQwNyA0MjMuMDE2IDIyMy40NzkgNDIzLjAxNiAyMjMuNTUyIDQyMi45MzggMjIzLjYyNCA0MjIuODYxIDIyMy42OTYgNDIyLjc4NCAyMjMuNzY4IDQyMi43MDYgMjIzLjg0IDQyMi43MDYgMjIzLjg0IDQyMi42MjkgMjIzLjkxMiA0MjIuNTUyIDIyMy45ODUgNDIyLjQ3NCAyMjQuMDU3IDQyMi4zOTcgMjI0LjEyOSA0MjIuMzIgMjI0LjIwMSA0MjIuMzIgMjI0LjIwMSA0MjIuMjQyIDIyNC4yNzMgNDIyLjA4OCAyMjQuMzQ1IDQyMi4wMSAyMjQuNDE4IDQyMS44NTYgMjI0LjU2MiA0MjEuODU2IDIyNC41NjIgNDIxLjg1NiAyMjQuNTYyIDQyMS44NTYgMjI0LjU2MiA0MjEuNzAxIDIyNC42MzQgNDIxLjU0NiAyMjQuNzA2IDQyMS40NjkgMjI0Ljc3OCA0MjEuMzkyIDIyNC43NzggNDIxLjMxNCAyMjQuNzc4IDQyMS4yMzcgMjI0Ljc3OCA0MjEuMjM3IDIyNC43NzggNDIxLjIzNyAyMjQuNzc4IDQyMS4yMzcgMjI0Ljc3OFpNNDIzLjI0NyAyMjQuMTI5QzQyMy4yNDcgMjI0LjEyOSA0MjMuMjQ3IDIyNC4xMjkgNDIzLjI0NyAyMjQuMTI5IDQyMy40MDIgMjIzLjk4NSA0MjMuNTU3IDIyMy43NjggNDIzLjYzNCAyMjMuNjI0IDQyMy42MzQgMjIzLjYyNCA0MjMuNjM0IDIyMy42MjQgNDIzLjYzNCAyMjMuNjI0IDQyMy43ODkgMjIzLjQ3OSA0MjMuOTQzIDIyMy4yNjMgNDI0LjAyMSAyMjMuMTE5IDQyNC4wMjEgMjIzLjExOSA0MjQuMDIxIDIyMy4xMTkgNDI0LjAyMSAyMjMuMDQ2IDQyNC4xNzUgMjIyLjkwMiA0MjQuMjUzIDIyMi42ODYgNDI0LjMzIDIyMi40NjkgNDI0LjMzIDIyMi40NjkgNDI0LjMzIDIyMi40NjkgNDI0LjQwNyAyMjIuNDY5IDQyNC40ODUgMjIyLjI1MyA0MjQuNTYyIDIyMi4xMDggNDI0LjYzOSAyMjEuODkyIDQyNC42MzkgMjIxLjg5MiA0MjQuNjM5IDIyMS44OTIgNDI0LjYzOSAyMjEuODkyIDQyNC42MzkgMjIxLjg5MiA0MjQuNjM5IDIyMS44OTIgNDI0LjcxNyAyMjEuODkyIDQyNC44NzEgMjIxLjg5MiA0MjUuMDI2IDIyMS45NjQgNDI1LjE4IDIyMi4wMzYgNDI1LjE4IDIyMi4wMzYgNDI1LjE4IDIyMi4wMzYgNDI1LjE4IDIyMi4wMzYgNDI1LjMzNSAyMjIuMDM2IDQyNS40MTIgMjIyLjEwOCA0MjUuNTY3IDIyMi4xMDggNDI1LjU2NyAyMjIuMTggNDI1LjU2NyAyMjIuMTggNDI1LjU2NyAyMjIuMTggNDI1LjAyNiAyMjIuOTc0IDQyNC4xNzUgMjIzLjYyNCA0MjMuMjQ3IDIyNC4xMjlaTTQyNS45NTQgMjIxLjY3NUM0MjUuODc2IDIyMS42NzUgNDI1Ljc5OSAyMjEuNjAzIDQyNS43MjIgMjIxLjYwMyA0MjUuNzIyIDIyMS42MDMgNDI1LjcyMiAyMjEuNjAzIDQyNS43MjIgMjIxLjYwMyA0MjUuNTY3IDIyMS41MzEgNDI1LjQ5IDIyMS41MzEgNDI1LjQxMiAyMjEuNDU5IDQyNS4zMzUgMjIxLjQ1OSA0MjUuMzM1IDIyMS40NTkgNDI1LjI1OCAyMjEuNDU5IDQyNS4xOCAyMjEuMzg3IDQyNS4xMDMgMjIxLjM4NyA0MjUuMDI2IDIyMS4zODcgNDI0Ljk0OSAyMjEuMzE0IDQyNC45NDkgMjIxLjMxNCA0MjQuODcxIDIyMS4zMTQgNDI0Ljg3MSAyMjEuMzE0IDQyNC44NzEgMjIxLjMxNCA0MjQuODcxIDIyMS4zMTQgNDI0Ljg3MSAyMjEuMjQyIDQyNC44NzEgMjIxLjA5OCA0MjQuOTQ5IDIyMS4wMjYgNDI0Ljk0OSAyMjAuOTU0IDQyNC45NDkgMjIwLjg4MSA0MjQuOTQ5IDIyMC44MDkgNDI1LjAyNiAyMjAuNTkzIDQyNS4xMDMgMjIwLjM3NiA0MjUuMTAzIDIyMC4yMzIgNDI1LjEwMyAyMjAuMTYgNDI1LjEwMyAyMjAuMTYgNDI1LjEwMyAyMjAuMDg4IDQyNS4xOCAyMTkuODcxIDQyNS4xOCAyMTkuNTgzIDQyNS4xOCAyMTkuMzY2IDQyNS4yNTggMjE5LjI5NCA0MjUuMjU4IDIxOS4yMjIgNDI1LjI1OCAyMTkuMTUgNDI1LjI1OCAyMTkuMDA1IDQyNS4yNTggMjE4LjkzMyA0MjUuMjU4IDIxOC43ODkgNDI2LjgwNCAyMTguNzg5IDQyNi44MDQgMjE4Ljc4OSA0MjYuODA0IDIxOC43ODkgNDI2LjgwNCAyMTkuNzk5IDQyNi40OTUgMjIwLjgwOSA0MjUuOTU0IDIyMS42NzVaIiBzdHJva2U9IiMwMDAwMDAiIHN0cm9rZS13aWR0aD0iMCIgc3Ryb2tlLWxpbmVqb2luPSJyb3VuZCIgc3Ryb2tlLW1pdGVybGltaXQ9IjEwIiBmaWxsPSIjMzczNzM3IiBmaWxsLXJ1bGU9ImV2ZW5vZGQiLz48cGF0aCBkPSJNNDM3LjU2NSAyMDkuOTlDNDM3LjUgMjEwLjEzNSA0MzcuNSAyMTAuMjgxIDQzNy42MyAyMTAuNDI3IDQzNy42MyAyMTAuNSA0MzcuNjk2IDIxMC41IDQzNy43NjEgMjEwLjUgNDM3LjgyNiAyMTAuNSA0MzcuODkxIDIxMC40MjcgNDM3Ljk1NyAyMTAuMzU0IDQ0MC40MzUgMjA3LjIxOSA0NDAuNDM1IDIwNy4yMTkgNDQwLjQzNSAyMDcuMjE5IDQ0MC41IDIwNy4wNzMgNDQwLjUgMjA2LjkyNyA0NDAuNDM1IDIwNi44NTQgNDM3Ljk1NyAyMDMuNjQ2IDQzNy45NTcgMjAzLjY0NiA0MzcuOTU3IDIwMy42NDYgNDM3Ljg5MSAyMDMuNSA0MzcuNjk2IDIwMy41IDQzNy42MyAyMDMuNjQ2IDQzNy41IDIwMy43MTkgNDM3LjUgMjAzLjkzOCA0MzcuNTY1IDIwNC4wMSA0MzkuODQ4IDIwNyA0MzkuODQ4IDIwNyA0MzkuODQ4IDIwN0w0MzcuNTY1IDIwOS45OVoiIHN0cm9rZT0iIzAwMDAwMCIgc3Ryb2tlLXdpZHRoPSIwIiBzdHJva2UtbGluZWpvaW49InJvdW5kIiBzdHJva2UtbWl0ZXJsaW1pdD0iMTAiIGZpbGw9IiMzNzM3MzciIGZpbGwtcnVsZT0iZXZlbm9kZCIvPjxwYXRoIGQ9Ik00MjUuOTI3IDIwNi4yMDRDNDIyLjc5NSAyMDYuMjA0IDQyMi43OTUgMjA2LjIwNCA0MjIuNzk1IDIwNi4yMDQgNDIyLjY0NiAyMDQuOTQ0IDQyMS41MjcgMjAzLjkwNyA0MjAuMTg1IDIwMy45MDcgNDE4LjY5MyAyMDMuOTA3IDQxNy41IDIwNS4wOTMgNDE3LjUgMjA2LjUgNDE3LjUgMjA3Ljk4MiA0MTguNjkzIDIwOS4wOTMgNDIwLjE4NSAyMDkuMDkzIDQyMS41MjcgMjA5LjA5MyA0MjIuNjQ2IDIwOC4xMyA0MjIuNzk1IDIwNi43OTYgNDI1LjkyNyAyMDYuNzk2IDQyNS45MjcgMjA2Ljc5NiA0MjUuOTI3IDIwNi43OTYgNDI2LjA3NiAyMDkuMDkzIDQyOC4wMTUgMjEwLjk0NCA0MzAuNDAyIDIxMC45NDQgNDMwLjQ3NiAyMTAuOTQ0IDQzMC41NTEgMjEwLjk0NCA0MzAuNjI1IDIxMC45NDQgNDMyLjQxNSAyMTYuMzUyIDQzMi40MTUgMjE2LjM1MiA0MzIuNDE1IDIxNi4zNTIgNDMyLjQ5IDIxNi40MjYgNDMyLjYzOSAyMTYuNSA0MzIuNzE0IDIxNi41IDQzMi43ODggMjE2LjUgNDMyLjc4OCAyMTYuNSA0MzIuNzg4IDIxNi41IDQzMy4wMTIgMjE2LjQyNiA0MzMuMDg2IDIxNi4yNzggNDMzLjAxMiAyMTYuMTMgNDMxLjIyMiAyMTAuODcgNDMxLjIyMiAyMTAuODcgNDMxLjIyMiAyMTAuODcgNDMzLjE2MSAyMTAuNSA0MzQuNzI3IDIwOC44NyA0MzQuODc2IDIwNi43OTYgNDM5LjIwMiAyMDYuNzk2IDQzOS4yMDIgMjA2Ljc5NiA0MzkuMjAyIDIwNi43OTYgNDM5LjM1MSAyMDYuNzk2IDQzOS41IDIwNi42NDggNDM5LjUgMjA2LjUgNDM5LjUgMjA2LjM1MiA0MzkuMzUxIDIwNi4yMDQgNDM5LjIwMiAyMDYuMjA0IDQzNC44NzYgMjA2LjIwNCA0MzQuODc2IDIwNi4yMDQgNDM0Ljg3NiAyMDYuMjA0IDQzNC43MjcgMjA0LjIwNCA0MzMuMTYxIDIwMi41IDQzMS4yMjIgMjAyLjEzIDQzMy4wMTIgMTk2Ljk0NCA0MzMuMDEyIDE5Ni45NDQgNDMzLjAxMiAxOTYuOTQ0IDQzMy4wODYgMTk2Ljc5NiA0MzIuOTM3IDE5Ni41NzQgNDMyLjc4OCAxOTYuNTc0IDQzMi42MzkgMTk2LjUgNDMyLjQ5IDE5Ni41NzQgNDMyLjQxNSAxOTYuNzIyIDQzMC42MjUgMjAyLjA1NiA0MzAuNjI1IDIwMi4wNTYgNDMwLjYyNSAyMDIuMDU2IDQzMC41NTEgMjAyLjA1NiA0MzAuNDc2IDIwMi4wNTYgNDMwLjQwMiAyMDIuMDU2IDQyOC4wMTUgMjAyLjA1NiA0MjYuMDc2IDIwMy45MDcgNDI1LjkyNyAyMDYuMjA0Wk00MjAuMTg1IDIwOC41QzQxOS4wNjYgMjA4LjUgNDE4LjA5NyAyMDcuNjExIDQxOC4wOTcgMjA2LjUgNDE4LjA5NyAyMDUuMzg5IDQxOS4wNjYgMjA0LjUgNDIwLjE4NSAyMDQuNSA0MjEuMzAzIDIwNC41IDQyMi4xOTggMjA1LjM4OSA0MjIuMTk4IDIwNi41IDQyMi4xOTggMjA3LjYxMSA0MjEuMzAzIDIwOC41IDQyMC4xODUgMjA4LjVaTTQzMC40MDIgMjAyLjY0OEM0MzIuNDkgMjAyLjY0OCA0MzQuMjggMjA0LjQyNiA0MzQuMjggMjA2LjUgNDM0LjI4IDIwOC42NDggNDMyLjQ5IDIxMC4zNTIgNDMwLjQwMiAyMTAuMzUyIDQyOC4yMzkgMjEwLjM1MiA0MjYuNTI0IDIwOC42NDggNDI2LjUyNCAyMDYuNSA0MjYuNTI0IDIwNC40MjYgNDI4LjIzOSAyMDIuNjQ4IDQzMC40MDIgMjAyLjY0OFoiIHN0cm9rZT0iIzAwMDAwMCIgc3Ryb2tlLXdpZHRoPSIwIiBzdHJva2UtbGluZWpvaW49InJvdW5kIiBzdHJva2UtbWl0ZXJsaW1pdD0iMTAiIGZpbGw9IiMzNzM3MzciIGZpbGwtcnVsZT0iZXZlbm9kZCIvPjxwYXRoIGQ9Ik00MjguOTU3IDE5OC4wODZDNDMyLjc2MSAxOTYuMzYyIDQzMi43NjEgMTk2LjM2MiA0MzIuNzYxIDE5Ni4zNjIgNDM0Ljg5MSAyMDAuMzI4IDQzNC44OTEgMjAwLjMyOCA0MzQuODkxIDIwMC4zMjggNDM0Ljk2NyAyMDAuNDE0IDQzNS4wNDQgMjAwLjUgNDM1LjEyIDIwMC41IDQzNS4xOTYgMjAwLjUgNDM1LjI3MiAyMDAuNSA0MzUuMjcyIDIwMC41IDQzNS40MjQgMjAwLjMyOCA0MzUuNSAyMDAuMTU1IDQzNS40MjQgMTk5Ljk4MyA0MzMuMjE3IDE5NS43NTkgNDMzLjIxNyAxOTUuNzU5IDQzMy4yMTcgMTk1Ljc1OSA0MzMuMDY1IDE5NS41ODYgNDMyLjkxMyAxOTUuNSA0MzIuODM3IDE5NS41ODYgNDI4LjcyOCAxOTcuMzk3IDQyOC43MjggMTk3LjM5NyA0MjguNzI4IDE5Ny4zOTcgNDI4LjU3NiAxOTcuNDgzIDQyOC41IDE5Ny43NDEgNDI4LjU3NiAxOTcuOTE0IDQyOC42NTIgMTk4LjA4NiA0MjguODA0IDE5OC4xNzIgNDI4Ljk1NyAxOTguMDg2WiIgc3Ryb2tlPSIjMDAwMDAwIiBzdHJva2Utd2lkdGg9IjAiIHN0cm9rZS1saW5lam9pbj0icm91bmQiIHN0cm9rZS1taXRlcmxpbWl0PSIxMCIgZmlsbD0iIzM3MzczNyIgZmlsbC1ydWxlPSJldmVub2RkIi8+PHBhdGggZD0iTTQzNC44OTEgMjEzLjcwN0M0MzIuODM3IDIxNi44NzkgNDMyLjgzNyAyMTYuODc5IDQzMi44MzcgMjE2Ljg3OSA0MjguOTU3IDIxNS41IDQyOC45NTcgMjE1LjUgNDI4Ljk1NyAyMTUuNSA0MjguODA0IDIxNS40MzEgNDI4LjY1MiAyMTUuNSA0MjguNTc2IDIxNS42MzggNDI4LjUgMjE1Ljc3NiA0MjguNTc2IDIxNS45MTQgNDI4LjcyOCAyMTUuOTgzIDQzMi44MzcgMjE3LjUgNDMyLjgzNyAyMTcuNSA0MzIuODM3IDIxNy41IDQzMi44MzcgMjE3LjUgNDMyLjkxMyAyMTcuNSA0MzIuOTEzIDIxNy41IDQzMy4wNjUgMjE3LjUgNDMzLjE0MSAyMTcuNDMxIDQzMy4yMTcgMjE3LjM2MiA0MzUuNDI0IDIxMy45ODMgNDM1LjQyNCAyMTMuOTgzIDQzNS40MjQgMjEzLjk4MyA0MzUuNSAyMTMuODQ1IDQzNS40MjQgMjEzLjYzOCA0MzUuMzQ4IDIxMy41NjkgNDM1LjE5NiAyMTMuNSA0MzQuOTY3IDIxMy41NjkgNDM0Ljg5MSAyMTMuNzA3WiIgc3Ryb2tlPSIjMDAwMDAwIiBzdHJva2Utd2lkdGg9IjAiIHN0cm9rZS1saW5lam9pbj0icm91bmQiIHN0cm9rZS1taXRlcmxpbWl0PSIxMCIgZmlsbD0iIzM3MzczNyIgZmlsbC1ydWxlPSJldmVub2RkIi8+PHBhdGggZD0iTTQyOS41IDE5Mi41QzQyMS4yMzUgMTkyLjUgNDE0LjUgMTk5LjAxIDQxNC41IDIwNyA0MTQuNSAyMDguNzc2IDQxNC44MDYgMjEwLjU1MSA0MTUuNDk1IDIxMi4xNzkgNDE1LjU3MiAyMTIuMzI3IDQxNS43MjUgMjEyLjQwMSA0MTUuODc4IDIxMi40MDEgNDE2LjAzMSAyMTIuMzI3IDQxNi4xMDcgMjEyLjEwNSA0MTYuMDMxIDIxMS45NTcgNDE1LjQxOCAyMTAuNDAzIDQxNS4xMTIgMjA4LjcwMiA0MTUuMTEyIDIwNyA0MTUuMTEyIDE5OS4zOCA0MjEuNTQxIDE5My4wOTIgNDI5LjUgMTkzLjA5MiA0MzcuNDU5IDE5My4wOTIgNDQzLjg4OCAxOTkuMzggNDQzLjg4OCAyMDcgNDQzLjg4OCAyMTQuNjk0IDQzNy40NTkgMjIwLjkwOCA0MjkuNSAyMjAuOTA4IDQyOC45NjQgMjIwLjkwOCA0MjguNDI5IDIyMC45MDggNDI3Ljk2OSAyMjAuODM0IDQyNy43NCAyMjAuODM0IDQyNy41ODcgMjIwLjk4MiA0MjcuNTg3IDIyMS4xMyA0MjcuNTg3IDIyMS4yNzggNDI3LjY2MyAyMjEuNDI2IDQyNy44OTMgMjIxLjQyNiA0MjguNDI5IDIyMS41IDQyOC45NjQgMjIxLjUgNDI5LjUgMjIxLjUgNDM3Ljc2NSAyMjEuNSA0NDQuNSAyMTQuOTkgNDQ0LjUgMjA3IDQ0NC41IDE5OS4wMSA0MzcuNzY1IDE5Mi41IDQyOS41IDE5Mi41WiIgc3Ryb2tlPSIjMDAwMDAwIiBzdHJva2Utd2lkdGg9IjAiIHN0cm9rZS1saW5lam9pbj0icm91bmQiIHN0cm9rZS1taXRlcmxpbWl0PSIxMCIgZmlsbD0iIzM3MzczNyIgZmlsbC1ydWxlPSJldmVub2RkIi8+PC9nPjwvc3ZnPg==;" vertex="1" parent="1">
                    <mxGeometry x="202.64999999999998" y="200" width="28.28" height="30" as="geometry"/>
                </mxCell>
                <mxCell id="18" value="" style="edgeStyle=orthogonalEdgeStyle;rounded=0;orthogonalLoop=1;jettySize=auto;html=1;fontColor=#000000;" edge="1" parent="1" source="7" target="6">
                    <mxGeometry relative="1" as="geometry">
                        <mxPoint x="160" y="215" as="sourcePoint"/>
                        <mxPoint x="776.2499999999999" y="215" as="targetPoint"/>
                    </mxGeometry>
                </mxCell>
                <mxCell id="7" value="" style="shape=image;verticalLabelPosition=bottom;labelBackgroundColor=#ffffff;verticalAlign=top;aspect=fixed;imageAspect=0;image=data:image/svg+xml,PHN2ZyB4bWxucz0iaHR0cDovL3d3dy53My5vcmcvMjAwMC9zdmciIHhtbG5zOnhsaW5rPSJodHRwOi8vd3d3LnczLm9yZy8xOTk5L3hsaW5rIiB3aWR0aD0iMzIiIGhlaWdodD0iMjgiIG92ZXJmbG93PSJoaWRkZW4iIHZpZXdCb3g9IjAgMCAzMiAyOCI+PGRlZnM+PGNsaXBQYXRoIGlkPSJjbGlwMCI+PHJlY3QgeD0iMzQ3IiB5PSIxOTMiIHdpZHRoPSIzMiIgaGVpZ2h0PSIyOCIvPjwvY2xpcFBhdGg+PC9kZWZzPjxnIGNsaXAtcGF0aD0idXJsKCNjbGlwMCkiIHRyYW5zZm9ybT0idHJhbnNsYXRlKC0zNDcgLTE5MykiPjxwYXRoIGQ9Ik0zNDguODAxIDE5NS41QzM0OC42MzQgMTk1LjUgMzQ4LjUgMTk1LjI3OCAzNDguNSAxOTUgMzQ4LjUgMTk0LjcyMiAzNDguNjM0IDE5NC41IDM0OC44MDEgMTk0LjUgMzc4LjE5OSAxOTQuNSAzNzguMTk5IDE5NC41IDM3OC4xOTkgMTk0LjUgMzc4LjE5OSAxOTQuNSAzNzguMTk5IDE5NC41IDM3OC4xOTkgMTk0LjUgMzc4LjM2NiAxOTQuNSAzNzguNSAxOTQuNzIyIDM3OC41IDE5NSAzNzguNSAxOTUuMjc4IDM3OC4zNjYgMTk1LjUgMzc4LjE5OSAxOTUuNSAzNDguODAxIDE5NS41IDM0OC44MDEgMTk1LjUgMzQ4LjgwMSAxOTUuNVoiIHN0cm9rZT0iIzAwMDAwMCIgc3Ryb2tlLXdpZHRoPSIwIiBzdHJva2UtbGluZWpvaW49InJvdW5kIiBzdHJva2UtbWl0ZXJsaW1pdD0iMTAiIGZpbGw9IiMzNzM3MzciIGZpbGwtcnVsZT0iZXZlbm9kZCIvPjxwYXRoIGQ9Ik0zNzguMTk5IDIwMS41QzM0OC44MDEgMjAxLjUgMzQ4LjgwMSAyMDEuNSAzNDguODAxIDIwMS41IDM0OC42MzQgMjAxLjUgMzQ4LjUgMjAxLjI5IDM0OC41IDIwMS4wMjYgMzQ4LjUgMjAwLjcxMSAzNDguNjM0IDIwMC41IDM0OC44MDEgMjAwLjUgMzc4LjE5OSAyMDAuNSAzNzguMTk5IDIwMC41IDM3OC4xOTkgMjAwLjUgMzc4LjM2NiAyMDAuNSAzNzguNSAyMDAuNzExIDM3OC41IDIwMS4wMjYgMzc4LjUgMjAxLjI5IDM3OC4zNjYgMjAxLjUgMzc4LjE5OSAyMDEuNVoiIHN0cm9rZT0iIzAwMDAwMCIgc3Ryb2tlLXdpZHRoPSIwIiBzdHJva2UtbGluZWpvaW49InJvdW5kIiBzdHJva2UtbWl0ZXJsaW1pdD0iMTAiIGZpbGw9IiMzNzM3MzciIGZpbGwtcnVsZT0iZXZlbm9kZCIvPjxwYXRoIGQ9Ik0zNzguMTk5IDIwOC41QzM0OC44MDEgMjA4LjUgMzQ4LjgwMSAyMDguNSAzNDguODAxIDIwOC41IDM0OC42MzQgMjA4LjUgMzQ4LjUgMjA4LjI3OCAzNDguNSAyMDggMzQ4LjUgMjA3LjcyMiAzNDguNjM0IDIwNy41IDM0OC44MDEgMjA3LjUgMzc4LjE5OSAyMDcuNSAzNzguMTk5IDIwNy41IDM3OC4xOTkgMjA3LjUgMzc4LjM2NiAyMDcuNSAzNzguNSAyMDcuNzIyIDM3OC41IDIwOCAzNzguNSAyMDguMjc4IDM3OC4zNjYgMjA4LjUgMzc4LjE5OSAyMDguNVoiIHN0cm9rZT0iIzAwMDAwMCIgc3Ryb2tlLXdpZHRoPSIwIiBzdHJva2UtbGluZWpvaW49InJvdW5kIiBzdHJva2UtbWl0ZXJsaW1pdD0iMTAiIGZpbGw9IiMzNzM3MzciIGZpbGwtcnVsZT0iZXZlbm9kZCIvPjxwYXRoIGQ9Ik0zNzguMTk5IDIxNC41QzM0OC44MDEgMjE0LjUgMzQ4LjgwMSAyMTQuNSAzNDguODAxIDIxNC41IDM0OC42MzQgMjE0LjUgMzQ4LjUgMjE0LjI3OCAzNDguNSAyMTQgMzQ4LjUgMjEzLjcyMiAzNDguNjM0IDIxMy41IDM0OC44MDEgMjEzLjUgMzc4LjE5OSAyMTMuNSAzNzguMTk5IDIxMy41IDM3OC4xOTkgMjEzLjUgMzc4LjM2NiAyMTMuNSAzNzguNSAyMTMuNzIyIDM3OC41IDIxNCAzNzguNSAyMTQuMjc4IDM3OC4zNjYgMjE0LjUgMzc4LjE5OSAyMTQuNVoiIHN0cm9rZT0iIzAwMDAwMCIgc3Ryb2tlLXdpZHRoPSIwIiBzdHJva2UtbGluZWpvaW49InJvdW5kIiBzdHJva2UtbWl0ZXJsaW1pdD0iMTAiIGZpbGw9IiMzNzM3MzciIGZpbGwtcnVsZT0iZXZlbm9kZCIvPjxwYXRoIGQ9Ik0zNTggMjAxLjVDMzU3LjcyMiAyMDEuNSAzNTcuNSAyMDEuMzU3IDM1Ny41IDIwMS4xNzkgMzU3LjUgMTk0LjgyMSAzNTcuNSAxOTQuODIxIDM1Ny41IDE5NC44MjEgMzU3LjUgMTk0LjY0MyAzNTcuNzIyIDE5NC41IDM1OCAxOTQuNSAzNTguMjc4IDE5NC41IDM1OC41IDE5NC42NDMgMzU4LjUgMTk0LjgyMSAzNTguNSAyMDEuMTc5IDM1OC41IDIwMS4xNzkgMzU4LjUgMjAxLjE3OSAzNTguNSAyMDEuMzU3IDM1OC4yNzggMjAxLjUgMzU4IDIwMS41WiIgc3Ryb2tlPSIjMDAwMDAwIiBzdHJva2Utd2lkdGg9IjAiIHN0cm9rZS1saW5lam9pbj0icm91bmQiIHN0cm9rZS1taXRlcmxpbWl0PSIxMCIgZmlsbD0iIzM3MzczNyIgZmlsbC1ydWxlPSJldmVub2RkIi8+PHBhdGggZD0iTTM2OS45NzQgMjAxLjVDMzY5LjcxMSAyMDEuNSAzNjkuNSAyMDEuMzU3IDM2OS41IDIwMS4xNzkgMzY5LjUgMTk0LjgyMSAzNjkuNSAxOTQuODIxIDM2OS41IDE5NC44MjEgMzY5LjUgMTk0LjY0MyAzNjkuNzExIDE5NC41IDM2OS45NzQgMTk0LjUgMzcwLjIzNyAxOTQuNSAzNzAuNSAxOTQuNjQzIDM3MC41IDE5NC44MjEgMzcwLjUgMjAxLjE3OSAzNzAuNSAyMDEuMTc5IDM3MC41IDIwMS4xNzkgMzcwLjUgMjAxLjM1NyAzNzAuMjM3IDIwMS41IDM2OS45NzQgMjAxLjVaIiBzdHJva2U9IiMwMDAwMDAiIHN0cm9rZS13aWR0aD0iMCIgc3Ryb2tlLWxpbmVqb2luPSJyb3VuZCIgc3Ryb2tlLW1pdGVybGltaXQ9IjEwIiBmaWxsPSIjMzczNzM3IiBmaWxsLXJ1bGU9ImV2ZW5vZGQiLz48cGF0aCBkPSJNMzU4IDIxNC41QzM1Ny43MjIgMjE0LjUgMzU3LjUgMjE0LjM2MSAzNTcuNSAyMTQuMTg3IDM1Ny41IDIwNy44MTMgMzU3LjUgMjA3LjgxMyAzNTcuNSAyMDcuODEzIDM1Ny41IDIwNy42MzkgMzU3LjcyMiAyMDcuNSAzNTggMjA3LjUgMzU4LjI3OCAyMDcuNSAzNTguNSAyMDcuNjM5IDM1OC41IDIwNy44MTMgMzU4LjUgMjE0LjE4NyAzNTguNSAyMTQuMTg3IDM1OC41IDIxNC4xODcgMzU4LjUgMjE0LjM2MSAzNTguMjc4IDIxNC41IDM1OCAyMTQuNVoiIHN0cm9rZT0iIzAwMDAwMCIgc3Ryb2tlLXdpZHRoPSIwIiBzdHJva2UtbGluZWpvaW49InJvdW5kIiBzdHJva2UtbWl0ZXJsaW1pdD0iMTAiIGZpbGw9IiMzNzM3MzciIGZpbGwtcnVsZT0iZXZlbm9kZCIvPjxwYXRoIGQ9Ik0zNjkuOTc0IDIxNC41QzM2OS43MTEgMjE0LjUgMzY5LjUgMjE0LjM2MSAzNjkuNSAyMTQuMTg3IDM2OS41IDIwNy44MTMgMzY5LjUgMjA3LjgxMyAzNjkuNSAyMDcuODEzIDM2OS41IDIwNy42MzkgMzY5LjcxMSAyMDcuNSAzNjkuOTc0IDIwNy41IDM3MC4yMzcgMjA3LjUgMzcwLjUgMjA3LjYzOSAzNzAuNSAyMDcuODEzIDM3MC41IDIxNC4xODcgMzcwLjUgMjE0LjE4NyAzNzAuNSAyMTQuMTg3IDM3MC41IDIxNC4zNjEgMzcwLjIzNyAyMTQuNSAzNjkuOTc0IDIxNC41WiIgc3Ryb2tlPSIjMDAwMDAwIiBzdHJva2Utd2lkdGg9IjAiIHN0cm9rZS1saW5lam9pbj0icm91bmQiIHN0cm9rZS1taXRlcmxpbWl0PSIxMCIgZmlsbD0iIzM3MzczNyIgZmlsbC1ydWxlPSJldmVub2RkIi8+PHBhdGggZD0iTTM3NiAyMDcuNUMzNzUuNzIyIDIwNy41IDM3NS41IDIwNy4zNjEgMzc1LjUgMjA3LjE4OCAzNzUuNSAyMDAuODQ3IDM3NS41IDIwMC44NDcgMzc1LjUgMjAwLjg0NyAzNzUuNSAyMDAuNjM5IDM3NS43MjIgMjAwLjUgMzc2IDIwMC41IDM3Ni4yNzggMjAwLjUgMzc2LjUgMjAwLjYzOSAzNzYuNSAyMDAuODQ3IDM3Ni41IDIwNy4xODggMzc2LjUgMjA3LjE4OCAzNzYuNSAyMDcuMTg4IDM3Ni41IDIwNy4zNjEgMzc2LjI3OCAyMDcuNSAzNzYgMjA3LjVaIiBzdHJva2U9IiMwMDAwMDAiIHN0cm9rZS13aWR0aD0iMCIgc3Ryb2tlLWxpbmVqb2luPSJyb3VuZCIgc3Ryb2tlLW1pdGVybGltaXQ9IjEwIiBmaWxsPSIjMzczNzM3IiBmaWxsLXJ1bGU9ImV2ZW5vZGQiLz48cGF0aCBkPSJNMzUxLjAyNiAyMDcuNUMzNTAuNzYzIDIwNy41IDM1MC41IDIwNy4zNjEgMzUwLjUgMjA3LjE4OCAzNTAuNSAyMDAuODQ3IDM1MC41IDIwMC44NDcgMzUwLjUgMjAwLjg0NyAzNTAuNSAyMDAuNjM5IDM1MC43NjMgMjAwLjUgMzUxLjAyNiAyMDAuNSAzNTEuMjkgMjAwLjUgMzUxLjUgMjAwLjYzOSAzNTEuNSAyMDAuODQ3IDM1MS41IDIwNy4xODggMzUxLjUgMjA3LjE4OCAzNTEuNSAyMDcuMTg4IDM1MS41IDIwNy4zNjEgMzUxLjI5IDIwNy41IDM1MS4wMjYgMjA3LjVaIiBzdHJva2U9IiMwMDAwMDAiIHN0cm9rZS13aWR0aD0iMCIgc3Ryb2tlLWxpbmVqb2luPSJyb3VuZCIgc3Ryb2tlLW1pdGVybGltaXQ9IjEwIiBmaWxsPSIjMzczNzM3IiBmaWxsLXJ1bGU9ImV2ZW5vZGQiLz48cGF0aCBkPSJNMzY0IDIwNy41QzM2My43MjIgMjA3LjUgMzYzLjUgMjA3LjM2MSAzNjMuNSAyMDcuMTg4IDM2My41IDIwMC44NDcgMzYzLjUgMjAwLjg0NyAzNjMuNSAyMDAuODQ3IDM2My41IDIwMC42MzkgMzYzLjcyMiAyMDAuNSAzNjQgMjAwLjUgMzY0LjI3OCAyMDAuNSAzNjQuNSAyMDAuNjM5IDM2NC41IDIwMC44NDcgMzY0LjUgMjA3LjE4OCAzNjQuNSAyMDcuMTg4IDM2NC41IDIwNy4xODggMzY0LjUgMjA3LjM2MSAzNjQuMjc4IDIwNy41IDM2NCAyMDcuNVoiIHN0cm9rZT0iIzAwMDAwMCIgc3Ryb2tlLXdpZHRoPSIwIiBzdHJva2UtbGluZWpvaW49InJvdW5kIiBzdHJva2UtbWl0ZXJsaW1pdD0iMTAiIGZpbGw9IiMzNzM3MzciIGZpbGwtcnVsZT0iZXZlbm9kZCIvPjxwYXRoIGQ9Ik0zNzguMTk5IDIyMS41QzM0OC44MDEgMjIxLjUgMzQ4LjgwMSAyMjEuNSAzNDguODAxIDIyMS41IDM0OC42MzQgMjIxLjUgMzQ4LjUgMjIxLjIzNyAzNDguNSAyMjAuOTc0IDM0OC41IDIyMC43MTEgMzQ4LjYzNCAyMjAuNSAzNDguODAxIDIyMC41IDM3OC4xOTkgMjIwLjUgMzc4LjE5OSAyMjAuNSAzNzguMTk5IDIyMC41IDM3OC4zNjYgMjIwLjUgMzc4LjUgMjIwLjcxMSAzNzguNSAyMjAuOTc0IDM3OC41IDIyMS4yMzcgMzc4LjM2NiAyMjEuNSAzNzguMTk5IDIyMS41WiIgc3Ryb2tlPSIjMDAwMDAwIiBzdHJva2Utd2lkdGg9IjAiIHN0cm9rZS1saW5lam9pbj0icm91bmQiIHN0cm9rZS1taXRlcmxpbWl0PSIxMCIgZmlsbD0iIzM3MzczNyIgZmlsbC1ydWxlPSJldmVub2RkIi8+PHBhdGggZD0iTTM3NiAyMjAuNUMzNzUuNzIyIDIyMC41IDM3NS41IDIyMC4zMjIgMzc1LjUgMjIwLjE0NSAzNzUuNSAyMTMuODIgMzc1LjUgMjEzLjgyIDM3NS41IDIxMy44MiAzNzUuNSAyMTMuNjQyIDM3NS43MjIgMjEzLjUgMzc2IDIxMy41IDM3Ni4yNzggMjEzLjUgMzc2LjUgMjEzLjY0MiAzNzYuNSAyMTMuODIgMzc2LjUgMjIwLjE0NSAzNzYuNSAyMjAuMTQ1IDM3Ni41IDIyMC4xNDUgMzc2LjUgMjIwLjMyMiAzNzYuMjc4IDIyMC41IDM3NiAyMjAuNVoiIHN0cm9rZT0iIzAwMDAwMCIgc3Ryb2tlLXdpZHRoPSIwIiBzdHJva2UtbGluZWpvaW49InJvdW5kIiBzdHJva2UtbWl0ZXJsaW1pdD0iMTAiIGZpbGw9IiMzNzM3MzciIGZpbGwtcnVsZT0iZXZlbm9kZCIvPjxwYXRoIGQ9Ik0zNTEuMDI2IDIyMC41QzM1MC43NjMgMjIwLjUgMzUwLjUgMjIwLjMyMiAzNTAuNSAyMjAuMTQ1IDM1MC41IDIxMy44MiAzNTAuNSAyMTMuODIgMzUwLjUgMjEzLjgyIDM1MC41IDIxMy42NDIgMzUwLjc2MyAyMTMuNSAzNTEuMDI2IDIxMy41IDM1MS4yOSAyMTMuNSAzNTEuNSAyMTMuNjQyIDM1MS41IDIxMy44MiAzNTEuNSAyMjAuMTQ1IDM1MS41IDIyMC4xNDUgMzUxLjUgMjIwLjE0NSAzNTEuNSAyMjAuMzIyIDM1MS4yOSAyMjAuNSAzNTEuMDI2IDIyMC41WiIgc3Ryb2tlPSIjMDAwMDAwIiBzdHJva2Utd2lkdGg9IjAiIHN0cm9rZS1saW5lam9pbj0icm91bmQiIHN0cm9rZS1taXRlcmxpbWl0PSIxMCIgZmlsbD0iIzM3MzczNyIgZmlsbC1ydWxlPSJldmVub2RkIi8+PHBhdGggZD0iTTM2NCAyMjAuNUMzNjMuNzIyIDIyMC41IDM2My41IDIyMC4zMjIgMzYzLjUgMjIwLjE0NSAzNjMuNSAyMTMuODIgMzYzLjUgMjEzLjgyIDM2My41IDIxMy44MiAzNjMuNSAyMTMuNjQyIDM2My43MjIgMjEzLjUgMzY0IDIxMy41IDM2NC4yNzggMjEzLjUgMzY0LjUgMjEzLjY0MiAzNjQuNSAyMTMuODIgMzY0LjUgMjIwLjE0NSAzNjQuNSAyMjAuMTQ1IDM2NC41IDIyMC4xNDUgMzY0LjUgMjIwLjMyMiAzNjQuMjc4IDIyMC41IDM2NCAyMjAuNVoiIHN0cm9rZT0iIzAwMDAwMCIgc3Ryb2tlLXdpZHRoPSIwIiBzdHJva2UtbGluZWpvaW49InJvdW5kIiBzdHJva2UtbWl0ZXJsaW1pdD0iMTAiIGZpbGw9IiMzNzM3MzciIGZpbGwtcnVsZT0iZXZlbm9kZCIvPjwvZz48L3N2Zz4=;" vertex="1" parent="1">
                    <mxGeometry x="163.17999999999995" y="200" width="34.29" height="30" as="geometry"/>
                </mxCell>
                <mxCell id="19" value="" style="edgeStyle=orthogonalEdgeStyle;rounded=0;orthogonalLoop=1;jettySize=auto;html=1;fontColor=#000000;" edge="1" parent="1" source="4" target="7">
                    <mxGeometry relative="1" as="geometry">
                        <mxPoint x="160" y="215" as="sourcePoint"/>
                        <mxPoint x="202.64999999999998" y="215" as="targetPoint"/>
                    </mxGeometry>
                </mxCell>
                <mxCell id="20" value="" style="shape=image;verticalLabelPosition=bottom;labelBackgroundColor=#ffffff;verticalAlign=top;aspect=fixed;imageAspect=0;image=data:image/svg+xml,PHN2ZyB4bWxucz0iaHR0cDovL3d3dy53My5vcmcvMjAwMC9zdmciIHhtbG5zOnhsaW5rPSJodHRwOi8vd3d3LnczLm9yZy8xOTk5L3hsaW5rIiB3aWR0aD0iNDYiIGhlaWdodD0iMzciIG92ZXJmbG93PSJoaWRkZW4iIHZpZXdCb3g9IjAgMCA0NiAzNyI+PGRlZnM+PGNsaXBQYXRoIGlkPSJjbGlwMCI+PHJlY3QgeD0iMzQiIHk9IjIxMyIgd2lkdGg9IjQ2IiBoZWlnaHQ9IjM3Ii8+PC9jbGlwUGF0aD48L2RlZnM+PGcgY2xpcC1wYXRoPSJ1cmwoI2NsaXAwKSIgdHJhbnNmb3JtPSJ0cmFuc2xhdGUoLTM0IC0yMTMpIj48cGF0aCBkPSJNODAgMjM4Ljc0MUM4MCAyMjQuNTc0IDgwIDIyNC41NzQgODAgMjI0LjU3NCA4MCAyMjMuNjMgNzkuMzMzMyAyMjMgNzguNjY2NyAyMjMgNzcuNjY2NyAyMjMgNzcgMjIzLjYzIDc3IDIyNC41NzQgNzcgMjM4Ljc0MSA3NyAyMzguNzQxIDc3IDIzOC43NDEgNzcgMjM5LjM3IDc3LjY2NjcgMjQwIDc4LjY2NjcgMjQwIDc5LjMzMzMgMjQwIDgwIDIzOS4zNyA4MCAyMzguNzQxWiIgZmlsbD0iI0MwMDAwMCIgZmlsbC1ydWxlPSJldmVub2RkIi8+PHBhdGggZD0iTTM1Ljg4ODkgMjIzQzM1LjQ0NDQgMjIzIDM1IDIyMy42MyAzNSAyMjQuNTc0IDM1IDIzOC43NDEgMzUgMjM4Ljc0MSAzNSAyMzguNzQxIDM1IDIzOS4zNyAzNS40NDQ0IDI0MCAzNS44ODg5IDI0MCAzNi41NTU2IDI0MCAzNyAyMzkuMzcgMzcgMjM4Ljc0MSAzNyAyMjQuNTc0IDM3IDIyNC41NzQgMzcgMjI0LjU3NCAzNyAyMjMuNjMgMzYuNTU1NiAyMjMgMzUuODg4OSAyMjNaIiBmaWxsPSIjQzAwMDAwIiBmaWxsLXJ1bGU9ImV2ZW5vZGQiLz48cGF0aCBkPSJNNjUgMjMzQzY4LjgxODIgMjMzIDcyIDIzMC4wNDUgNzIgMjI2LjUgNzIgMjIyLjk1NSA2OC44MTgyIDIyMCA2NSAyMjAgNjAuODYzNiAyMjAgNTggMjIyLjY1OSA1OCAyMjYuNSA1OCAyMzAuMDQ1IDYwLjg2MzYgMjMzIDY1IDIzM1pNNjUgMjIyLjM2NEM2Ny4yMjczIDIyMi4zNjQgNjkuNDU0NSAyMjQuMTM2IDY5LjQ1NDUgMjI2LjUgNjkuNDU0NSAyMjguNTY4IDY3LjIyNzMgMjMwLjYzNiA2NSAyMzAuNjM2IDYyLjQ1NDUgMjMwLjYzNiA2MC41NDU1IDIyOC44NjQgNjAuNTQ1NSAyMjYuNSA2MC41NDU1IDIyNC4xMzYgNjIuNDU0NSAyMjIuMzY0IDY1IDIyMi4zNjRaIiBmaWxsPSIjQzAwMDAwIiBmaWxsLXJ1bGU9ImV2ZW5vZGQiLz48cGF0aCBkPSJNNTAuMTU1NiAyMzNDNTMuODg4OSAyMzMgNTcgMjMwLjA0NSA1NyAyMjYuNSA1NyAyMjIuOTU1IDUzLjg4ODkgMjIwIDUwLjE1NTYgMjIwIDQ2LjExMTEgMjIwIDQzIDIyMi45NTUgNDMgMjI2LjUgNDMgMjMwLjA0NSA0Ni4xMTExIDIzMyA1MC4xNTU2IDIzM1pNNTAuMTU1NiAyMjIuMzY0QzUyLjMzMzMgMjIyLjM2NCA1NC41MTExIDIyNC4xMzYgNTQuNTExMSAyMjYuNSA1NC41MTExIDIyOC41NjggNTIuMzMzMyAyMzAuNjM2IDUwLjE1NTYgMjMwLjYzNiA0Ny42NjY3IDIzMC42MzYgNDUuNDg4OSAyMjguNTY4IDQ1LjQ4ODkgMjI2LjUgNDUuNDg4OSAyMjQuMTM2IDQ3LjY2NjcgMjIyLjM2NCA1MC4xNTU2IDIyMi4zNjRaIiBmaWxsPSIjQzAwMDAwIiBmaWxsLXJ1bGU9ImV2ZW5vZGQiLz48cGF0aCBkPSJNNzEuODg4OSAyMTRDNzEuODg4OSAyMTQgNzEuODg4OSAyMTQgNzEuODg4OSAyMTQgNDMuMTExMSAyMTQgNDMuMTExMSAyMTQgNDMuMTExMSAyMTQgNDAuODk3NCAyMTQgMzkgMjE1Ljg0MiAzOSAyMTcuOTkxIDM5IDI0NC43MDIgMzkgMjQ0LjcwMiAzOSAyNDQuNzAyIDM5IDI0Ny4xNTggNDAuODk3NCAyNDkgNDMuMTExMSAyNDkgNzEuODg4OSAyNDkgNzEuODg4OSAyNDkgNzEuODg4OSAyNDkgNzQuMTAyNiAyNDkgNzYgMjQ3LjE1OCA3NiAyNDQuNzAyIDc2IDIxNy45OTEgNzYgMjE3Ljk5MSA3NiAyMTcuOTkxIDc2IDIxNS44NDIgNzQuNDE4OCAyMTQgNzEuODg4OSAyMTRaTTczLjQ3MDEgMjQ0LjcwMkM3My40NzAxIDI0NS45MyA3Mi44Mzc2IDI0Ni41NDQgNzEuODg4OSAyNDYuNTQ0IDQzLjExMTEgMjQ2LjU0NCA0My4xMTExIDI0Ni41NDQgNDMuMTExMSAyNDYuNTQ0IDQyLjE2MjQgMjQ2LjU0NCA0MS41Mjk5IDI0NS45MyA0MS41Mjk5IDI0NC43MDIgNDEuNTI5OSAyMTcuOTkxIDQxLjUyOTkgMjE3Ljk5MSA0MS41Mjk5IDIxNy45OTEgNDEuNTI5OSAyMTcuMDcgNDIuMTYyNCAyMTYuNDU2IDQzLjExMTEgMjE2LjQ1NiA3MS44ODg5IDIxNi40NTYgNzEuODg4OSAyMTYuNDU2IDcxLjg4ODkgMjE2LjQ1NiA3Mi44Mzc2IDIxNi40NTYgNzMuNDcwMSAyMTcuMDcgNzMuNDcwMSAyMTcuOTkxTDczLjQ3MDEgMjQ0LjcwMloiIGZpbGw9IiNDMDAwMDAiIGZpbGwtcnVsZT0iZXZlbm9kZCIvPjxwYXRoIGQ9Ik02Ny4zNjM2IDIzNC4yNjNDNjYuNzM3NCAyMzMuNjMyIDY2LjExMTEgMjMzLjMxNiA2NS4xNzE3IDIzMy4zMTYgNjQuNTQ1NSAyMzMgNjMuNjA2MSAyMzMuNjMyIDYyLjk3OTggMjM0LjI2MyA2MC4xNjE2IDIzNy43MzcgNjAuMTYxNiAyMzcuNzM3IDYwLjE2MTYgMjM3LjczNyA1Ny4wMzAzIDIzNC4yNjMgNTcuMDMwMyAyMzQuMjYzIDU3LjAzMDMgMjM0LjI2MyA1Ni43MTcyIDIzMy42MzIgNTUuNzc3OCAyMzMgNTQuODM4NCAyMzMgNTQuMjEyMSAyMzMgNTMuMjcyNyAyMzMuNjMyIDUyLjk1OTYgMjM0LjI2MyA0OS44MjgzIDIzNy43MzcgNDkuODI4MyAyMzcuNzM3IDQ5LjgyODMgMjM3LjczNyA0Ny4wMTAxIDIzNC4yNjMgNDcuMDEwMSAyMzQuMjYzIDQ3LjAxMDEgMjM0LjI2MyA0Ni42OTcgMjMzLjYzMiA0NS43NTc2IDIzMy4zMTYgNDUuMTMxMyAyMzMgNDQuNTA1MSAyMzMgNDMuNTY1NyAyMzMuMzE2IDQzLjI1MjUgMjMzLjYzMiA0Mi42MjYzIDIzNC4yNjMgNDIgMjM0Ljg5NSA0MiAyMzUuNTI2IDQyIDIzNi40NzQgNDIuMzEzMSAyMzcuMTA1IDQyLjYyNjMgMjM3LjczNyA0Ny42MzY0IDI0My43MzcgNDcuNjM2NCAyNDMuNzM3IDQ3LjYzNjQgMjQzLjczNyA0OC4yNjI2IDI0NC4zNjggNDkuMjAyIDI0NSA0OS44MjgzIDI0NSA1MC43Njc3IDI0NSA1MS43MDcxIDI0NC4zNjggNTIuMDIwMiAyNDMuNzM3IDU0LjgzODQgMjQwLjI2MyA1NC44Mzg0IDI0MC4yNjMgNTQuODM4NCAyNDAuMjYzIDU3Ljk2OTcgMjQzLjczNyA1Ny45Njk3IDI0My43MzcgNTcuOTY5NyAyNDMuNzM3IDU4LjI4MjggMjQ0LjM2OCA1OS4yMjIyIDI0NSA2MC4xNjE2IDI0NSA2MC43ODc5IDI0NSA2MS43MjczIDI0NC4zNjggNjIuMDQwNCAyNDMuNzM3IDY1LjE3MTcgMjQwLjI2MyA2NS4xNzE3IDI0MC4yNjMgNjUuMTcxNyAyNDAuMjYzIDY3Ljk4OTkgMjQzLjczNyA2Ny45ODk5IDI0My43MzcgNjcuOTg5OSAyNDMuNzM3IDY4LjYxNjIgMjQ0LjM2OCA2OS4yNDI0IDI0NSA3MC4xODE4IDI0NSA3MC44MDgxIDI0NSA3MS40MzQzIDI0NC42ODQgNzIuMDYwNiAyNDQuMDUzIDcyLjM3MzcgMjQzLjczNyA3Mi42ODY5IDI0My4xMDUgNzMgMjQyLjQ3NCA3MyAyNDEuODQyIDczIDI0MC44OTUgNzIuMzczNyAyNDAuMjYzTDY3LjM2MzYgMjM0LjI2M1pNNzAuNDk0OSAyNDIuMTU4QzcwLjQ5NDkgMjQyLjE1OCA3MC4xODE4IDI0Mi4xNTggNzAuMTgxOCAyNDIuNDc0IDcwLjE4MTggMjQyLjQ3NCA3MC4xODE4IDI0Mi4xNTggNjkuODY4NyAyNDIuMTU4IDY2LjExMTEgMjM3LjQyMSA2Ni4xMTExIDIzNy40MjEgNjYuMTExMSAyMzcuNDIxIDY1Ljc5OCAyMzcuMTA1IDY1LjQ4NDggMjM3LjEwNSA2NS4xNzE3IDIzNy4xMDUgNjQuODU4NiAyMzcuMTA1IDY0LjU0NTUgMjM3LjEwNSA2NC4yMzIzIDIzNy40MjEgNjAuMTYxNiAyNDIuMTU4IDYwLjE2MTYgMjQyLjE1OCA2MC4xNjE2IDI0Mi4xNTggNjAuMTYxNiAyNDIuMTU4IDYwLjE2MTYgMjQyLjQ3NCA2MC4xNjE2IDI0Mi40NzQgNTkuODQ4NSAyNDIuNDc0IDU5Ljg0ODUgMjQyLjE1OCA1OS44NDg1IDI0Mi4xNTggNTUuNzc3OCAyMzcuNDIxIDU1Ljc3NzggMjM3LjQyMSA1NS43Nzc4IDIzNy40MjEgNTUuNzc3OCAyMzcuMTA1IDU1LjE1MTUgMjM3LjEwNSA1NC44Mzg0IDIzNy4xMDUgNTQuODM4NCAyMzcuMTA1IDU0LjgzODQgMjM3LjEwNSA1NC44Mzg0IDIzNy4xMDUgNTQuNTI1MyAyMzcuMTA1IDU0LjIxMjEgMjM3LjEwNSA1My44OTkgMjM3LjQyMSA1MC4xNDE0IDI0Mi4xNTggNTAuMTQxNCAyNDIuMTU4IDUwLjE0MTQgMjQyLjE1OCA1MC4xNDE0IDI0Mi40NzQgNDkuODI4MyAyNDIuNDc0IDQ5LjgyODMgMjQyLjE1OCA0NC41MDUxIDIzNi4xNTggNDQuNTA1MSAyMzYuMTU4IDQ0LjUwNTEgMjM2LjE1OCA0NC41MDUxIDIzNS44NDIgNDQuNTA1MSAyMzUuODQyIDQ0LjUwNTEgMjM1Ljg0MiA0NC44MTgyIDIzNS44NDIgNDQuODE4MiAyMzUuODQyIDQ0LjgxODIgMjM1Ljg0MiA0NC44MTgyIDIzNS41MjYgNDQuODE4MiAyMzUuNTI2IDQ0LjgxODIgMjM1LjUyNiA0OC44ODg5IDI0MC41NzkgNDguODg4OSAyNDAuNTc5IDQ4Ljg4ODkgMjQwLjU3OSA0OS41MTUyIDI0MC44OTUgNTAuNDU0NSAyNDAuODk1IDUwLjc2NzcgMjQwLjU3OSA1NC44Mzg0IDIzNS44NDIgNTQuODM4NCAyMzUuODQyIDU0LjgzODQgMjM1Ljg0MiA1NC44Mzg0IDIzNS41MjYgNTUuMTUxNSAyMzUuNTI2IDU1LjE1MTUgMjM1Ljg0MiA1OS4yMjIyIDI0MC41NzkgNTkuMjIyMiAyNDAuNTc5IDU5LjIyMjIgMjQwLjU3OSA1OS41MzU0IDI0MC44OTUgNjAuNDc0NyAyNDAuODk1IDYxLjEwMSAyNDAuNTc5IDY0Ljg1ODYgMjM1Ljg0MiA2NC44NTg2IDIzNS44NDIgNjQuODU4NiAyMzUuODQyIDY0Ljg1ODYgMjM1Ljg0MiA2NS4xNzE3IDIzNS41MjYgNjUuMTcxNyAyMzUuODQyIDcwLjQ5NDkgMjQxLjg0MiA3MC40OTQ5IDI0MS44NDIgNzAuNDk0OSAyNDEuODQyIDcwLjQ5NDkgMjQxLjg0MiA3MC40OTQ5IDI0MS44NDIgNzAuNDk0OSAyNDIuMTU4IDcwLjQ5NDkgMjQyLjE1OCA3MC40OTQ5IDI0Mi4xNTggNzAuNDk0OSAyNDIuMTU4WiIgZmlsbD0iI0MwMDAwMCIgZmlsbC1ydWxlPSJldmVub2RkIi8+PC9nPjwvc3ZnPg==;" vertex="1" parent="1">
                    <mxGeometry y="193" width="33.57" height="27" as="geometry"/>
                </mxCell>
                <mxCell id="21" value="" style="shape=image;verticalLabelPosition=bottom;labelBackgroundColor=#ffffff;verticalAlign=top;aspect=fixed;imageAspect=0;image=data:image/svg+xml,PHN2ZyB4bWxucz0iaHR0cDovL3d3dy53My5vcmcvMjAwMC9zdmciIHhtbG5zOnhsaW5rPSJodHRwOi8vd3d3LnczLm9yZy8xOTk5L3hsaW5rIiB3aWR0aD0iNDciIGhlaWdodD0iNTIiIG92ZXJmbG93PSJoaWRkZW4iIHZpZXdCb3g9IjAgMCA0NyA1MiI+PGRlZnM+PGNsaXBQYXRoIGlkPSJjbGlwMCI+PHJlY3QgeD0iMzEiIHk9IjM0OSIgd2lkdGg9IjQ3IiBoZWlnaHQ9IjUyIi8+PC9jbGlwUGF0aD48L2RlZnM+PGcgY2xpcC1wYXRoPSJ1cmwoI2NsaXAwKSIgdHJhbnNmb3JtPSJ0cmFuc2xhdGUoLTMxIC0zNDkpIj48cGF0aCBkPSJNNjAuMDU1MiAzODMuNUM1OS44MjU0IDM4My41IDU5LjY0MTYgMzgzLjMxMyA1OS42NDE2IDM4My4wOCA1OS41OTU2IDM3OC44MzIgNTkuNTk1NiAzNzguODMyIDU5LjU5NTYgMzc4LjgzMiA1OS41OTU2IDM3OC41OTkgNTkuNzc5NSAzNzguNDEyIDYwLjAwOTIgMzc4LjM2NSA2MC4wNTUyIDM3OC4zNjUgNjIuOTA0NSAzNzguMjI1IDY0Ljc0MjcgMzc1Ljk4NSA2Ni4xMjE0IDM3NC4zMDQgNjYuNjI2OSAzNzEuOTI0IDY2LjI1OTIgMzY4Ljg5IDY1LjUyMzkgMzYzLjE0OCA2MS4yOTYgMzYwLjUzNCA1OC44NjAzIDM1OS40NjEgNTYuMzc4NyAzNTguMzg3IDUzLjYyMTQgMzU4LjM4NyA1MS4xMzk4IDM1OS40NjEgNDguNzA0MSAzNjAuNTM0IDQ0LjUyMjEgMzYzLjE0OCA0My43ODY4IDM2OC44OSA0My4zNzMyIDM3MS45NyA0My44Nzg3IDM3NC4zNTEgNDUuMjU3NCAzNzUuOTg1IDQ3LjA5NTYgMzc4LjIyNSA0OS44OTg5IDM3OC4zNjUgNDkuOTQ0OSAzNzguMzY1IDUwLjE3NDcgMzc4LjQxMiA1MC4zNTg1IDM3OC41OTkgNTAuMzU4NSAzNzguODMyIDUwLjM1ODUgMzgzLjA4IDUwLjM1ODUgMzgzLjA4IDUwLjM1ODUgMzgzLjA4IDUwLjM1ODUgMzgzLjMxMyA1MC4xNzQ3IDM4My41IDQ5Ljk0NDkgMzgzLjUgNDkuOTQ0OSAzODMuNSA0OS45NDQ5IDM4My41IDQ5Ljk0NDkgMzgzLjUgNDkuNjY5MiAzODMuNSA0OS40ODUzIDM4My4zMTMgNDkuNDg1MyAzODMuMDggNDkuNTMxMyAzNzkuMjA2IDQ5LjUzMTMgMzc5LjIwNiA0OS41MzEzIDM3OS4yMDYgNDguNTY2MiAzNzkuMDY2IDQ2LjI2ODQgMzc4LjU1MiA0NC42MTQgMzc2LjU0NSA0My4wOTc1IDM3NC42NzggNDIuNTAwMSAzNzIuMDY0IDQyLjk1OTYgMzY4Ljc5NiA0My43NDA5IDM2Mi41ODggNDguMTk4NiAzNTkuNzg3IDUwLjgxODEgMzU4LjY2NyA1My41Mjk1IDM1Ny41IDU2LjUxNjYgMzU3LjUgNTkuMTgyIDM1OC42NjcgNjEuODAxNSAzNTkuNzg3IDY2LjMwNTIgMzYyLjU4OCA2Ny4wODY0IDM2OC43OTYgNjcuNTAwMSAzNzIuMDY0IDY2Ljk0ODYgMzc0LjY3OCA2NS4zODYxIDM3Ni41NDUgNjMuNzMxNyAzNzguNTUyIDYxLjM4NzkgMzc5LjA2NiA2MC40Njg4IDM3OS4yMDYgNjAuNDY4OCAzODMuMDggNjAuNDY4OCAzODMuMDggNjAuNDY4OCAzODMuMDggNjAuNDY4OCAzODMuMzEzIDYwLjI4NSAzODMuNSA2MC4wNTUyIDM4My41IDYwLjA1NTIgMzgzLjUgNjAuMDU1MiAzODMuNSA2MC4wNTUyIDM4My41WiIgc3Ryb2tlPSIjQzAwMDAwIiBzdHJva2UtbGluZWpvaW49InJvdW5kIiBzdHJva2UtbWl0ZXJsaW1pdD0iMTAiIGZpbGw9IiNDMDAwMDAiIGZpbGwtcnVsZT0iZXZlbm9kZCIvPjxwYXRoIGQ9Ik01MC4wMDAxIDM3NC41QzQ4LjA1NTYgMzc0LjUgNDYuNTAwMSAzNzIuNjk4IDQ2LjUwMDEgMzcwLjUgNDYuNTAwMSAzNjguMzAyIDQ4LjA1NTYgMzY2LjUgNTAuMDAwMSAzNjYuNSA1MS45NDQ1IDM2Ni41IDUzLjUwMDEgMzY4LjMwMiA1My41MDAxIDM3MC41IDUzLjUwMDEgMzcyLjY5OCA1MS45NDQ1IDM3NC41IDUwLjAwMDEgMzc0LjVaTTUwLjAwMDEgMzY3LjI5MUM0OC40ODc3IDM2Ny4yOTEgNDcuMjc3OCAzNjguNzQyIDQ3LjI3NzggMzcwLjUgNDcuMjc3OCAzNzIuMjU4IDQ4LjQ4NzcgMzczLjcwOSA1MC4wMDAxIDM3My43MDkgNTEuNDY5MiAzNzMuNzA5IDUyLjcyMjMgMzcyLjI1OCA1Mi43MjIzIDM3MC41IDUyLjcyMjMgMzY4Ljc0MiA1MS40NjkyIDM2Ny4yOTEgNTAuMDAwMSAzNjcuMjkxWiIgc3Ryb2tlPSIjQzAwMDAwIiBzdHJva2UtbGluZWpvaW49InJvdW5kIiBzdHJva2UtbWl0ZXJsaW1pdD0iMTAiIGZpbGw9IiNDMDAwMDAiIGZpbGwtcnVsZT0iZXZlbm9kZCIvPjxwYXRoIGQ9Ik02MC4wMDAxIDM3NC41QzU4LjA5ODggMzc0LjUgNTYuNTAwMSAzNzIuNjk4IDU2LjUwMDEgMzcwLjUgNTYuNTAwMSAzNjguMzAyIDU4LjA5ODggMzY2LjUgNjAuMDAwMSAzNjYuNSA2MS45NDQ1IDM2Ni41IDYzLjUwMDEgMzY4LjMwMiA2My41MDAxIDM3MC41IDYzLjUwMDEgMzcyLjY5OCA2MS45NDQ1IDM3NC41IDYwLjAwMDEgMzc0LjVaTTYwLjAwMDEgMzY3LjI5MUM1OC41MzA5IDM2Ny4yOTEgNTcuMzIxIDM2OC43NDIgNTcuMzIxIDM3MC41IDU3LjMyMSAzNzIuMjU4IDU4LjUzMDkgMzczLjcwOSA2MC4wMDAxIDM3My43MDkgNjEuNTEyNCAzNzMuNzA5IDYyLjcyMjMgMzcyLjI1OCA2Mi43MjIzIDM3MC41IDYyLjcyMjMgMzY4Ljc0MiA2MS41MTI0IDM2Ny4yOTEgNjAuMDAwMSAzNjcuMjkxWiIgc3Ryb2tlPSIjQzAwMDAwIiBzdHJva2UtbGluZWpvaW49InJvdW5kIiBzdHJva2UtbWl0ZXJsaW1pdD0iMTAiIGZpbGw9IiNDMDAwMDAiIGZpbGwtcnVsZT0iZXZlbm9kZCIvPjxwYXRoIGQ9Ik01My4wMDAxIDM4NC41QzUyLjcyMjMgMzg0LjUgNTIuNTAwMSAzODQuMzE3IDUyLjUwMDEgMzg0LjA4NyA1Mi41MDAxIDM3OS45NTkgNTIuNTAwMSAzNzkuOTU5IDUyLjUwMDEgMzc5Ljk1OSA1Mi41MDAxIDM3OS42ODQgNTIuNzIyMyAzNzkuNSA1My4wMDAxIDM3OS41IDUzLjI3NzggMzc5LjUgNTMuNTAwMSAzNzkuNjg0IDUzLjUwMDEgMzc5Ljk1OSA1My41MDAxIDM4NC4wODcgNTMuNTAwMSAzODQuMDg3IDUzLjUwMDEgMzg0LjA4NyA1My41MDAxIDM4NC4zMTcgNTMuMjc3OCAzODQuNSA1My4wMDAxIDM4NC41WiIgc3Ryb2tlPSIjQzAwMDAwIiBzdHJva2UtbGluZWpvaW49InJvdW5kIiBzdHJva2UtbWl0ZXJsaW1pdD0iMTAiIGZpbGw9IiNDMDAwMDAiIGZpbGwtcnVsZT0iZXZlbm9kZCIvPjxwYXRoIGQ9Ik01Ni45NzM3IDM4NC41QzU2LjcxMDYgMzg0LjUgNTYuNTAwMSAzODQuMzE3IDU2LjUwMDEgMzg0LjA4NyA1Ni41MDAxIDM3OS45NTkgNTYuNTAwMSAzNzkuOTU5IDU2LjUwMDEgMzc5Ljk1OSA1Ni41MDAxIDM3OS42ODQgNTYuNzEwNiAzNzkuNSA1Ni45NzM3IDM3OS41IDU3LjIzNjkgMzc5LjUgNTcuNTAwMSAzNzkuNjg0IDU3LjUwMDEgMzc5Ljk1OSA1Ny41MDAxIDM4NC4wODcgNTcuNTAwMSAzODQuMDg3IDU3LjUwMDEgMzg0LjA4NyA1Ny41MDAxIDM4NC4zMTcgNTcuMjM2OSAzODQuNSA1Ni45NzM3IDM4NC41WiIgc3Ryb2tlPSIjQzAwMDAwIiBzdHJva2UtbGluZWpvaW49InJvdW5kIiBzdHJva2UtbWl0ZXJsaW1pdD0iMTAiIGZpbGw9IiNDMDAwMDAiIGZpbGwtcnVsZT0iZXZlbm9kZCIvPjxwYXRoIGQ9Ik01NS4wMDAxIDM5Ni41QzU0LjcyMjMgMzk2LjUgNTQuNTAwMSAzOTYuMzE3IDU0LjUwMDEgMzk2LjA4OCA1NC41MDAxIDM5MC45MTIgNTQuNTAwMSAzOTAuOTEyIDU0LjUwMDEgMzkwLjkxMiA1NC41MDAxIDM5MC42ODMgNTQuNzIyMyAzOTAuNSA1NS4wMDAxIDM5MC41IDU1LjI3NzggMzkwLjUgNTUuNTAwMSAzOTAuNjgzIDU1LjUwMDEgMzkwLjkxMiA1NS41MDAxIDM5Ni4wODggNTUuNTAwMSAzOTYuMDg4IDU1LjUwMDEgMzk2LjA4OCA1NS41MDAxIDM5Ni4zMTcgNTUuMjc3OCAzOTYuNSA1NS4wMDAxIDM5Ni41WiIgc3Ryb2tlPSIjQzAwMDAwIiBzdHJva2UtbGluZWpvaW49InJvdW5kIiBzdHJva2UtbWl0ZXJsaW1pdD0iMTAiIGZpbGw9IiNDMDAwMDAiIGZpbGwtcnVsZT0iZXZlbm9kZCIvPjxwYXRoIGQ9Ik01NC45Nzk1IDM3NC42NTFDNTUuMjY3MiAzNzUuMDM0IDU1LjY3ODEgMzc1Ljg1NiA1NS43NjAzIDM3Ni4xODUgNTUuNzYwMyAzNzYuNDA0IDU1LjY3ODEgMzc2LjUxNCA1NS42MzcgMzc2LjUxNCA1NS41OTU5IDM3Ni41MTQgNTUuNTU0OCAzNzYuNDU5IDU1LjU1NDggMzc2LjQ1OSA1NS40MzE2IDM3Ni4yNCA1NS4yMjYxIDM3Ni4xMyA1NS4wMjA2IDM3Ni4xMyA1NC43NzQgMzc2LjEzIDU0LjYwOTYgMzc2LjI0IDU0LjQ0NTMgMzc2LjQ1OSA1NC40NDUzIDM3Ni40NTkgNTQuNDA0MiAzNzYuNTE0IDU0LjM2MzEgMzc2LjUxNCA1NC4zMjIgMzc2LjUxNCA1NC4yMzk4IDM3Ni40MDQgNTQuMjM5OCAzNzYuMTg1IDU0LjMyMiAzNzUuODU2IDU0LjY5MTggMzc1LjAzNCA1NC45Nzk1IDM3NC42NTFNNTQuOTc5NSAzNzMuNUM1NC41Mjc1IDM3My41IDUzLjUwMDEgMzc1LjUyNyA1My41MDAxIDM3Ni4xMyA1My41MDAxIDM3Ni44OTcgNTMuODY5OSAzNzcuNSA1NC4zNjMxIDM3Ny41IDU0LjYwOTYgMzc3LjUgNTQuODU2MiAzNzcuMzM2IDU1LjAyMDYgMzc3LjExNiA1NS4xNDM5IDM3Ny4zMzYgNTUuMzkwNSAzNzcuNSA1NS42MzcgMzc3LjUgNTYuMTMwMiAzNzcuNSA1Ni41MDAxIDM3Ni44OTcgNTYuNTAwMSAzNzYuMTMgNTYuNTAwMSAzNzUuNTI3IDU1LjQzMTYgMzczLjUgNTQuOTc5NSAzNzMuNVoiIHN0cm9rZT0iI0MwMDAwMCIgc3Ryb2tlLWxpbmVqb2luPSJyb3VuZCIgc3Ryb2tlLW1pdGVybGltaXQ9IjEwIiBmaWxsPSIjQzAwMDAwIiBmaWxsLXJ1bGU9ImV2ZW5vZGQiLz48cGF0aCBkPSJNMzIuOTA4MiAzOTYuNUMzMi42ODE1IDM5Ni41IDMyLjUwMDEgMzk2LjMwNyAzMi41MDAxIDM5Ni4wNjUgMzIuNTAwMSAzODQuMTEzIDQxLjI1MjkgMzgxLjg4NyA0My45Mjg2IDM4MS41IDQ0LjA2NDcgMzgxLjUgNDQuMjAwNyAzODEuNTQ4IDQ0LjI5MTQgMzgxLjY0NSA0NC41NjM1IDM4MS44ODcgNDQuNTYzNSAzODEuODg3IDQ0LjU2MzUgMzgxLjg4NyA0Ny4zMyAzODQuNjk0IDUwLjI3NzggMzg3LjA2NSA1Mi4yNzMzIDM4OC41MTYgNTIuNDU0NyAzODguNjYxIDUyLjUwMDEgMzg4Ljk1MiA1Mi4zNjQgMzg5LjE0NSA1Mi4yMjc5IDM4OS4zMzkgNTEuOTU1OCAzODkuMzg3IDUxLjc3NDQgMzg5LjI0MiA0OS43NzkgMzg3Ljc0MiA0Ni44MzExIDM4NS4zNzEgNDMuOTc0IDM4Mi41NjUgNDMuODM3OSAzODIuNDE5IDQzLjgzNzkgMzgyLjQxOSA0My44Mzc5IDM4Mi40MTkgNDEuMTE2OCAzODIuODU1IDMzLjMxNjQgMzg1LjA4MSAzMy4zMTY0IDM5Ni4wNjUgMzMuMzE2NCAzOTYuMzA3IDMzLjEzNSAzOTYuNSAzMi45MDgyIDM5Ni41WiIgc3Ryb2tlPSIjQzAwMDAwIiBzdHJva2UtbGluZWpvaW49InJvdW5kIiBzdHJva2UtbWl0ZXJsaW1pdD0iMTAiIGZpbGw9IiNDMDAwMDAiIGZpbGwtcnVsZT0iZXZlbm9kZCIvPjxwYXRoIGQ9Ik02NS45NTQgMzgyLjQ1NEM2NS44NTk2IDM4Mi40NTQgNjUuNzY1MiAzODIuNDA5IDY1LjY3MDggMzgyLjM2MyA2NS40ODE5IDM4Mi4xOCA2NS40ODE5IDM4MS45MDcgNjUuNjcwOCAzODEuNzcgNzAuOTU4OSAzNzYuOTMgNzMuNjAzIDM3Mi43MyA3My42MDMgMzY5LjIxNCA3My42MDMgMzU5LjkwMSA2NS4yOTMgMzUyLjMyMiA1NS4wMDAxIDM1Mi4zMjIgNDQuNzU0MyAzNTIuMzIyIDM2LjM5NzEgMzU5LjkwMSAzNi4zOTcxIDM2OS4yMTQgMzYuMzk3MSAzNzIuNzMgMzkuMDQxMiAzNzYuOTMgNDQuMzI5NCAzODEuNzcgNDQuNDcxIDM4MS45MDcgNDQuNDcxIDM4Mi4xOCA0NC4zMjk0IDM4Mi4zMTcgNDQuMTg3NyAzODIuNSA0My45MDQ0IDM4Mi41IDQzLjcxNTUgMzgyLjM2MyAzOC4yODU4IDM3Ny4zODcgMzUuNTAwMSAzNzIuOTU4IDM1LjUwMDEgMzY5LjIxNCAzNS41MDAxIDM1OS40NDQgNDQuMjgyMSAzNTEuNSA1NS4wMDAxIDM1MS41IDY1Ljc2NTIgMzUxLjUgNzQuNTAwMSAzNTkuNDQ0IDc0LjUwMDEgMzY5LjIxNCA3NC41MDAxIDM3Mi45NTggNzEuNzE0MyAzNzcuMzg3IDY2LjI4NDYgMzgyLjM2MyA2Ni4xOTAxIDM4Mi40NTQgNjYuMDk1NyAzODIuNDU0IDY1Ljk1NCAzODIuNDU0WiIgc3Ryb2tlPSIjQzAwMDAwIiBzdHJva2UtbGluZWpvaW49InJvdW5kIiBzdHJva2UtbWl0ZXJsaW1pdD0iMTAiIGZpbGw9IiNDMDAwMDAiIGZpbGwtcnVsZT0iZXZlbm9kZCIvPjxwYXRoIGQ9Ik03Ny4wODMgMzk5LjVDNzcuMDgzIDM5OS41IDc3LjA4MyAzOTkuNSA3Ny4wODMgMzk5LjUgMzIuOTE3MSAzOTkuNSAzMi45MTcxIDM5OS41IDMyLjkxNzEgMzk5LjUgMzIuNjg1NCAzOTkuNSAzMi41MDAxIDM5OS4yNjYgMzIuNTAwMSAzOTkuMDMxIDMyLjUwMDEgMzk4Ljc5NyAzMi42ODU0IDM5OC42MDkgMzIuOTE3MSAzOTguNjA5IDMyLjkxNzEgMzk4LjYwOSAzMi45MTcxIDM5OC42MDkgMzIuOTE3MSAzOTguNjA5IDc2LjY2NTkgMzk4LjY1NiA3Ni42NjU5IDM5OC42NTYgNzYuNjY1OSAzOTguNjU2IDc2LjY2NTkgMzk1LjYwOSA3Ni42NjU5IDM5NS42MDkgNzYuNjY1OSAzOTUuNjA5IDc2LjY2NTkgMzg1LjAxNiA2OC42OTQ3IDM4Mi44MTMgNjUuOTYwNCAzODIuMzkxIDYwLjkwODkgMzg3LjE3MiA1NS4zMDEzIDM5MC43MzQgNTUuMjU0OSAzOTAuNzgxIDU1LjExNTkgMzkwLjg3NSA1NC45MzA1IDM5MC44NzUgNTQuNzkxNSAzOTAuNzgxIDU0Ljc5MTUgMzkwLjc4MSA1My43MjU2IDM5MC4xMjUgNTIuMTk2MiAzODkgNTIuMDEwOSAzODguODU5IDUxLjk2NDUgMzg4LjYyNSA1Mi4xMDM2IDM4OC4zOTEgNTIuMjQyNiAzODguMjAzIDUyLjQ3NDMgMzg4LjE1NiA1Mi43MDYgMzg4LjI5NyA1My43NzE5IDM4OS4wOTQgNTQuNjA2MSAzODkuNjU2IDU1LjAyMzIgMzg5Ljg5MSA1Ni4wODkxIDM4OS4xODggNjEuMDQ3OSAzODUuODU5IDY1LjQ5NyAzODEuNjQxIDY1LjU4OTcgMzgxLjU0NyA2NS43Mjg3IDM4MS41IDY1Ljg2NzcgMzgxLjUgNjguNjAyIDM4MS44NzUgNzcuNTAwMSAzODQuMDMxIDc3LjUwMDEgMzk1LjYwOSA3Ny41MDAxIDM5OS4wNzggNzcuNTAwMSAzOTkuMDc4IDc3LjUwMDEgMzk5LjA3OCA3Ny41MDAxIDM5OS4xNzIgNzcuNDUzNyAzOTkuMzEzIDc3LjQwNzQgMzk5LjM1OSA3Ny4zMTQ3IDM5OS40NTMgNzcuMjIyIDM5OS41IDc3LjA4MyAzOTkuNVoiIHN0cm9rZT0iI0MwMDAwMCIgc3Ryb2tlLWxpbmVqb2luPSJyb3VuZCIgc3Ryb2tlLW1pdGVybGltaXQ9IjEwIiBmaWxsPSIjQzAwMDAwIiBmaWxsLXJ1bGU9ImV2ZW5vZGQiLz48L2c+PC9zdmc+;" vertex="1" parent="1">
                    <mxGeometry y="280" width="36.15" height="40" as="geometry"/>
                </mxCell>
            </root>
        </mxGraphModel>
    </diagram>
</mxfile>